MaterialDesignIconsDesktop.ufo
<glyph name="vector-square" format="2">
  <advance width="1200"/>
  <unicode hex="F0001"/>
  <note>
vector-square
</note>
  <outline>
    <contour>
      <point x="20" y="941" type="line"/>
      <point x="134" y="941" type="line"/>
      <point x="134" y="479" type="line"/>
      <point x="20" y="479" type="line"/>
      <point x="20" y="130" type="line"/>
      <point x="369" y="130" type="line"/>
      <point x="369" y="244" type="line"/>
      <point x="831" y="244" type="line"/>
      <point x="831" y="130" type="line"/>
      <point x="1180" y="130" type="line"/>
      <point x="1180" y="479" type="line"/>
      <point x="1066" y="479" type="line"/>
      <point x="1066" y="941" type="line"/>
      <point x="1180" y="941" type="line"/>
      <point x="1180" y="1290" type="line"/>
      <point x="831" y="1290" type="line"/>
      <point x="831" y="1176" type="line"/>
      <point x="369" y="1176" type="line"/>
      <point x="369" y="1290" type="line"/>
      <point x="20" y="1290" type="line"/>
    </contour>
    <contour>
      <point x="949" y="941" type="line"/>
      <point x="949" y="479" type="line"/>
      <point x="831" y="479" type="line"/>
      <point x="831" y="361" type="line"/>
      <point x="369" y="361" type="line"/>
      <point x="369" y="479" type="line"/>
      <point x="251" y="479" type="line"/>
      <point x="251" y="941" type="line"/>
      <point x="369" y="941" type="line"/>
      <point x="369" y="1059" type="line"/>
      <point x="831" y="1059" type="line"/>
      <point x="831" y="941" type="line"/>
    </contour>
    <contour>
      <point x="251" y="1176" type="line"/>
      <point x="251" y="1059" type="line"/>
      <point x="134" y="1059" type="line"/>
      <point x="134" y="1176" type="line"/>
    </contour>
    <contour>
      <point x="1066" y="1176" type="line"/>
      <point x="1066" y="1059" type="line"/>
      <point x="949" y="1059" type="line"/>
      <point x="949" y="1176" type="line"/>
    </contour>
    <contour>
      <point x="251" y="361" type="line"/>
      <point x="251" y="244" type="line"/>
      <point x="134" y="244" type="line"/>
      <point x="134" y="361" type="line"/>
    </contour>
    <contour>
      <point x="1066" y="361" type="line"/>
      <point x="1066" y="244" type="line"/>
      <point x="949" y="244" type="line"/>
      <point x="949" y="361" type="line"/>
    </contour>
  </outline>
</glyph>
<glyph name="access-point-network" format="2">
  <advance width="1200"/>
  <unicode hex="F0002"/>
  <note>
access-point-network
</note>
  <outline>
    <contour>
      <point x="271" y="1182" type="qcurve"/>
      <point x="189" y="1264" type="line"/>
      <point x="110" y="1185"/>
      <point x="20" y="973"/>
      <point x="20" y="736"/>
      <point x="110" y="523"/>
      <point x="189" y="445" type="qcurve"/>
      <point x="271" y="526" type="line"/>
      <point x="208" y="589"/>
      <point x="134" y="758"/>
      <point x="134" y="948"/>
      <point x="208" y="1120"/>
    </contour>
    <contour>
      <point x="1090" y="1185"/>
      <point x="1011" y="1264" type="qcurve"/>
      <point x="929" y="1182" type="line"/>
      <point x="992" y="1120"/>
      <point x="1066" y="948"/>
      <point x="1066" y="758"/>
      <point x="992" y="589"/>
      <point x="929" y="526" type="qcurve"/>
      <point x="1011" y="445" type="line"/>
      <point x="1090" y="523"/>
      <point x="1180" y="736"/>
      <point x="1180" y="973"/>
    </contour>
    <contour>
      <point x="437" y="1019" type="qcurve"/>
      <point x="355" y="1101" type="line"/>
      <point x="306" y="1052"/>
      <point x="251" y="924"/>
      <point x="251" y="782"/>
      <point x="306" y="657"/>
      <point x="355" y="608" type="qcurve"/>
      <point x="437" y="690" type="line"/>
      <point x="369" y="758"/>
      <point x="369" y="951"/>
    </contour>
    <contour>
      <point x="894" y="1052"/>
      <point x="845" y="1101" type="qcurve"/>
      <point x="763" y="1019" type="line"/>
      <point x="831" y="951"/>
      <point x="831" y="758"/>
      <point x="763" y="690" type="qcurve"/>
      <point x="845" y="608" type="line"/>
      <point x="894" y="657"/>
      <point x="949" y="782"/>
      <point x="949" y="924"/>
    </contour>
    <contour>
      <point x="649" y="970"/>
      <point x="600" y="970" type="qcurve" smooth="yes"/>
      <point x="551" y="970"/>
      <point x="483" y="902"/>
      <point x="483" y="807"/>
      <point x="551" y="739"/>
      <point x="649" y="739"/>
      <point x="717" y="807"/>
      <point x="717" y="902"/>
    </contour>
    <contour>
      <point x="657" y="622" type="line"/>
      <point x="543" y="622" type="line"/>
      <point x="543" y="390" type="line"/>
      <point x="483" y="390" type="line" smooth="yes"/>
      <point x="458" y="390"/>
      <point x="426" y="355"/>
      <point x="426" y="330" type="qcurve"/>
      <point x="20" y="330" type="line"/>
      <point x="20" y="216" type="line"/>
      <point x="426" y="216" type="line"/>
      <point x="426" y="191"/>
      <point x="458" y="156"/>
      <point x="483" y="156" type="qcurve" smooth="yes"/>
      <point x="717" y="156" type="line" smooth="yes"/>
      <point x="742" y="156"/>
      <point x="774" y="191"/>
      <point x="774" y="216" type="qcurve"/>
      <point x="1180" y="216" type="line"/>
      <point x="1180" y="330" type="line"/>
      <point x="774" y="330" type="line"/>
      <point x="774" y="355"/>
      <point x="742" y="390"/>
      <point x="717" y="390" type="qcurve" smooth="yes"/>
      <point x="657" y="390" type="line"/>
    </contour>
  </outline>
</glyph>
<glyph name="access-point" format="2">
  <advance width="1200"/>
  <unicode hex="F0003"/>
  <note>
access-point
</note>
  <outline>
    <contour>
      <point x="271" y="1039" type="qcurve"/>
      <point x="189" y="1121" type="line"/>
      <point x="110" y="1039"/>
      <point x="20" y="827"/>
      <point x="20" y="593"/>
      <point x="110" y="381"/>
      <point x="189" y="299" type="qcurve"/>
      <point x="271" y="381" type="line"/>
      <point x="208" y="446"/>
      <point x="134" y="615"/>
      <point x="134" y="805"/>
      <point x="208" y="974"/>
    </contour>
    <contour>
      <point x="1090" y="1039"/>
      <point x="1011" y="1121" type="qcurve"/>
      <point x="929" y="1039" type="line"/>
      <point x="992" y="974"/>
      <point x="1066" y="805"/>
      <point x="1066" y="615"/>
      <point x="992" y="446"/>
      <point x="929" y="381" type="qcurve"/>
      <point x="1011" y="299" type="line"/>
      <point x="1090" y="381"/>
      <point x="1180" y="593"/>
      <point x="1180" y="827"/>
    </contour>
    <contour>
      <point x="437" y="873" type="qcurve"/>
      <point x="355" y="955" type="line"/>
      <point x="306" y="909"/>
      <point x="251" y="781"/>
      <point x="251" y="639"/>
      <point x="306" y="511"/>
      <point x="355" y="465" type="qcurve"/>
      <point x="437" y="547" type="line"/>
      <point x="369" y="615"/>
      <point x="369" y="805"/>
    </contour>
    <contour>
      <point x="894" y="909"/>
      <point x="845" y="955" type="qcurve"/>
      <point x="763" y="873" type="line"/>
      <point x="831" y="805"/>
      <point x="831" y="615"/>
      <point x="763" y="547" type="qcurve"/>
      <point x="845" y="465" type="line"/>
      <point x="894" y="511"/>
      <point x="949" y="639"/>
      <point x="949" y="781"/>
    </contour>
    <contour>
      <point x="649" y="827"/>
      <point x="600" y="827" type="qcurve" smooth="yes"/>
      <point x="551" y="827"/>
      <point x="483" y="759"/>
      <point x="483" y="661"/>
      <point x="551" y="593"/>
      <point x="649" y="593"/>
      <point x="717" y="661"/>
      <point x="717" y="759"/>
    </contour>
  </outline>
</glyph>
<glyph name="account" format="2">
  <advance width="1200"/>
  <unicode hex="F0004"/>
  <note>
account
</note>
  <outline>
    <contour>
      <point x="481" y="1290"/>
      <point x="312" y="1120"/>
      <point x="312" y="880"/>
      <point x="481" y="710"/>
      <point x="719" y="710"/>
      <point x="888" y="880"/>
      <point x="888" y="1120"/>
      <point x="719" y="1290"/>
      <point x="600" y="1290" type="qcurve" smooth="yes"/>
    </contour>
    <contour>
      <point x="444" y="564"/>
      <point x="176" y="486"/>
      <point x="20" y="354"/>
      <point x="20" y="276" type="qcurve" smooth="yes"/>
      <point x="20" y="130" type="line"/>
      <point x="1180" y="130" type="line"/>
      <point x="1180" y="276" type="line" smooth="yes"/>
      <point x="1180" y="354"/>
      <point x="1024" y="486"/>
      <point x="756" y="564"/>
      <point x="600" y="564" type="qcurve" smooth="yes"/>
    </contour>
  </outline>
</glyph>
<glyph name="account-alert" format="2">
  <advance width="1200"/>
  <unicode hex="F0005"/>
  <note>
account-alert
</note>
  <outline>
    <contour>
      <point x="388" y="1176"/>
      <point x="251" y="1039"/>
      <point x="251" y="846"/>
      <point x="388" y="710"/>
      <point x="581" y="710"/>
      <point x="717" y="846"/>
      <point x="717" y="1039"/>
      <point x="581" y="1176"/>
      <point x="483" y="1176" type="qcurve" smooth="yes"/>
    </contour>
    <contour>
      <point x="358" y="593"/>
      <point x="145" y="530"/>
      <point x="20" y="424"/>
      <point x="20" y="361" type="qcurve" smooth="yes"/>
      <point x="20" y="244" type="line"/>
      <point x="949" y="244" type="line"/>
      <point x="949" y="361" type="line" smooth="yes"/>
      <point x="949" y="424"/>
      <point x="823" y="530"/>
      <point x="611" y="593"/>
      <point x="483" y="593" type="qcurve" smooth="yes"/>
    </contour>
    <contour>
      <point x="1066" y="653" type="line"/>
      <point x="1180" y="653" type="line"/>
      <point x="1180" y="1001" type="line"/>
      <point x="1066" y="1001" type="line"/>
      <point x="1066" y="710" type="line"/>
    </contour>
    <contour>
      <point x="1180" y="419" type="line"/>
      <point x="1180" y="536" type="line"/>
      <point x="1066" y="536" type="line"/>
      <point x="1066" y="419" type="line"/>
    </contour>
  </outline>
</glyph>
<glyph name="account-box" format="2">
  <advance width="1200"/>
  <unicode hex="F0006"/>
  <note>
account-box
</note>
  <outline>
    <contour>
      <point x="213" y="323" type="line"/>
      <point x="213" y="387" type="line" smooth="yes"/>
      <point x="213" y="447"/>
      <point x="286" y="496" type="qcurve" smooth="yes"/>
      <point x="346" y="538"/>
      <point x="443" y="565" type="qcurve" smooth="yes"/>
      <point x="531" y="586"/>
      <point x="669" y="586"/>
      <point x="757" y="565" type="qcurve" smooth="yes"/>
      <point x="854" y="538"/>
      <point x="914" y="496" type="qcurve" smooth="yes"/>
      <point x="987" y="447"/>
      <point x="987" y="387" type="qcurve" smooth="yes"/>
      <point x="987" y="323" type="line"/>
    </contour>
    <contour>
      <point x="793" y="985"/>
      <point x="793" y="903" type="qcurve" smooth="yes"/>
      <point x="793" y="822"/>
      <point x="682" y="710"/>
      <point x="518" y="710"/>
      <point x="407" y="822"/>
      <point x="407" y="985"/>
      <point x="518" y="1097"/>
      <point x="682" y="1097"/>
    </contour>
    <contour>
      <point x="20" y="1214"/>
      <point x="20" y="1160" type="qcurve" smooth="yes"/>
      <point x="20" y="260" type="line" smooth="yes"/>
      <point x="20" y="206"/>
      <point x="96" y="130"/>
      <point x="150" y="130" type="qcurve" smooth="yes"/>
      <point x="1050" y="130" type="line" smooth="yes"/>
      <point x="1104" y="130"/>
      <point x="1180" y="206"/>
      <point x="1180" y="260" type="qcurve" smooth="yes"/>
      <point x="1180" y="1160" type="line" smooth="yes"/>
      <point x="1180" y="1214"/>
      <point x="1104" y="1290"/>
      <point x="1050" y="1290" type="qcurve" smooth="yes"/>
      <point x="150" y="1290" type="line" smooth="yes"/>
      <point x="96" y="1290"/>
    </contour>
  </outline>
</glyph>
<glyph name="account-box-outline" format="2">
  <advance width="1200"/>
  <unicode hex="F0007"/>
  <note>
account-box-outline
</note>
  <outline>
    <contour>
      <point x="1050" y="1160" type="line"/>
      <point x="1050" y="260" type="line"/>
      <point x="150" y="260" type="line"/>
      <point x="150" y="1160" type="line"/>
    </contour>
    <contour>
      <point x="1104" y="1290"/>
      <point x="1050" y="1290" type="qcurve" smooth="yes"/>
      <point x="150" y="1290" type="line" smooth="yes"/>
      <point x="96" y="1290"/>
      <point x="20" y="1214"/>
      <point x="20" y="1160" type="qcurve" smooth="yes"/>
      <point x="20" y="260" type="line" smooth="yes"/>
      <point x="20" y="206"/>
      <point x="96" y="130"/>
      <point x="150" y="130" type="qcurve" smooth="yes"/>
      <point x="1050" y="130" type="line" smooth="yes"/>
      <point x="1104" y="130"/>
      <point x="1180" y="206"/>
      <point x="1180" y="260" type="qcurve" smooth="yes"/>
      <point x="1180" y="1160" type="line" smooth="yes"/>
      <point x="1180" y="1214"/>
    </contour>
    <contour>
      <point x="890" y="387" type="line"/>
      <point x="890" y="435" type="line" smooth="yes"/>
      <point x="890" y="480"/>
      <point x="836" y="517" type="qcurve" smooth="yes"/>
      <point x="790" y="547"/>
      <point x="718" y="565" type="qcurve" smooth="yes"/>
      <point x="654" y="580"/>
      <point x="546" y="580"/>
      <point x="482" y="565" type="qcurve" smooth="yes"/>
      <point x="410" y="547"/>
      <point x="364" y="517" type="qcurve" smooth="yes"/>
      <point x="310" y="480"/>
      <point x="310" y="435" type="qcurve" smooth="yes"/>
      <point x="310" y="387" type="line"/>
    </contour>
    <contour>
      <point x="540" y="695"/>
      <point x="600" y="695" type="qcurve" smooth="yes"/>
      <point x="660" y="695"/>
      <point x="745" y="779"/>
      <point x="745" y="900"/>
      <point x="660" y="985"/>
      <point x="540" y="985"/>
      <point x="455" y="900"/>
      <point x="455" y="779"/>
    </contour>
  </outline>
</glyph>
<glyph name="account-check" format="2">
  <advance width="1200"/>
  <unicode hex="F0008"/>
  <note>
account-check
</note>
  <outline>
    <contour>
      <point x="792" y="387" type="line"/>
      <point x="670" y="509" type="line"/>
      <point x="586" y="426" type="line"/>
      <point x="792" y="219" type="line"/>
      <point x="1180" y="610" type="line"/>
      <point x="1096" y="693" type="line"/>
    </contour>
    <contour>
      <point x="608" y="598" type="line"/>
      <point x="497" y="604" type="line" smooth="yes"/>
      <point x="366" y="604"/>
      <point x="148" y="540"/>
      <point x="20" y="431"/>
      <point x="20" y="367" type="qcurve" smooth="yes"/>
      <point x="20" y="247" type="line"/>
      <point x="614" y="247" type="line"/>
      <point x="435" y="426" type="line"/>
    </contour>
    <contour>
      <point x="396" y="1201"/>
      <point x="257" y="1061"/>
      <point x="257" y="863"/>
      <point x="396" y="724"/>
      <point x="594" y="724"/>
      <point x="734" y="863"/>
      <point x="734" y="1061"/>
      <point x="594" y="1201"/>
      <point x="497" y="1201" type="qcurve" smooth="yes"/>
    </contour>
  </outline>
</glyph>
<glyph name="account-circle" format="2">
  <advance width="1200"/>
  <unicode hex="F0009"/>
  <note>
account-circle
</note>
  <outline>
    <contour>
      <point x="706" y="291"/>
      <point x="600" y="291" type="qcurve" smooth="yes"/>
      <point x="494" y="291"/>
      <point x="309" y="391"/>
      <point x="251" y="479" type="qcurve"/>
      <point x="251" y="530"/>
      <point x="317" y="577" type="qcurve" smooth="yes"/>
      <point x="371" y="615"/>
      <point x="458" y="636" type="qcurve" smooth="yes"/>
      <point x="537" y="658"/>
      <point x="663" y="658"/>
      <point x="742" y="636" type="qcurve" smooth="yes"/>
      <point x="829" y="615"/>
      <point x="883" y="577" type="qcurve" smooth="yes"/>
      <point x="949" y="530"/>
      <point x="949" y="479" type="qcurve"/>
      <point x="891" y="391"/>
    </contour>
    <contour>
      <point x="526" y="1116"/>
      <point x="600" y="1116" type="qcurve" smooth="yes"/>
      <point x="674" y="1116"/>
      <point x="774" y="1015"/>
      <point x="774" y="871"/>
      <point x="674" y="767"/>
      <point x="526" y="767"/>
      <point x="426" y="871"/>
      <point x="426" y="1015"/>
    </contour>
    <contour>
      <point x="758" y="1290"/>
      <point x="600" y="1290" type="qcurve" smooth="yes"/>
      <point x="486" y="1290"/>
      <point x="271" y="1203"/>
      <point x="107" y="1039"/>
      <point x="20" y="824"/>
      <point x="20" y="596"/>
      <point x="107" y="381"/>
      <point x="271" y="217"/>
      <point x="486" y="130"/>
      <point x="714" y="130"/>
      <point x="929" y="217"/>
      <point x="1093" y="381"/>
      <point x="1180" y="596"/>
      <point x="1180" y="710" type="qcurve" smooth="yes"/>
      <point x="1180" y="868"/>
      <point x="1025" y="1135"/>
    </contour>
  </outline>
</glyph>
<glyph name="account-convert" format="2">
  <advance width="1200"/>
  <unicode hex="F000A"/>
  <note>
account-convert
</note>
  <outline>
    <contour>
      <point x="750" y="1292"/>
      <point x="600" y="1292" type="qcurve" smooth="yes"/>
      <point x="568" y="1290" type="line"/>
      <point x="752" y="1106" type="line"/>
      <point x="818" y="1172" type="line"/>
      <point x="939" y="1113"/>
      <point x="1094" y="894"/>
      <point x="1107" y="758" type="qcurve"/>
      <point x="1180" y="758" type="line"/>
      <point x="1169" y="906"/>
      <point x="1007" y="1151"/>
    </contour>
    <contour>
      <point x="671" y="1099"/>
      <point x="600" y="1099" type="qcurve" smooth="yes"/>
      <point x="529" y="1099"/>
      <point x="429" y="999"/>
      <point x="429" y="858"/>
      <point x="529" y="758"/>
      <point x="671" y="758"/>
      <point x="771" y="858"/>
      <point x="771" y="999"/>
    </contour>
    <contour>
      <point x="93" y="662" type="qcurve"/>
      <point x="20" y="662" type="line"/>
      <point x="31" y="514"/>
      <point x="193" y="269"/>
      <point x="450" y="128"/>
      <point x="600" y="128" type="qcurve" smooth="yes"/>
      <point x="632" y="130" type="line"/>
      <point x="448" y="314" type="line"/>
      <point x="382" y="248" type="line"/>
      <point x="261" y="307"/>
      <point x="106" y="526"/>
    </contour>
    <contour>
      <point x="693" y="662"/>
      <point x="600" y="662" type="qcurve" smooth="yes"/>
      <point x="507" y="662"/>
      <point x="352" y="617"/>
      <point x="261" y="537"/>
      <point x="261" y="492" type="qcurve" smooth="yes"/>
      <point x="261" y="419" type="line"/>
      <point x="939" y="419" type="line"/>
      <point x="939" y="492" type="line" smooth="yes"/>
      <point x="939" y="537"/>
      <point x="848" y="617"/>
    </contour>
  </outline>
</glyph>
<glyph name="account-key" format="2">
  <advance width="1200"/>
  <unicode hex="F000B"/>
  <note>
account-key
</note>
  <outline>
    <contour>
      <point x="301" y="807" type="line"/>
      <point x="285" y="850"/>
      <point x="213" y="903"/>
      <point x="165" y="903" type="qcurve" smooth="yes"/>
      <point x="104" y="903"/>
      <point x="20" y="821"/>
      <point x="20" y="696"/>
      <point x="104" y="613"/>
      <point x="165" y="613" type="qcurve" smooth="yes"/>
      <point x="213" y="613"/>
      <point x="285" y="667"/>
      <point x="301" y="710" type="qcurve"/>
      <point x="358" y="710" type="line"/>
      <point x="358" y="613" type="line"/>
      <point x="455" y="613" type="line"/>
      <point x="455" y="710" type="line"/>
      <point x="552" y="710" type="line"/>
      <point x="552" y="807" type="line"/>
    </contour>
    <contour>
      <point x="188" y="807"/>
      <point x="213" y="780"/>
      <point x="213" y="737"/>
      <point x="188" y="710"/>
      <point x="142" y="710"/>
      <point x="117" y="737"/>
      <point x="117" y="780"/>
      <point x="142" y="807"/>
      <point x="165" y="807" type="qcurve" smooth="yes"/>
    </contour>
    <contour>
      <point x="720" y="613"/>
      <point x="634" y="592" type="qcurve" smooth="yes"/>
      <point x="539" y="567"/>
      <point x="478" y="529" type="qcurve" smooth="yes"/>
      <point x="407" y="481"/>
      <point x="407" y="420" type="qcurve" smooth="yes"/>
      <point x="407" y="323" type="line"/>
      <point x="1180" y="323" type="line"/>
      <point x="1180" y="420" type="line" smooth="yes"/>
      <point x="1180" y="481"/>
      <point x="1110" y="529" type="qcurve" smooth="yes"/>
      <point x="1049" y="567"/>
      <point x="951" y="592" type="qcurve" smooth="yes"/>
      <point x="865" y="613"/>
      <point x="793" y="613" type="qcurve" smooth="yes"/>
    </contour>
    <contour>
      <point x="874" y="710"/>
      <point x="987" y="823"/>
      <point x="987" y="984"/>
      <point x="874" y="1097"/>
      <point x="713" y="1097"/>
      <point x="600" y="984"/>
      <point x="600" y="823"/>
      <point x="713" y="710"/>
      <point x="793" y="710" type="qcurve" smooth="yes"/>
    </contour>
  </outline>
</glyph>
<glyph name="tooltip-account" format="2">
  <advance width="1200"/>
  <unicode hex="F000C"/>
  <note>
tooltip-account
</note>
  <outline>
    <contour>
      <point x="1112" y="1290"/>
      <point x="1066" y="1290" type="qcurve" smooth="yes"/>
      <point x="134" y="1290" type="line" smooth="yes"/>
      <point x="88" y="1290"/>
      <point x="20" y="1222"/>
      <point x="20" y="1176" type="qcurve" smooth="yes"/>
      <point x="20" y="479" type="line" smooth="yes"/>
      <point x="20" y="430"/>
      <point x="88" y="361"/>
      <point x="134" y="361" type="qcurve" smooth="yes"/>
      <point x="369" y="361" type="line"/>
      <point x="600" y="130" type="line"/>
      <point x="831" y="361" type="line"/>
      <point x="1066" y="361" type="line" smooth="yes"/>
      <point x="1112" y="361"/>
      <point x="1180" y="430"/>
      <point x="1180" y="479" type="qcurve" smooth="yes"/>
      <point x="1180" y="1176" type="line" smooth="yes"/>
      <point x="1180" y="1222"/>
    </contour>
    <contour>
      <point x="535" y="1157"/>
      <point x="600" y="1157" type="qcurve" smooth="yes"/>
      <point x="665" y="1157"/>
      <point x="758" y="1067"/>
      <point x="758" y="936"/>
      <point x="665" y="843"/>
      <point x="535" y="843"/>
      <point x="442" y="936"/>
      <point x="442" y="1067"/>
    </contour>
    <contour>
      <point x="949" y="587" type="qcurve" smooth="yes"/>
      <point x="949" y="536" type="line"/>
      <point x="251" y="536" type="line"/>
      <point x="251" y="587" type="line" smooth="yes"/>
      <point x="251" y="642"/>
      <point x="317" y="685" type="qcurve" smooth="yes"/>
      <point x="371" y="724"/>
      <point x="458" y="748" type="qcurve" smooth="yes"/>
      <point x="537" y="767"/>
      <point x="663" y="767"/>
      <point x="742" y="748" type="qcurve" smooth="yes"/>
      <point x="829" y="724"/>
      <point x="883" y="685" type="qcurve" smooth="yes"/>
      <point x="949" y="642"/>
    </contour>
  </outline>
</glyph>
<glyph name="account-multiple" format="2">
  <advance width="1200"/>
  <unicode hex="F000E"/>
  <note>
account-multiple
</note>
  <outline>
    <contour>
      <point x="831" y="389" type="line"/>
      <point x="831" y="416"/>
      <point x="818" y="449" type="qcurve" smooth="yes"/>
      <point x="788" y="519"/>
      <point x="712" y="563" type="qcurve" smooth="yes"/>
      <point x="605" y="623"/>
      <point x="426" y="623" type="qcurve" smooth="yes"/>
      <point x="311" y="623"/>
      <point x="227" y="598" type="qcurve" smooth="yes"/>
      <point x="156" y="577"/>
      <point x="107" y="541" type="qcurve" smooth="yes"/>
      <point x="69" y="511"/>
      <point x="45" y="470" type="qcurve" smooth="yes"/>
      <point x="28" y="443"/>
      <point x="23" y="413" type="qcurve" smooth="yes"/>
      <point x="20" y="389" type="line"/>
      <point x="20" y="274" type="line"/>
      <point x="831" y="274" type="line"/>
      <point x="831" y="389" type="line"/>
    </contour>
    <contour>
      <point x="630" y="857"/>
      <point x="630" y="941" type="qcurve" smooth="yes"/>
      <point x="630" y="1004"/>
      <point x="559" y="1105"/>
      <point x="448" y="1154"/>
      <point x="325" y="1129"/>
      <point x="238" y="1042"/>
      <point x="213" y="920"/>
      <point x="262" y="808"/>
      <point x="363" y="737"/>
      <point x="426" y="737" type="qcurve" smooth="yes"/>
      <point x="510" y="737"/>
    </contour>
    <contour>
      <point x="927" y="615"/>
      <point x="829" y="623" type="qcurve"/>
      <point x="883" y="579"/>
      <point x="946" y="457"/>
      <point x="949" y="389" type="qcurve" smooth="yes"/>
      <point x="949" y="274" type="line"/>
      <point x="1180" y="274" type="line"/>
      <point x="1180" y="389" type="line"/>
      <point x="1177" y="410" type="line" smooth="yes"/>
      <point x="1172" y="438"/>
      <point x="1158" y="465" type="qcurve" smooth="yes"/>
      <point x="1139" y="503"/>
      <point x="1104" y="530" type="qcurve" smooth="yes"/>
      <point x="1063" y="568"/>
      <point x="1000" y="590" type="qcurve" smooth="yes"/>
    </contour>
    <contour>
      <point x="859" y="1146"/>
      <point x="774" y="1146" type="qcurve" smooth="yes"/>
      <point x="712" y="1146"/>
      <point x="663" y="1110" type="qcurve"/>
      <point x="717" y="1034"/>
      <point x="717" y="849"/>
      <point x="663" y="773" type="qcurve"/>
      <point x="712" y="737"/>
      <point x="774" y="737" type="qcurve" smooth="yes"/>
      <point x="859" y="737"/>
      <point x="978" y="857"/>
      <point x="978" y="1026"/>
    </contour>
  </outline>
</glyph>
<glyph name="account-multiple-outline" format="2">
  <advance width="1200"/>
  <unicode hex="F000F"/>
  <note>
account-multiple-outline
</note>
  <outline>
    <contour>
      <point x="712" y="737"/>
      <point x="774" y="737" type="qcurve" smooth="yes"/>
      <point x="859" y="737"/>
      <point x="978" y="857"/>
      <point x="978" y="1026"/>
      <point x="859" y="1146"/>
      <point x="774" y="1146" type="qcurve" smooth="yes"/>
      <point x="712" y="1146"/>
      <point x="663" y="1110" type="qcurve"/>
      <point x="717" y="1034"/>
      <point x="717" y="849"/>
      <point x="663" y="773" type="qcurve"/>
    </contour>
    <contour>
      <point x="222" y="857"/>
      <point x="341" y="737"/>
      <point x="426" y="737" type="qcurve" smooth="yes"/>
      <point x="488" y="737"/>
      <point x="589" y="808"/>
      <point x="638" y="920"/>
      <point x="614" y="1042"/>
      <point x="526" y="1129"/>
      <point x="404" y="1154"/>
      <point x="292" y="1105"/>
      <point x="222" y="1004"/>
      <point x="222" y="941" type="qcurve" smooth="yes"/>
    </contour>
    <contour>
      <point x="339" y="977"/>
      <point x="390" y="1029"/>
      <point x="461" y="1029"/>
      <point x="513" y="977"/>
      <point x="513" y="906"/>
      <point x="461" y="854"/>
      <point x="390" y="854"/>
      <point x="339" y="906"/>
      <point x="339" y="941" type="qcurve" smooth="yes"/>
    </contour>
    <contour>
      <point x="831" y="389" type="line"/>
      <point x="831" y="416"/>
      <point x="818" y="449" type="qcurve" smooth="yes"/>
      <point x="788" y="519"/>
      <point x="712" y="563" type="qcurve" smooth="yes"/>
      <point x="605" y="623"/>
      <point x="426" y="623" type="qcurve" smooth="yes"/>
      <point x="311" y="623"/>
      <point x="227" y="598" type="qcurve" smooth="yes"/>
      <point x="156" y="577"/>
      <point x="107" y="541" type="qcurve" smooth="yes"/>
      <point x="69" y="511"/>
      <point x="45" y="470" type="qcurve" smooth="yes"/>
      <point x="28" y="443"/>
      <point x="23" y="413" type="qcurve" smooth="yes"/>
      <point x="20" y="389" type="line"/>
      <point x="20" y="274" type="line"/>
      <point x="831" y="274" type="line"/>
      <point x="831" y="389" type="line"/>
    </contour>
    <contour>
      <point x="134" y="389" type="line"/>
      <point x="137" y="413"/>
      <point x="164" y="438" type="qcurve" smooth="yes"/>
      <point x="197" y="468"/>
      <point x="257" y="484" type="qcurve" smooth="yes"/>
      <point x="328" y="506"/>
      <point x="426" y="506" type="qcurve" smooth="yes"/>
      <point x="570" y="506"/>
      <point x="649" y="465" type="qcurve" smooth="yes"/>
      <point x="709" y="432"/>
      <point x="717" y="389" type="qcurve"/>
    </contour>
    <contour>
      <point x="927" y="615"/>
      <point x="829" y="623" type="qcurve"/>
      <point x="883" y="579"/>
      <point x="946" y="457"/>
      <point x="949" y="389" type="qcurve" smooth="yes"/>
      <point x="949" y="274" type="line"/>
      <point x="1180" y="274" type="line"/>
      <point x="1180" y="389" type="line"/>
      <point x="1177" y="410" type="line" smooth="yes"/>
      <point x="1172" y="438"/>
      <point x="1158" y="465" type="qcurve" smooth="yes"/>
      <point x="1139" y="503"/>
      <point x="1104" y="530" type="qcurve" smooth="yes"/>
      <point x="1063" y="568"/>
      <point x="1000" y="590" type="qcurve" smooth="yes"/>
    </contour>
  </outline>
</glyph>
<glyph name="account-network" format="2">
  <advance width="1200"/>
  <unicode hex="F0011"/>
  <note>
account-network
</note>
  <outline>
    <contour>
      <point x="1006" y="477" type="line"/>
      <point x="1006" y="564" type="line" smooth="yes"/>
      <point x="1006" y="622"/>
      <point x="897" y="714"/>
      <point x="712" y="769"/>
      <point x="488" y="769"/>
      <point x="303" y="714"/>
      <point x="194" y="622"/>
      <point x="194" y="564" type="qcurve" smooth="yes"/>
      <point x="194" y="477" type="line"/>
      <point x="543" y="477" type="line"/>
      <point x="543" y="363" type="line"/>
      <point x="483" y="363" type="line" smooth="yes"/>
      <point x="458" y="363"/>
      <point x="426" y="327"/>
      <point x="426" y="303" type="qcurve"/>
      <point x="20" y="303" type="line"/>
      <point x="20" y="189" type="line"/>
      <point x="426" y="189" type="line"/>
      <point x="426" y="164"/>
      <point x="458" y="129"/>
      <point x="483" y="129" type="qcurve" smooth="yes"/>
      <point x="717" y="129" type="line" smooth="yes"/>
      <point x="742" y="129"/>
      <point x="774" y="164"/>
      <point x="774" y="189" type="qcurve"/>
      <point x="1180" y="189" type="line"/>
      <point x="1180" y="303" type="line"/>
      <point x="774" y="303" type="line"/>
      <point x="774" y="327"/>
      <point x="742" y="363"/>
      <point x="717" y="363" type="qcurve" smooth="yes"/>
      <point x="657" y="363" type="line"/>
      <point x="657" y="477" type="line"/>
    </contour>
    <contour>
      <point x="516" y="1291"/>
      <point x="396" y="1172"/>
      <point x="396" y="1003"/>
      <point x="516" y="886"/>
      <point x="684" y="886"/>
      <point x="804" y="1003"/>
      <point x="804" y="1172"/>
      <point x="684" y="1291"/>
      <point x="600" y="1291" type="qcurve" smooth="yes"/>
    </contour>
  </outline>
</glyph>
<glyph name="account-off" format="2">
  <advance width="1200"/>
  <unicode hex="F0012"/>
  <note>
account-off
</note>
  <outline>
    <contour>
      <point x="543" y="1350"/>
      <point x="395" y="1224"/>
      <point x="376" y="1129" type="qcurve"/>
      <point x="691" y="814" type="line"/>
      <point x="786" y="833"/>
      <point x="909" y="981"/>
      <point x="909" y="1079" type="qcurve" smooth="yes"/>
      <point x="909" y="1192"/>
      <point x="751" y="1350"/>
      <point x="641" y="1350" type="qcurve" smooth="yes"/>
    </contour>
    <contour>
      <point x="105" y="1230" type="line"/>
      <point x="20" y="1145" type="line"/>
      <point x="499" y="666" type="line"/>
      <point x="326" y="644"/>
      <point x="102" y="499"/>
      <point x="102" y="407" type="qcurve" smooth="yes"/>
      <point x="102" y="272" type="line"/>
      <point x="893" y="272" type="line"/>
      <point x="1095" y="70" type="line"/>
      <point x="1180" y="158" type="line"/>
      <point x="1063" y="272" type="line"/>
      <point x="660" y="675" type="line"/>
    </contour>
    <contour>
      <point x="1180" y="489"/>
      <point x="997" y="625"/>
      <point x="852" y="656" type="qcurve"/>
      <point x="1180" y="329" type="line"/>
      <point x="1180" y="407" type="line" smooth="yes"/>
    </contour>
  </outline>
</glyph>
<glyph name="account-outline" format="2">
  <advance width="1200"/>
  <unicode hex="F0013"/>
  <note>
account-outline
</note>
  <outline>
    <contour>
      <point x="481" y="1290"/>
      <point x="312" y="1120"/>
      <point x="312" y="880"/>
      <point x="481" y="710"/>
      <point x="719" y="710"/>
      <point x="888" y="880"/>
      <point x="888" y="1120"/>
      <point x="719" y="1290"/>
      <point x="600" y="1290" type="qcurve" smooth="yes"/>
    </contour>
    <contour>
      <point x="661" y="1144"/>
      <point x="746" y="1059"/>
      <point x="746" y="941"/>
      <point x="661" y="856"/>
      <point x="539" y="856"/>
      <point x="454" y="941"/>
      <point x="454" y="1059"/>
      <point x="539" y="1144"/>
      <point x="600" y="1144" type="qcurve" smooth="yes"/>
    </contour>
    <contour>
      <point x="491" y="639"/>
      <point x="363" y="605" type="qcurve" smooth="yes"/>
      <point x="217" y="568"/>
      <point x="129" y="510" type="qcurve" smooth="yes"/>
      <point x="20" y="439"/>
      <point x="20" y="347" type="qcurve" smooth="yes"/>
      <point x="20" y="130" type="line"/>
      <point x="1180" y="130" type="line"/>
      <point x="1180" y="347" type="line" smooth="yes"/>
      <point x="1180" y="439"/>
      <point x="1071" y="510" type="qcurve" smooth="yes"/>
      <point x="983" y="568"/>
      <point x="837" y="605" type="qcurve" smooth="yes"/>
      <point x="709" y="639"/>
      <point x="600" y="639" type="qcurve" smooth="yes"/>
    </contour>
    <contour>
      <point x="702" y="500"/>
      <point x="810" y="473" type="qcurve" smooth="yes"/>
      <point x="905" y="445"/>
      <point x="1041" y="371"/>
      <point x="1041" y="347" type="qcurve" smooth="yes"/>
      <point x="1041" y="269" type="line"/>
      <point x="159" y="269" type="line"/>
      <point x="159" y="347" type="line" smooth="yes"/>
      <point x="159" y="371"/>
      <point x="295" y="445"/>
      <point x="390" y="473" type="qcurve" smooth="yes"/>
      <point x="498" y="500"/>
      <point x="600" y="500" type="qcurve" smooth="yes"/>
    </contour>
  </outline>
</glyph>
<glyph name="account-remove" format="2">
  <advance width="1200"/>
  <unicode hex="F0015"/>
  <note>
account-remove
</note>
  <outline>
    <contour>
      <point x="668" y="602"/>
      <point x="572" y="579" type="qcurve" smooth="yes"/>
      <point x="464" y="551"/>
      <point x="398" y="506" type="qcurve" smooth="yes"/>
      <point x="318" y="453"/>
      <point x="318" y="387" type="qcurve" smooth="yes"/>
      <point x="318" y="279" type="line"/>
      <point x="1180" y="279" type="line"/>
      <point x="1180" y="387" type="line" smooth="yes"/>
      <point x="1180" y="453"/>
      <point x="1099" y="506" type="qcurve" smooth="yes"/>
      <point x="1034" y="551"/>
      <point x="925" y="579" type="qcurve" smooth="yes"/>
      <point x="829" y="602"/>
      <point x="749" y="602" type="qcurve" smooth="yes"/>
    </contour>
    <contour>
      <point x="837" y="710"/>
      <point x="963" y="836"/>
      <point x="963" y="1015"/>
      <point x="837" y="1141"/>
      <point x="661" y="1141"/>
      <point x="534" y="1015"/>
      <point x="534" y="836"/>
      <point x="661" y="710"/>
      <point x="749" y="710" type="qcurve" smooth="yes"/>
    </contour>
    <contour>
      <point x="96" y="955" type="line"/>
      <point x="20" y="879" type="line"/>
      <point x="136" y="763" type="line"/>
      <point x="20" y="649" type="line"/>
      <point x="96" y="574" type="line"/>
      <point x="212" y="687" type="line"/>
      <point x="325" y="574" type="line"/>
      <point x="401" y="649" type="line"/>
      <point x="287" y="763" type="line"/>
      <point x="401" y="879" type="line"/>
      <point x="325" y="955" type="line"/>
      <point x="212" y="839" type="line"/>
    </contour>
  </outline>
</glyph>
<glyph name="account-search" format="2">
  <advance width="1200"/>
  <unicode hex="F0016"/>
  <note>
account-search
</note>
  <outline>
    <contour>
      <point x="681" y="806"/>
      <point x="532" y="657"/>
      <point x="532" y="443"/>
      <point x="681" y="294"/>
      <point x="788" y="294" type="qcurve" smooth="yes"/>
      <point x="860" y="294"/>
      <point x="921" y="334" type="qcurve"/>
      <point x="1100" y="158" type="line"/>
      <point x="1180" y="238" type="line"/>
      <point x="1004" y="414" type="line"/>
      <point x="1044" y="475"/>
      <point x="1044" y="550" type="qcurve" smooth="yes"/>
      <point x="1044" y="657"/>
      <point x="895" y="806"/>
      <point x="788" y="806" type="qcurve" smooth="yes"/>
    </contour>
    <contour>
      <point x="847" y="691"/>
      <point x="929" y="609"/>
      <point x="929" y="491"/>
      <point x="847" y="409"/>
      <point x="729" y="409"/>
      <point x="644" y="491"/>
      <point x="644" y="609"/>
      <point x="729" y="691"/>
      <point x="788" y="691" type="qcurve" smooth="yes"/>
    </contour>
    <contour>
      <point x="380" y="1262"/>
      <point x="247" y="1129"/>
      <point x="247" y="939"/>
      <point x="380" y="806"/>
      <point x="473" y="806" type="qcurve"/>
      <point x="527" y="811" type="line"/>
      <point x="583" y="867"/>
      <point x="655" y="894" type="qcurve"/>
      <point x="703" y="958"/>
      <point x="703" y="1033" type="qcurve" smooth="yes"/>
      <point x="703" y="1129"/>
      <point x="569" y="1262"/>
      <point x="473" y="1262" type="qcurve" smooth="yes"/>
    </contour>
    <contour>
      <point x="473" y="350" type="line"/>
      <point x="417" y="443"/>
      <point x="417" y="550" type="qcurve" smooth="yes"/>
      <point x="417" y="622"/>
      <point x="447" y="691" type="qcurve"/>
      <point x="329" y="689"/>
      <point x="132" y="625"/>
      <point x="20" y="523"/>
      <point x="20" y="465" type="qcurve" smooth="yes"/>
      <point x="20" y="350" type="line"/>
    </contour>
  </outline>
</glyph>
<glyph name="account-star" format="2">
  <advance width="1200"/>
  <unicode hex="F0017"/>
  <note>
account-star
</note>
  <outline>
    <contour>
      <point x="837" y="604"/>
      <point x="758" y="604" type="qcurve" smooth="yes"/>
      <point x="679" y="604"/>
      <point x="585" y="582" type="qcurve" smooth="yes"/>
      <point x="479" y="555"/>
      <point x="415" y="510" type="qcurve" smooth="yes"/>
      <point x="336" y="458"/>
      <point x="336" y="394" type="qcurve" smooth="yes"/>
      <point x="336" y="288" type="line"/>
      <point x="1180" y="288" type="line"/>
      <point x="1180" y="394" type="line" smooth="yes"/>
      <point x="1180" y="458"/>
      <point x="1101" y="510" type="qcurve" smooth="yes"/>
      <point x="1037" y="555"/>
      <point x="931" y="582" type="qcurve" smooth="yes"/>
    </contour>
    <contour>
      <point x="672" y="710"/>
      <point x="758" y="710" type="qcurve" smooth="yes"/>
      <point x="844" y="710"/>
      <point x="968" y="833"/>
      <point x="968" y="1009"/>
      <point x="844" y="1132"/>
      <point x="672" y="1132"/>
      <point x="548" y="1009"/>
      <point x="548" y="833"/>
    </contour>
    <contour>
      <point x="99" y="564" type="line"/>
      <point x="232" y="643" type="line"/>
      <point x="361" y="564" type="line"/>
      <point x="326" y="712" type="line"/>
      <point x="442" y="811" type="line"/>
      <point x="289" y="824" type="line"/>
      <point x="232" y="964" type="line"/>
      <point x="173" y="824" type="line"/>
      <point x="20" y="811" type="line"/>
      <point x="136" y="712" type="line"/>
    </contour>
  </outline>
</glyph>
<glyph name="orbit" format="2">
  <advance width="1200"/>
  <unicode hex="F0018"/>
  <note>
orbit
</note>
  <outline>
    <contour>
      <point x="432" y="1213"/>
      <point x="452" y="1159" type="qcurve"/>
      <point x="523" y="1184"/>
      <point x="600" y="1184" type="qcurve" smooth="yes"/>
      <point x="728" y="1184"/>
      <point x="946" y="1056"/>
      <point x="1074" y="838"/>
      <point x="1074" y="582"/>
      <point x="946" y="364"/>
      <point x="728" y="236"/>
      <point x="472" y="236"/>
      <point x="254" y="364"/>
      <point x="126" y="582"/>
      <point x="126" y="710" type="qcurve" smooth="yes"/>
      <point x="126" y="787"/>
      <point x="151" y="858" type="qcurve"/>
      <point x="97" y="878"/>
      <point x="59" y="917" type="qcurve"/>
      <point x="20" y="819"/>
      <point x="20" y="710" type="qcurve" smooth="yes"/>
      <point x="20" y="552"/>
      <point x="175" y="285"/>
      <point x="442" y="130"/>
      <point x="758" y="130"/>
      <point x="1025" y="285"/>
      <point x="1180" y="552"/>
      <point x="1180" y="868"/>
      <point x="1025" y="1135"/>
      <point x="758" y="1290"/>
      <point x="600" y="1290" type="qcurve" smooth="yes"/>
      <point x="489" y="1290"/>
      <point x="395" y="1251" type="qcurve"/>
    </contour>
    <contour>
      <point x="183" y="1186"/>
      <point x="124" y="1127"/>
      <point x="124" y="1038"/>
      <point x="183" y="977"/>
      <point x="272" y="977"/>
      <point x="333" y="1038"/>
      <point x="333" y="1127"/>
      <point x="272" y="1186"/>
      <point x="227" y="1186" type="qcurve" smooth="yes"/>
    </contour>
    <contour>
      <point x="528" y="974"/>
      <point x="407" y="903"/>
      <point x="336" y="782"/>
      <point x="336" y="638"/>
      <point x="407" y="517"/>
      <point x="528" y="446"/>
      <point x="672" y="446"/>
      <point x="793" y="517"/>
      <point x="864" y="638"/>
      <point x="864" y="782"/>
      <point x="793" y="903"/>
      <point x="672" y="974"/>
      <point x="600" y="974" type="qcurve" smooth="yes"/>
    </contour>
  </outline>
</glyph>
<glyph name="account-switch" format="2">
  <advance width="1200"/>
  <unicode hex="F0019"/>
  <note>
account-switch
</note>
  <outline>
    <contour>
      <point x="782" y="884"/>
      <point x="731" y="876" type="qcurve"/>
      <point x="752" y="854"/>
      <point x="766" y="838" type="qcurve" smooth="yes"/>
      <point x="796" y="800"/>
      <point x="812" y="751" type="qcurve" smooth="yes"/>
      <point x="826" y="715"/>
      <point x="829" y="680" type="qcurve" smooth="yes"/>
      <point x="831" y="653" type="line"/>
      <point x="831" y="536" type="line"/>
      <point x="1180" y="536" type="line"/>
      <point x="1180" y="653" type="line"/>
      <point x="1177" y="677" type="line" smooth="yes"/>
      <point x="1172" y="705"/>
      <point x="1158" y="735" type="qcurve" smooth="yes"/>
      <point x="1139" y="773"/>
      <point x="1106" y="803" type="qcurve" smooth="yes"/>
      <point x="1063" y="841"/>
      <point x="1003" y="860" type="qcurve" smooth="yes"/>
      <point x="929" y="884"/>
      <point x="831" y="884" type="qcurve" smooth="yes"/>
    </contour>
    <contour>
      <point x="20" y="536" type="line"/>
      <point x="717" y="536" type="line"/>
      <point x="717" y="653" type="line"/>
      <point x="714" y="677" type="line" smooth="yes"/>
      <point x="709" y="705"/>
      <point x="693" y="735" type="qcurve" smooth="yes"/>
      <point x="674" y="773"/>
      <point x="641" y="803" type="qcurve" smooth="yes"/>
      <point x="600" y="841"/>
      <point x="537" y="860" type="qcurve" smooth="yes"/>
      <point x="467" y="884"/>
      <point x="271" y="884"/>
      <point x="197" y="860" type="qcurve" smooth="yes"/>
      <point x="137" y="841"/>
      <point x="94" y="803" type="qcurve" smooth="yes"/>
      <point x="61" y="773"/>
      <point x="42" y="735" type="qcurve" smooth="yes"/>
      <point x="28" y="705"/>
      <point x="23" y="677" type="qcurve" smooth="yes"/>
      <point x="20" y="664"/>
      <point x="20" y="653" type="qcurve" smooth="yes"/>
    </contour>
    <contour>
      <point x="251" y="244" type="line"/>
      <point x="426" y="70" type="line"/>
      <point x="426" y="187" type="line"/>
      <point x="774" y="187" type="line"/>
      <point x="774" y="70" type="line"/>
      <point x="949" y="244" type="line"/>
      <point x="774" y="419" type="line"/>
      <point x="774" y="304" type="line"/>
      <point x="426" y="304" type="line"/>
      <point x="426" y="419" type="line"/>
    </contour>
    <contour>
      <point x="439" y="1350"/>
      <point x="369" y="1350" type="qcurve" smooth="yes"/>
      <point x="295" y="1350"/>
      <point x="194" y="1246"/>
      <point x="194" y="1102"/>
      <point x="295" y="1001"/>
      <point x="439" y="1001"/>
      <point x="543" y="1102"/>
      <point x="543" y="1246"/>
    </contour>
    <contour>
      <point x="905" y="1350"/>
      <point x="831" y="1350" type="qcurve" smooth="yes"/>
      <point x="761" y="1350"/>
      <point x="657" y="1246"/>
      <point x="657" y="1102"/>
      <point x="761" y="1001"/>
      <point x="905" y="1001"/>
      <point x="1006" y="1102"/>
      <point x="1006" y="1246"/>
    </contour>
  </outline>
</glyph>
<glyph name="air-conditioner" format="2">
  <advance width="1200"/>
  <unicode hex="F001B"/>
  <note>
air-conditioner
</note>
  <outline>
    <contour>
      <point x="198" y="1316"/>
      <point x="187" y="1247" type="qcurve" smooth="yes"/>
      <point x="179" y="1189"/>
      <point x="270" y="1114"/>
      <point x="400" y="1139"/>
      <point x="473" y="1081" type="qcurve"/>
      <point x="453" y="1045"/>
      <point x="453" y="1006" type="qcurve"/>
      <point x="351" y="989"/>
      <point x="207" y="889"/>
      <point x="173" y="751"/>
      <point x="226" y="684" type="qcurve" smooth="yes"/>
      <point x="287" y="601"/>
      <point x="356" y="593" type="qcurve" smooth="yes"/>
      <point x="414" y="585"/>
      <point x="489" y="676"/>
      <point x="464" y="806"/>
      <point x="525" y="878" type="qcurve"/>
      <point x="561" y="856"/>
      <point x="597" y="856" type="qcurve"/>
      <point x="614" y="756"/>
      <point x="716" y="612"/>
      <point x="852" y="579"/>
      <point x="919" y="629" type="qcurve" smooth="yes"/>
      <point x="1002" y="693"/>
      <point x="1013" y="762" type="qcurve" smooth="yes"/>
      <point x="1021" y="820"/>
      <point x="930" y="895"/>
      <point x="800" y="870"/>
      <point x="727" y="931" type="qcurve"/>
      <point x="747" y="964"/>
      <point x="747" y="1003" type="qcurve"/>
      <point x="849" y="1020"/>
      <point x="993" y="1122"/>
      <point x="1027" y="1258"/>
      <point x="974" y="1325" type="qcurve" smooth="yes"/>
      <point x="913" y="1408"/>
      <point x="844" y="1419" type="qcurve" smooth="yes"/>
      <point x="786" y="1427"/>
      <point x="711" y="1336"/>
      <point x="736" y="1203"/>
      <point x="675" y="1133" type="qcurve"/>
      <point x="642" y="1153"/>
      <point x="603" y="1153" type="qcurve"/>
      <point x="586" y="1255"/>
      <point x="484" y="1397"/>
      <point x="348" y="1433"/>
      <point x="281" y="1380" type="qcurve" smooth="yes"/>
    </contour>
    <contour>
      <point x="137" y="474"/>
      <point x="68" y="405"/>
      <point x="68" y="355" type="qcurve" smooth="yes"/>
      <point x="68" y="0" type="line"/>
      <point x="187" y="0" type="line"/>
      <point x="187" y="119" type="line"/>
      <point x="304" y="119" type="line"/>
      <point x="304" y="0" type="line"/>
      <point x="423" y="0" type="line"/>
      <point x="423" y="355" type="line" smooth="yes"/>
      <point x="423" y="405"/>
      <point x="353" y="474"/>
      <point x="304" y="474" type="qcurve" smooth="yes"/>
      <point x="187" y="474" type="line" smooth="yes"/>
    </contour>
    <contour>
      <point x="304" y="355" type="line"/>
      <point x="304" y="236" type="line"/>
      <point x="187" y="236" type="line"/>
      <point x="187" y="355" type="line"/>
    </contour>
    <contour>
      <point x="481" y="0" type="line"/>
      <point x="603" y="0" type="line"/>
      <point x="777" y="474" type="line"/>
      <point x="655" y="474" type="line"/>
    </contour>
    <contour>
      <point x="905" y="474"/>
      <point x="836" y="405"/>
      <point x="836" y="355" type="qcurve" smooth="yes"/>
      <point x="836" y="119" type="line" smooth="yes"/>
      <point x="836" y="69"/>
      <point x="905" y="0"/>
      <point x="955" y="0" type="qcurve" smooth="yes"/>
      <point x="1132" y="0" type="line"/>
      <point x="1132" y="119" type="line"/>
      <point x="955" y="119" type="line"/>
      <point x="955" y="355" type="line"/>
      <point x="1132" y="355" type="line"/>
      <point x="1132" y="474" type="line"/>
      <point x="955" y="474" type="line" smooth="yes"/>
    </contour>
  </outline>
</glyph>
<glyph name="airballoon" format="2">
  <advance width="1200"/>
  <unicode hex="F001C"/>
  <note>
airballoon
</note>
  <outline>
    <contour>
      <point x="663" y="0" type="line" smooth="yes"/>
      <point x="718" y="0"/>
      <point x="793" y="76"/>
      <point x="793" y="130" type="qcurve" smooth="yes"/>
      <point x="793" y="260" type="line"/>
      <point x="407" y="260" type="line"/>
      <point x="407" y="130" type="line" smooth="yes"/>
      <point x="407" y="76"/>
      <point x="482" y="0"/>
      <point x="537" y="0" type="qcurve" smooth="yes"/>
    </contour>
    <contour>
      <point x="534" y="1420"/>
      <point x="467" y="1402" type="qcurve"/>
      <point x="410" y="1326"/>
      <point x="343" y="1060"/>
      <point x="343" y="903" type="qcurve" smooth="yes"/>
      <point x="343" y="801"/>
      <point x="358" y="686" type="qcurve" smooth="yes"/>
      <point x="373" y="592"/>
      <point x="407" y="453" type="qcurve"/>
      <point x="407" y="399"/>
      <point x="482" y="323"/>
      <point x="537" y="323" type="qcurve" smooth="yes"/>
      <point x="663" y="323" type="line" smooth="yes"/>
      <point x="718" y="323"/>
      <point x="793" y="399"/>
      <point x="793" y="453" type="qcurve"/>
      <point x="827" y="592"/>
      <point x="842" y="686" type="qcurve" smooth="yes"/>
      <point x="857" y="801"/>
      <point x="857" y="903" type="qcurve" smooth="yes"/>
      <point x="857" y="1060"/>
      <point x="790" y="1326"/>
      <point x="733" y="1402" type="qcurve"/>
      <point x="666" y="1420"/>
      <point x="600" y="1420" type="qcurve" smooth="yes"/>
    </contour>
    <contour>
      <point x="1117" y="1112"/>
      <point x="1035" y="1215" type="qcurve" smooth="yes"/>
      <point x="966" y="1299"/>
      <point x="824" y="1369" type="qcurve"/>
      <point x="869" y="1278"/>
      <point x="923" y="1039"/>
      <point x="923" y="903" type="qcurve" smooth="yes"/>
      <point x="923" y="761"/>
      <point x="896" y="613" type="qcurve" smooth="yes"/>
      <point x="869" y="459"/>
      <point x="824" y="375" type="qcurve"/>
      <point x="905" y="414"/>
      <point x="975" y="520" type="qcurve" smooth="yes"/>
      <point x="1041" y="616"/>
      <point x="1117" y="864"/>
      <point x="1117" y="967" type="qcurve" smooth="yes"/>
    </contour>
    <contour>
      <point x="83" y="864"/>
      <point x="159" y="616"/>
      <point x="225" y="520" type="qcurve" smooth="yes"/>
      <point x="295" y="414"/>
      <point x="376" y="375" type="qcurve"/>
      <point x="331" y="459"/>
      <point x="304" y="613" type="qcurve" smooth="yes"/>
      <point x="277" y="761"/>
      <point x="277" y="903" type="qcurve" smooth="yes"/>
      <point x="277" y="1039"/>
      <point x="331" y="1278"/>
      <point x="376" y="1369" type="qcurve"/>
      <point x="234" y="1299"/>
      <point x="165" y="1215" type="qcurve" smooth="yes"/>
      <point x="83" y="1112"/>
      <point x="83" y="967" type="qcurve" smooth="yes"/>
    </contour>
  </outline>
</glyph>
<glyph name="airplane" format="2">
  <advance width="1200"/>
  <unicode hex="F001D"/>
  <note>
airplane
</note>
  <outline>
    <contour>
      <point x="1123" y="1290"/>
      <point x="1033" y="1290"/>
      <point x="1005" y="1261" type="qcurve" smooth="yes"/>
      <point x="740" y="997" type="line"/>
      <point x="116" y="1140" type="line"/>
      <point x="20" y="1045" type="line"/>
      <point x="527" y="777" type="line"/>
      <point x="262" y="516" type="line"/>
      <point x="93" y="541" type="line"/>
      <point x="20" y="468" type="line"/>
      <point x="237" y="347" type="line"/>
      <point x="358" y="130" type="line"/>
      <point x="428" y="203" type="line"/>
      <point x="406" y="369" type="line"/>
      <point x="670" y="637" type="line"/>
      <point x="935" y="130" type="line"/>
      <point x="1030" y="226" type="line"/>
      <point x="887" y="850" type="line"/>
      <point x="1151" y="1115" type="line" smooth="yes"/>
      <point x="1180" y="1147"/>
      <point x="1180" y="1229"/>
      <point x="1151" y="1261" type="qcurve" smooth="yes"/>
    </contour>
  </outline>
</glyph>
<glyph name="airplane-off" format="2">
  <advance width="1200"/>
  <unicode hex="F001E"/>
  <note>
airplane-off
</note>
  <outline>
    <contour>
      <point x="1180" y="200" type="line"/>
      <point x="90" y="1290" type="line"/>
      <point x="20" y="1220" type="line"/>
      <point x="209" y="1028" type="line"/>
      <point x="175" y="995" type="line"/>
      <point x="323" y="917" type="line"/>
      <point x="522" y="715" type="line"/>
      <point x="372" y="565" type="line"/>
      <point x="235" y="586" type="line"/>
      <point x="175" y="526" type="line"/>
      <point x="351" y="428" type="line"/>
      <point x="450" y="252" type="line"/>
      <point x="507" y="311" type="line"/>
      <point x="489" y="446" type="line"/>
      <point x="639" y="599" type="line"/>
      <point x="841" y="397" type="line"/>
      <point x="918" y="252" type="line"/>
      <point x="952" y="285" type="line"/>
      <point x="1110" y="130" type="line"/>
    </contour>
    <contour>
      <point x="937" y="583" type="line"/>
      <point x="880" y="837" type="line"/>
      <point x="1095" y="1052" type="line" smooth="yes"/>
      <point x="1118" y="1078"/>
      <point x="1118" y="1145"/>
      <point x="1069" y="1194"/>
      <point x="999" y="1194"/>
      <point x="975" y="1171" type="qcurve" smooth="yes"/>
      <point x="761" y="956" type="line"/>
      <point x="507" y="1013" type="line"/>
    </contour>
  </outline>
</glyph>
<glyph name="cast-variant" format="2">
  <advance width="1200"/>
  <unicode hex="F001F"/>
  <note>
cast-variant
</note>
  <outline>
    <contour>
      <point x="600" y="526" type="line"/>
      <point x="284" y="210" type="line"/>
      <point x="916" y="210" type="line"/>
    </contour>
    <contour>
      <point x="1118" y="1210"/>
      <point x="1074" y="1210" type="qcurve" smooth="yes"/>
      <point x="126" y="1210" type="line" smooth="yes"/>
      <point x="82" y="1210"/>
      <point x="20" y="1148"/>
      <point x="20" y="1104" type="qcurve" smooth="yes"/>
      <point x="20" y="472" type="line" smooth="yes"/>
      <point x="20" y="430"/>
      <point x="82" y="368"/>
      <point x="126" y="368" type="qcurve" smooth="yes"/>
      <point x="336" y="368" type="line"/>
      <point x="336" y="472" type="line"/>
      <point x="126" y="472" type="line"/>
      <point x="126" y="1104" type="line"/>
      <point x="1074" y="1104" type="line"/>
      <point x="1074" y="472" type="line"/>
      <point x="864" y="472" type="line"/>
      <point x="864" y="368" type="line"/>
      <point x="1074" y="368" type="line" smooth="yes"/>
      <point x="1118" y="368"/>
      <point x="1180" y="430"/>
      <point x="1180" y="472" type="qcurve" smooth="yes"/>
      <point x="1180" y="1104" type="line" smooth="yes"/>
      <point x="1180" y="1148"/>
    </contour>
  </outline>
</glyph>
<glyph name="alarm" format="2">
  <advance width="1200"/>
  <unicode hex="F0020"/>
  <note>
alarm
</note>
  <outline>
    <contour>
      <point x="712" y="240"/>
      <point x="600" y="240" type="qcurve" smooth="yes"/>
      <point x="488" y="240"/>
      <point x="303" y="352"/>
      <point x="194" y="537"/>
      <point x="194" y="758"/>
      <point x="303" y="946"/>
      <point x="488" y="1054"/>
      <point x="712" y="1054"/>
      <point x="897" y="946"/>
      <point x="1006" y="758"/>
      <point x="1006" y="537"/>
      <point x="897" y="352"/>
    </contour>
    <contour>
      <point x="742" y="1172"/>
      <point x="600" y="1172" type="qcurve" smooth="yes"/>
      <point x="458" y="1172"/>
      <point x="219" y="1030"/>
      <point x="77" y="790"/>
      <point x="77" y="507"/>
      <point x="219" y="265"/>
      <point x="458" y="126"/>
      <point x="742" y="126"/>
      <point x="981" y="265"/>
      <point x="1123" y="507"/>
      <point x="1123" y="790"/>
      <point x="981" y="1030"/>
    </contour>
    <contour>
      <point x="630" y="632" type="line"/>
      <point x="630" y="937" type="line"/>
      <point x="543" y="937" type="line"/>
      <point x="543" y="589" type="line"/>
      <point x="818" y="425" type="line"/>
      <point x="861" y="496" type="line"/>
    </contour>
    <contour>
      <point x="94" y="984" type="line"/>
      <point x="360" y="1207" type="line"/>
      <point x="287" y="1294" type="line"/>
      <point x="20" y="1071" type="line"/>
    </contour>
    <contour>
      <point x="1106" y="981" type="line"/>
      <point x="1180" y="1071" type="line"/>
      <point x="913" y="1294" type="line"/>
      <point x="840" y="1207" type="line"/>
    </contour>
  </outline>
</glyph>
<glyph name="alarm-multiple" format="2">
  <advance width="1200"/>
  <unicode hex="F0022"/>
  <note>
alarm-multiple
</note>
  <outline>
    <contour>
      <point x="416" y="1265" type="line"/>
      <point x="186" y="1074" type="line"/>
      <point x="250" y="999" type="line"/>
      <point x="478" y="1190" type="line"/>
    </contour>
    <contour>
      <point x="952" y="1265" type="line"/>
      <point x="887" y="1190" type="line"/>
      <point x="1118" y="996" type="line"/>
      <point x="1180" y="1074" type="line"/>
    </contour>
    <contour>
      <point x="564" y="1149"/>
      <point x="362" y="1030"/>
      <point x="243" y="825"/>
      <point x="243" y="587"/>
      <point x="362" y="382"/>
      <point x="564" y="263"/>
      <point x="805" y="263"/>
      <point x="1007" y="382"/>
      <point x="1126" y="587"/>
      <point x="1126" y="825"/>
      <point x="1007" y="1030"/>
      <point x="805" y="1149"/>
      <point x="683" y="1149" type="qcurve" smooth="yes"/>
    </contour>
    <contour>
      <point x="773" y="1038"/>
      <point x="926" y="950"/>
      <point x="1014" y="797"/>
      <point x="1014" y="615"/>
      <point x="926" y="463"/>
      <point x="773" y="375"/>
      <point x="683" y="375" type="qcurve" smooth="yes"/>
      <point x="618" y="375"/>
      <point x="496" y="424"/>
      <point x="403" y="517"/>
      <point x="351" y="641"/>
      <point x="351" y="771"/>
      <point x="403" y="895"/>
      <point x="496" y="988"/>
      <point x="618" y="1038"/>
      <point x="683" y="1038" type="qcurve" smooth="yes"/>
    </contour>
    <contour>
      <point x="628" y="652" type="line"/>
      <point x="854" y="548" type="line"/>
      <point x="890" y="623" type="line"/>
      <point x="711" y="704" type="line"/>
      <point x="711" y="955" type="line"/>
      <point x="628" y="955" type="line"/>
    </contour>
    <contour>
      <point x="20" y="476"/>
      <point x="139" y="274"/>
      <point x="344" y="155"/>
      <point x="463" y="155" type="qcurve" smooth="yes"/>
      <point x="515" y="155"/>
      <point x="566" y="165" type="qcurve"/>
      <point x="419" y="199"/>
      <point x="305" y="305" type="qcurve"/>
      <point x="227" y="346"/>
      <point x="131" y="502"/>
      <point x="131" y="595" type="qcurve" smooth="yes"/>
      <point x="134" y="644" type="line"/>
      <point x="131" y="706" type="line" smooth="yes"/>
      <point x="131" y="825"/>
      <point x="181" y="937" type="qcurve"/>
      <point x="105" y="874"/>
      <point x="20" y="698"/>
      <point x="20" y="595" type="qcurve" smooth="yes"/>
    </contour>
  </outline>
</glyph>
<glyph name="alarm-off" format="2">
  <advance width="1200"/>
  <unicode hex="F0023"/>
  <note>
alarm-off
</note>
  <outline>
    <contour>
      <point x="335" y="1163" type="line"/>
      <point x="384" y="1203" type="line"/>
      <point x="303" y="1283" type="line"/>
      <point x="253" y="1243" type="line"/>
    </contour>
    <contour>
      <point x="303" y="904" type="qcurve"/>
      <point x="865" y="342" type="line"/>
      <point x="755" y="249"/>
      <point x="611" y="249" type="qcurve" smooth="yes"/>
      <point x="501" y="249"/>
      <point x="319" y="359"/>
      <point x="212" y="540"/>
      <point x="212" y="650" type="qcurve" smooth="yes"/>
      <point x="212" y="792"/>
    </contour>
    <contour>
      <point x="1145" y="209" type="line"/>
      <point x="92" y="1259" type="line"/>
      <point x="20" y="1187" type="line"/>
      <point x="98" y="1110" type="line"/>
      <point x="33" y="1059" type="line"/>
      <point x="114" y="976" type="line"/>
      <point x="178" y="1029" type="line"/>
      <point x="223" y="984" type="line"/>
      <point x="164" y="917"/>
      <point x="98" y="743"/>
      <point x="98" y="650" type="qcurve" smooth="yes"/>
      <point x="98" y="511"/>
      <point x="236" y="273"/>
      <point x="472" y="137"/>
      <point x="611" y="137" type="qcurve" smooth="yes"/>
      <point x="704" y="137"/>
      <point x="878" y="201"/>
      <point x="947" y="262" type="qcurve"/>
      <point x="1073" y="137" type="line"/>
    </contour>
    <contour>
      <point x="1108" y="976" type="line"/>
      <point x="1180" y="1064" type="line"/>
      <point x="918" y="1283" type="line"/>
      <point x="846" y="1198" type="line"/>
    </contour>
    <contour>
      <point x="541" y="1048"/>
      <point x="611" y="1048" type="qcurve" smooth="yes"/>
      <point x="720" y="1048"/>
      <point x="902" y="941"/>
      <point x="1009" y="757"/>
      <point x="1009" y="650" type="qcurve" smooth="yes"/>
      <point x="1009" y="580"/>
      <point x="985" y="511" type="qcurve"/>
      <point x="1073" y="425" type="line"/>
      <point x="1124" y="532"/>
      <point x="1124" y="650" type="qcurve" smooth="yes"/>
      <point x="1124" y="789"/>
      <point x="985" y="1024"/>
      <point x="750" y="1163"/>
      <point x="611" y="1163" type="qcurve" smooth="yes"/>
      <point x="493" y="1163"/>
      <point x="386" y="1110" type="qcurve"/>
      <point x="474" y="1024" type="line"/>
    </contour>
  </outline>
</glyph>
<glyph name="album" format="2">
  <advance width="1200"/>
  <unicode hex="F0025"/>
  <note>
album
</note>
  <outline>
    <contour>
      <point x="625" y="767"/>
      <point x="600" y="767" type="qcurve" smooth="yes"/>
      <point x="575" y="767"/>
      <point x="543" y="735"/>
      <point x="543" y="685"/>
      <point x="575" y="653"/>
      <point x="625" y="653"/>
      <point x="657" y="685"/>
      <point x="657" y="735"/>
    </contour>
    <contour>
      <point x="709" y="449"/>
      <point x="600" y="449" type="qcurve" smooth="yes"/>
      <point x="491" y="449"/>
      <point x="339" y="601"/>
      <point x="339" y="819"/>
      <point x="491" y="971"/>
      <point x="709" y="971"/>
      <point x="861" y="819"/>
      <point x="861" y="601"/>
    </contour>
    <contour>
      <point x="714" y="1290"/>
      <point x="600" y="1290" type="qcurve" smooth="yes"/>
      <point x="486" y="1290"/>
      <point x="271" y="1203"/>
      <point x="107" y="1039"/>
      <point x="20" y="824"/>
      <point x="20" y="596"/>
      <point x="107" y="381"/>
      <point x="271" y="217"/>
      <point x="486" y="130"/>
      <point x="714" y="130"/>
      <point x="929" y="217"/>
      <point x="1093" y="381"/>
      <point x="1180" y="596"/>
      <point x="1180" y="824"/>
      <point x="1093" y="1039"/>
      <point x="929" y="1203"/>
    </contour>
  </outline>
</glyph>
<glyph name="alert" format="2">
  <advance width="1200"/>
  <unicode hex="F0026"/>
  <note>
alert
</note>
  <outline>
    <contour>
      <point x="652" y="842" type="line"/>
      <point x="652" y="578" type="line"/>
      <point x="548" y="578" type="line"/>
      <point x="548" y="842" type="line"/>
    </contour>
    <contour>
      <point x="652" y="474" type="line"/>
      <point x="652" y="368" type="line"/>
      <point x="548" y="368" type="line"/>
      <point x="548" y="474" type="line"/>
    </contour>
    <contour>
      <point x="600" y="1210" type="line"/>
      <point x="20" y="210" type="line"/>
      <point x="1180" y="210" type="line"/>
    </contour>
  </outline>
</glyph>
<glyph name="alert-octagon" format="2">
  <advance width="1200"/>
  <unicode hex="F0029"/>
  <note>
alert-octagon
</note>
  <outline>
    <contour>
      <point x="663" y="1033" type="line"/>
      <point x="663" y="647" type="line"/>
      <point x="537" y="647" type="line"/>
      <point x="537" y="1033" type="line"/>
    </contour>
    <contour>
      <point x="537" y="387" type="line"/>
      <point x="537" y="517" type="line"/>
      <point x="663" y="517" type="line"/>
      <point x="663" y="387" type="line"/>
    </contour>
    <contour>
      <point x="1180" y="952" type="line"/>
      <point x="842" y="1290" type="line"/>
      <point x="358" y="1290" type="line"/>
      <point x="20" y="952" type="line"/>
      <point x="20" y="468" type="line"/>
      <point x="358" y="130" type="line"/>
      <point x="842" y="130" type="line"/>
      <point x="1180" y="468" type="line"/>
    </contour>
  </outline>
</glyph>
<glyph name="alert-outline" format="2">
  <advance width="1200"/>
  <unicode hex="F002A"/>
  <note>
alert-outline
</note>
  <outline>
    <contour>
      <point x="1180" y="210" type="line"/>
      <point x="600" y="1210" type="line"/>
      <point x="20" y="210" type="line"/>
    </contour>
    <contour>
      <point x="203" y="316" type="line"/>
      <point x="600" y="1000" type="line"/>
      <point x="997" y="316" type="line"/>
    </contour>
    <contour>
      <point x="652" y="790" type="line"/>
      <point x="548" y="790" type="line"/>
      <point x="548" y="578" type="line"/>
      <point x="652" y="578" type="line"/>
    </contour>
    <contour>
      <point x="652" y="474" type="line"/>
      <point x="548" y="474" type="line"/>
      <point x="548" y="368" type="line"/>
      <point x="652" y="368" type="line"/>
    </contour>
  </outline>
</glyph>
<glyph name="alpha" format="2">
  <advance width="1200"/>
  <unicode hex="F002B"/>
  <note>
alpha
</note>
  <outline>
    <contour>
      <point x="1180" y="416" type="line"/>
      <point x="1153" y="402"/>
      <point x="1122" y="402" type="qcurve" smooth="yes"/>
      <point x="1064" y="402"/>
      <point x="988" y="532"/>
      <point x="957" y="710" type="qcurve"/>
      <point x="1158" y="1219" type="line"/>
      <point x="917" y="1219" type="line"/>
      <point x="845" y="987" type="line"/>
      <point x="845" y="987" type="line"/>
      <point x="796" y="1107"/>
      <point x="613" y="1236"/>
      <point x="493" y="1236" type="qcurve" smooth="yes"/>
      <point x="274" y="1236"/>
      <point x="20" y="924"/>
      <point x="20" y="679" type="qcurve" smooth="yes"/>
      <point x="20" y="465"/>
      <point x="248" y="184"/>
      <point x="435" y="184" type="qcurve" smooth="yes"/>
      <point x="685" y="184"/>
      <point x="828" y="456" type="qcurve"/>
      <point x="832" y="456" type="line"/>
      <point x="890" y="201"/>
      <point x="1060" y="201" type="qcurve" smooth="yes"/>
      <point x="1113" y="201"/>
      <point x="1180" y="219" type="qcurve"/>
    </contour>
    <contour>
      <point x="761" y="683" type="line" smooth="yes"/>
      <point x="716" y="523"/>
      <point x="573" y="362"/>
      <point x="488" y="362" type="qcurve" smooth="yes"/>
      <point x="386" y="362"/>
      <point x="265" y="549"/>
      <point x="265" y="692" type="qcurve" smooth="yes"/>
      <point x="265" y="848"/>
      <point x="404" y="1054"/>
      <point x="524" y="1054" type="qcurve" smooth="yes"/>
      <point x="613" y="1054"/>
      <point x="743" y="880"/>
      <point x="774" y="719" type="qcurve"/>
    </contour>
  </outline>
</glyph>
<glyph name="alphabetical" format="2">
  <advance width="1200"/>
  <unicode hex="F002C"/>
  <note>
alphabetical
</note>
  <outline>
    <contour>
      <point x="134" y="767" type="line" smooth="yes"/>
      <point x="88" y="767"/>
      <point x="20" y="699"/>
      <point x="20" y="653" type="qcurve" smooth="yes"/>
      <point x="20" y="536" type="line" smooth="yes"/>
      <point x="20" y="487"/>
      <point x="88" y="419"/>
      <point x="134" y="419" type="qcurve" smooth="yes"/>
      <point x="369" y="419" type="line"/>
      <point x="369" y="653" type="line" smooth="yes"/>
      <point x="369" y="699"/>
      <point x="300" y="767"/>
      <point x="251" y="767" type="qcurve" smooth="yes"/>
    </contour>
    <contour>
      <point x="251" y="653" type="line"/>
      <point x="251" y="536" type="line"/>
      <point x="134" y="536" type="line"/>
      <point x="134" y="653" type="line"/>
    </contour>
    <contour>
      <point x="1180" y="653" type="line"/>
      <point x="1180" y="767" type="line"/>
      <point x="1066" y="767" type="line" smooth="yes"/>
      <point x="1017" y="767"/>
      <point x="949" y="699"/>
      <point x="949" y="653" type="qcurve" smooth="yes"/>
      <point x="949" y="536" type="line" smooth="yes"/>
      <point x="949" y="487"/>
      <point x="1017" y="419"/>
      <point x="1066" y="419" type="qcurve" smooth="yes"/>
      <point x="1180" y="419" type="line"/>
      <point x="1180" y="536" type="line"/>
      <point x="1066" y="536" type="line"/>
      <point x="1066" y="653" type="line"/>
    </contour>
    <contour>
      <point x="483" y="1001" type="line"/>
      <point x="483" y="536" type="line" smooth="yes"/>
      <point x="483" y="487"/>
      <point x="551" y="419"/>
      <point x="600" y="419" type="qcurve" smooth="yes"/>
      <point x="717" y="419" type="line" smooth="yes"/>
      <point x="763" y="419"/>
      <point x="831" y="487"/>
      <point x="831" y="536" type="qcurve" smooth="yes"/>
      <point x="831" y="653" type="line" smooth="yes"/>
      <point x="831" y="699"/>
      <point x="763" y="767"/>
      <point x="717" y="767" type="qcurve" smooth="yes"/>
      <point x="600" y="767" type="line"/>
      <point x="600" y="1001" type="line"/>
    </contour>
    <contour>
      <point x="600" y="653" type="line"/>
      <point x="717" y="653" type="line"/>
      <point x="717" y="536" type="line"/>
      <point x="600" y="536" type="line"/>
    </contour>
  </outline>
</glyph>
<glyph name="greenhouse" format="2">
  <advance width="1200"/>
  <unicode hex="F002D"/>
  <note>
greenhouse
</note>
  <outline>
    <contour>
      <point x="1180" y="927" type="line"/>
      <point x="600" y="1361" type="line"/>
      <point x="20" y="927" type="line"/>
      <point x="20" y="59" type="line"/>
      <point x="1180" y="59" type="line"/>
    </contour>
    <contour>
      <point x="454" y="205" type="line"/>
      <point x="454" y="856" type="line"/>
      <point x="746" y="856" type="line"/>
      <point x="746" y="205" type="line"/>
    </contour>
    <contour>
      <point x="888" y="639" type="line"/>
      <point x="888" y="856" type="line"/>
      <point x="1034" y="856" type="line"/>
      <point x="1034" y="639" type="line"/>
    </contour>
    <contour>
      <point x="600" y="1181" type="line"/>
      <point x="841" y="998" type="line"/>
      <point x="359" y="998" type="line"/>
    </contour>
    <contour>
      <point x="166" y="856" type="line"/>
      <point x="312" y="856" type="line"/>
      <point x="312" y="639" type="line"/>
      <point x="166" y="639" type="line"/>
    </contour>
    <contour>
      <point x="166" y="205" type="line"/>
      <point x="166" y="493" type="line"/>
      <point x="312" y="493" type="line"/>
      <point x="312" y="205" type="line"/>
    </contour>
    <contour>
      <point x="1034" y="205" type="line"/>
      <point x="888" y="205" type="line"/>
      <point x="888" y="493" type="line"/>
      <point x="1034" y="493" type="line"/>
    </contour>
  </outline>
</glyph>
<glyph name="rollerblade-off" format="2">
  <advance width="1200"/>
  <unicode hex="F002E"/>
  <note>
rollerblade-off
</note>
  <outline>
    <contour>
      <point x="1180" y="208" type="line"/>
      <point x="90" y="1298" type="line"/>
      <point x="20" y="1228" type="line"/>
      <point x="124" y="1122" type="line"/>
      <point x="124" y="454" type="line"/>
      <point x="792" y="454" type="line"/>
      <point x="885" y="360" type="line"/>
      <point x="841" y="319"/>
      <point x="841" y="205"/>
      <point x="924" y="122"/>
      <point x="1038" y="122"/>
      <point x="1079" y="166" type="qcurve"/>
      <point x="1110" y="138" type="line"/>
    </contour>
    <contour>
      <point x="1053" y="650"/>
      <point x="1035" y="679" type="qcurve"/>
      <point x="1007" y="741"/>
      <point x="926" y="780" type="qcurve" smooth="yes"/>
      <point x="877" y="801"/>
      <point x="776" y="827" type="qcurve" smooth="yes"/>
      <point x="727" y="839" type="line"/>
      <point x="691" y="839"/>
      <point x="654" y="873" type="qcurve" smooth="yes"/>
      <point x="1063" y="467" type="line"/>
      <point x="1063" y="485" type="line" smooth="yes"/>
      <point x="1063" y="560"/>
      <point x="1058" y="593" type="qcurve" smooth="yes"/>
    </contour>
    <contour>
      <point x="592" y="1062" type="line"/>
      <point x="465" y="1062" type="line"/>
      <point x="522" y="1008" type="line"/>
      <point x="592" y="1008" type="line"/>
    </contour>
    <contour>
      <point x="577" y="951" type="line"/>
      <point x="652" y="876" type="line" smooth="yes"/>
      <point x="618" y="909"/>
      <point x="610" y="951" type="qcurve"/>
    </contour>
    <contour>
      <point x="649" y="399"/>
      <point x="592" y="399" type="qcurve" smooth="yes"/>
      <point x="535" y="399"/>
      <point x="455" y="319"/>
      <point x="455" y="205"/>
      <point x="535" y="122"/>
      <point x="649" y="122"/>
      <point x="732" y="205"/>
      <point x="732" y="319"/>
    </contour>
    <contour>
      <point x="437" y="1117"/>
      <point x="455" y="1117" type="qcurve" smooth="yes"/>
      <point x="592" y="1117" type="line"/>
      <point x="592" y="1282" type="line"/>
      <point x="245" y="1282" type="line"/>
      <point x="427" y="1101" type="line"/>
    </contour>
    <contour>
      <point x="263" y="399"/>
      <point x="206" y="399" type="qcurve" smooth="yes"/>
      <point x="149" y="399"/>
      <point x="69" y="319"/>
      <point x="69" y="205"/>
      <point x="149" y="122"/>
      <point x="263" y="122"/>
      <point x="344" y="205"/>
      <point x="344" y="319"/>
    </contour>
  </outline>
</glyph>
<glyph name="amplifier" format="2">
  <advance width="1200"/>
  <unicode hex="F0030"/>
  <note>
amplifier
</note>
  <outline>
    <contour>
      <point x="443" y="1353"/>
      <point x="407" y="1317"/>
      <point x="407" y="1290" type="qcurve"/>
      <point x="20" y="1290" type="line"/>
      <point x="20" y="130" type="line"/>
      <point x="150" y="130" type="line"/>
      <point x="150" y="103"/>
      <point x="186" y="67"/>
      <point x="241" y="67"/>
      <point x="277" y="103"/>
      <point x="277" y="130" type="qcurve"/>
      <point x="923" y="130" type="line"/>
      <point x="923" y="103"/>
      <point x="959" y="67"/>
      <point x="1014" y="67"/>
      <point x="1050" y="103"/>
      <point x="1050" y="130" type="qcurve"/>
      <point x="1180" y="130" type="line"/>
      <point x="1180" y="1290" type="line"/>
      <point x="793" y="1290" type="line"/>
      <point x="793" y="1317"/>
      <point x="757" y="1353"/>
      <point x="730" y="1353" type="qcurve" smooth="yes"/>
      <point x="470" y="1353" type="line" smooth="yes"/>
    </contour>
    <contour>
      <point x="1050" y="1160" type="line"/>
      <point x="1050" y="903" type="line"/>
      <point x="150" y="903" type="line"/>
      <point x="150" y="1160" type="line"/>
    </contour>
    <contour>
      <point x="250" y="1097"/>
      <point x="213" y="1060"/>
      <point x="213" y="1006"/>
      <point x="250" y="967"/>
      <point x="304" y="967"/>
      <point x="343" y="1006"/>
      <point x="343" y="1060"/>
      <point x="304" y="1097"/>
      <point x="277" y="1097" type="qcurve" smooth="yes"/>
    </contour>
    <contour>
      <point x="600" y="1033" type="line"/>
      <point x="730" y="1033" type="line"/>
      <point x="730" y="1097" type="line"/>
      <point x="600" y="1097" type="line"/>
    </contour>
    <contour>
      <point x="793" y="967" type="line"/>
      <point x="857" y="967" type="line"/>
      <point x="857" y="1097" type="line"/>
      <point x="793" y="1097" type="line"/>
    </contour>
    <contour>
      <point x="923" y="967" type="line"/>
      <point x="987" y="967" type="line"/>
      <point x="987" y="1097" type="line"/>
      <point x="923" y="1097" type="line"/>
    </contour>
    <contour>
      <point x="706" y="773"/>
      <point x="857" y="622"/>
      <point x="857" y="411"/>
      <point x="706" y="260"/>
      <point x="494" y="260"/>
      <point x="343" y="411"/>
      <point x="343" y="622"/>
      <point x="494" y="773"/>
      <point x="600" y="773" type="qcurve" smooth="yes"/>
    </contour>
    <contour>
      <point x="443" y="1097"/>
      <point x="407" y="1060"/>
      <point x="407" y="1006"/>
      <point x="443" y="967"/>
      <point x="497" y="967"/>
      <point x="537" y="1006"/>
      <point x="537" y="1060"/>
      <point x="497" y="1097"/>
      <point x="470" y="1097" type="qcurve" smooth="yes"/>
    </contour>
  </outline>
</glyph>
<glyph name="anchor" format="2">
  <advance width="1200"/>
  <unicode hex="F0031"/>
  <note>
anchor
</note>
  <outline>
    <contour>
      <point x="682" y="1353"/>
      <point x="600" y="1353" type="qcurve" smooth="yes"/>
      <point x="518" y="1353"/>
      <point x="407" y="1242"/>
      <point x="407" y="1160" type="qcurve" smooth="yes"/>
      <point x="407" y="1100"/>
      <point x="476" y="1000"/>
      <point x="537" y="979" type="qcurve"/>
      <point x="537" y="903" type="line"/>
      <point x="343" y="903" type="line"/>
      <point x="343" y="773" type="line"/>
      <point x="537" y="773" type="line"/>
      <point x="537" y="199" type="line"/>
      <point x="458" y="215"/>
      <point x="395" y="242" type="qcurve" smooth="yes"/>
      <point x="322" y="272"/>
      <point x="210" y="363"/>
      <point x="177" y="417" type="qcurve"/>
      <point x="277" y="517" type="line"/>
      <point x="20" y="710" type="line"/>
      <point x="20" y="517" type="line" smooth="yes"/>
      <point x="20" y="423"/>
      <point x="129" y="257"/>
      <point x="298" y="136"/>
      <point x="503" y="67"/>
      <point x="697" y="67"/>
      <point x="902" y="136"/>
      <point x="1074" y="257"/>
      <point x="1180" y="423"/>
      <point x="1180" y="517" type="qcurve" smooth="yes"/>
      <point x="1180" y="710" type="line"/>
      <point x="923" y="517" type="line"/>
      <point x="1023" y="417" type="line"/>
      <point x="990" y="363"/>
      <point x="878" y="272"/>
      <point x="805" y="242" type="qcurve" smooth="yes"/>
      <point x="742" y="215"/>
      <point x="663" y="199" type="qcurve"/>
      <point x="663" y="773" type="line"/>
      <point x="857" y="773" type="line"/>
      <point x="857" y="903" type="line"/>
      <point x="663" y="903" type="line"/>
      <point x="663" y="979" type="line"/>
      <point x="721" y="1000"/>
      <point x="793" y="1100"/>
      <point x="793" y="1160" type="qcurve" smooth="yes"/>
      <point x="793" y="1242"/>
    </contour>
    <contour>
      <point x="573" y="1227"/>
      <point x="600" y="1227" type="qcurve" smooth="yes"/>
      <point x="627" y="1227"/>
      <point x="663" y="1187"/>
      <point x="663" y="1133"/>
      <point x="627" y="1097"/>
      <point x="573" y="1097"/>
      <point x="537" y="1133"/>
      <point x="537" y="1187"/>
    </contour>
  </outline>
</glyph>
<glyph name="android" format="2">
  <advance width="1200"/>
  <unicode hex="F0032"/>
  <note>
android
</note>
  <outline>
    <contour>
      <point x="889" y="549"/>
      <point x="867" y="549" type="qcurve" smooth="yes"/>
      <point x="848" y="549"/>
      <point x="818" y="576"/>
      <point x="818" y="617"/>
      <point x="848" y="644"/>
      <point x="867" y="644" type="qcurve"/>
      <point x="867" y="644" type="line"/>
      <point x="889" y="644"/>
      <point x="916" y="617"/>
      <point x="916" y="576"/>
    </contour>
    <contour>
      <point x="352" y="549"/>
      <point x="333" y="549" type="qcurve" smooth="yes"/>
      <point x="314" y="549"/>
      <point x="284" y="576"/>
      <point x="284" y="617"/>
      <point x="314" y="644"/>
      <point x="333" y="644" type="qcurve"/>
      <point x="333" y="644" type="line"/>
      <point x="352" y="644"/>
      <point x="382" y="617"/>
      <point x="382" y="576"/>
    </contour>
    <contour>
      <point x="886" y="840" type="qcurve"/>
      <point x="886" y="840" type="line"/>
      <point x="981" y="1006" type="line" smooth="yes"/>
      <point x="987" y="1014"/>
      <point x="981" y="1031"/>
      <point x="968" y="1039"/>
      <point x="951" y="1033"/>
      <point x="949" y="1025" type="qcurve"/>
      <point x="851" y="856" type="line"/>
      <point x="731" y="911"/>
      <point x="467" y="911"/>
      <point x="352" y="859" type="qcurve"/>
      <point x="254" y="1028" type="line"/>
      <point x="249" y="1033"/>
      <point x="235" y="1039"/>
      <point x="219" y="1031"/>
      <point x="216" y="1014"/>
      <point x="219" y="1006" type="qcurve"/>
      <point x="314" y="840" type="line"/>
      <point x="189" y="772"/>
      <point x="31" y="530"/>
      <point x="20" y="383" type="qcurve"/>
      <point x="1180" y="383" type="line"/>
      <point x="1169" y="530"/>
      <point x="1011" y="769"/>
    </contour>
  </outline>
</glyph>
<glyph name="web-plus" format="2">
  <advance width="1200"/>
  <unicode hex="F0033"/>
  <note>
web-plus
</note>
  <outline>
    <contour>
      <point x="820" y="700"/>
      <point x="820" y="738" type="qcurve" smooth="yes"/>
      <point x="820" y="785"/>
      <point x="812" y="850" type="qcurve"/>
      <point x="999" y="850" type="line"/>
      <point x="1014" y="790"/>
      <point x="1014" y="738" type="qcurve" smooth="yes"/>
      <point x="1014" y="710"/>
      <point x="1009" y="679" type="qcurve"/>
      <point x="1066" y="671"/>
      <point x="1115" y="643" type="qcurve"/>
      <point x="1123" y="692"/>
      <point x="1123" y="738" type="qcurve" smooth="yes"/>
      <point x="1123" y="889"/>
      <point x="975" y="1142"/>
      <point x="722" y="1290"/>
      <point x="421" y="1290"/>
      <point x="168" y="1142"/>
      <point x="20" y="889"/>
      <point x="20" y="588"/>
      <point x="168" y="335"/>
      <point x="421" y="187"/>
      <point x="572" y="187" type="qcurve" smooth="yes"/>
      <point x="618" y="187"/>
      <point x="667" y="195" type="qcurve"/>
      <point x="626" y="267"/>
      <point x="626" y="353" type="qcurve" smooth="yes"/>
      <point x="626" y="371"/>
      <point x="631" y="399" type="qcurve"/>
      <point x="603" y="342"/>
      <point x="572" y="298" type="qcurve"/>
      <point x="499" y="404"/>
      <point x="465" y="518" type="qcurve"/>
      <point x="673" y="518" type="line"/>
      <point x="722" y="606"/>
      <point x="815" y="650" type="qcurve"/>
    </contour>
    <contour>
      <point x="499" y="1073"/>
      <point x="572" y="1179" type="qcurve"/>
      <point x="644" y="1073"/>
      <point x="678" y="959" type="qcurve"/>
      <point x="465" y="959" type="line"/>
    </contour>
    <contour>
      <point x="331" y="627" type="qcurve"/>
      <point x="144" y="627" type="line"/>
      <point x="129" y="687"/>
      <point x="129" y="790"/>
      <point x="144" y="850" type="qcurve"/>
      <point x="331" y="850" type="line"/>
      <point x="323" y="785"/>
      <point x="323" y="692"/>
    </contour>
    <contour>
      <point x="230" y="448"/>
      <point x="188" y="518" type="qcurve"/>
      <point x="351" y="518" type="line"/>
      <point x="383" y="407"/>
      <point x="429" y="322" type="qcurve"/>
      <point x="351" y="347"/>
    </contour>
    <contour>
      <point x="383" y="1070"/>
      <point x="351" y="959" type="qcurve"/>
      <point x="188" y="959" type="line"/>
      <point x="230" y="1028"/>
      <point x="351" y="1129"/>
      <point x="429" y="1155" type="qcurve"/>
    </contour>
    <contour>
      <point x="709" y="692"/>
      <point x="701" y="627" type="qcurve"/>
      <point x="442" y="627" type="line"/>
      <point x="434" y="687"/>
      <point x="434" y="790"/>
      <point x="442" y="850" type="qcurve"/>
      <point x="701" y="850" type="line"/>
      <point x="709" y="785"/>
    </contour>
    <contour>
      <point x="763" y="1065"/>
      <point x="714" y="1155" type="qcurve"/>
      <point x="792" y="1129"/>
      <point x="913" y="1028"/>
      <point x="955" y="959" type="qcurve"/>
      <point x="792" y="959" type="line"/>
    </contour>
    <contour>
      <point x="1014" y="407" type="line"/>
      <point x="1014" y="573" type="line"/>
      <point x="903" y="573" type="line"/>
      <point x="903" y="407" type="line"/>
      <point x="737" y="407" type="line"/>
      <point x="737" y="296" type="line"/>
      <point x="903" y="296" type="line"/>
      <point x="903" y="130" type="line"/>
      <point x="1014" y="130" type="line"/>
      <point x="1014" y="296" type="line"/>
      <point x="1180" y="296" type="line"/>
      <point x="1180" y="407" type="line"/>
    </contour>
  </outline>
</glyph>
<glyph name="android-studio" format="2">
  <advance width="1200"/>
  <unicode hex="F0034"/>
  <note>
android-studio
</note>
  <outline>
    <contour>
      <point x="533" y="1248" type="line"/>
      <point x="497" y="1248" type="line" smooth="yes"/>
      <point x="456" y="1248"/>
      <point x="395" y="1187"/>
      <point x="395" y="1146" type="qcurve" smooth="yes"/>
      <point x="395" y="905" type="line"/>
      <point x="424" y="877" type="line"/>
      <point x="26" y="188" type="line"/>
      <point x="20" y="37" type="line"/>
      <point x="148" y="120" type="line"/>
      <point x="356" y="482" type="line"/>
      <point x="469" y="428"/>
      <point x="731" y="428"/>
      <point x="844" y="482" type="qcurve"/>
      <point x="1052" y="120" type="line"/>
      <point x="1180" y="37" type="line"/>
      <point x="1174" y="188" type="line"/>
      <point x="959" y="559" type="line"/>
      <point x="1045" y="636"/>
      <point x="1148" y="851"/>
      <point x="1148" y="973" type="qcurve"/>
      <point x="1010" y="973" type="line"/>
      <point x="1010" y="889"/>
      <point x="946" y="739"/>
      <point x="888" y="681" type="qcurve"/>
      <point x="776" y="877" type="line"/>
      <point x="805" y="905" type="line"/>
      <point x="805" y="1146" type="line" smooth="yes"/>
      <point x="805" y="1187"/>
      <point x="744" y="1248"/>
      <point x="703" y="1248" type="qcurve" smooth="yes"/>
      <point x="667" y="1248" type="line"/>
      <point x="667" y="1383" type="line"/>
      <point x="533" y="1383" type="line"/>
    </contour>
    <contour>
      <point x="526" y="774" type="line"/>
      <point x="558" y="745"/>
      <point x="642" y="745"/>
      <point x="674" y="774" type="qcurve"/>
      <point x="776" y="601" type="line"/>
      <point x="693" y="563"/>
      <point x="507" y="563"/>
      <point x="424" y="601" type="qcurve"/>
    </contour>
    <contour>
      <point x="629" y="1111"/>
      <point x="667" y="1072"/>
      <point x="667" y="1014"/>
      <point x="629" y="973"/>
      <point x="571" y="973"/>
      <point x="533" y="1014"/>
      <point x="533" y="1072"/>
      <point x="571" y="1111"/>
      <point x="600" y="1111" type="qcurve" smooth="yes"/>
    </contour>
  </outline>
</glyph>
<glyph name="apple" format="2">
  <advance width="1200"/>
  <unicode hex="F0035"/>
  <note>
apple
</note>
  <outline>
    <contour>
      <point x="1138" y="267"/>
      <point x="1175" y="373" type="qcurve"/>
      <point x="1178" y="377" type="line"/>
      <point x="1158" y="383"/>
      <point x="1128" y="403" type="qcurve" smooth="yes"/>
      <point x="1072" y="443"/>
      <point x="1035" y="497" type="qcurve" smooth="yes"/>
      <point x="988" y="570"/>
      <point x="985" y="667" type="qcurve" smooth="yes"/>
      <point x="985" y="773"/>
      <point x="1055" y="863" type="qcurve" smooth="yes"/>
      <point x="1092" y="907"/>
      <point x="1138" y="937" type="qcurve"/>
      <point x="1138" y="937" type="line"/>
      <point x="1085" y="1017"/>
      <point x="995" y="1050" type="qcurve" smooth="yes"/>
      <point x="942" y="1073"/>
      <point x="882" y="1077" type="qcurve" smooth="yes"/>
      <point x="835" y="1080"/>
      <point x="782" y="1067" type="qcurve" smooth="yes"/>
      <point x="752" y="1060"/>
      <point x="632" y="1013"/>
      <point x="585" y="1013"/>
      <point x="522" y="1037" type="qcurve" smooth="yes"/>
      <point x="428" y="1073"/>
      <point x="375" y="1073" type="qcurve" smooth="yes"/>
      <point x="285" y="1073"/>
      <point x="128" y="977"/>
      <point x="82" y="897" type="qcurve" smooth="yes"/>
      <point x="25" y="793"/>
      <point x="22" y="653" type="qcurve" smooth="yes"/>
      <point x="22" y="527"/>
      <point x="68" y="393" type="qcurve" smooth="yes"/>
      <point x="108" y="273"/>
      <point x="172" y="180" type="qcurve" smooth="yes"/>
      <point x="232" y="93"/>
      <point x="272" y="57" type="qcurve" smooth="yes"/>
      <point x="335" y="-3"/>
      <point x="395" y="0" type="qcurve" smooth="yes"/>
      <point x="438" y="0"/>
      <point x="498" y="27" type="qcurve" smooth="yes"/>
      <point x="535" y="40"/>
      <point x="555" y="47" type="qcurve" smooth="yes"/>
      <point x="588" y="57"/>
      <point x="628" y="57" type="qcurve" smooth="yes"/>
      <point x="682" y="57"/>
      <point x="815" y="0"/>
      <point x="862" y="0" type="qcurve" smooth="yes"/>
      <point x="925" y="4"/>
      <point x="985" y="57" type="qcurve" smooth="yes"/>
      <point x="1022" y="93"/>
      <point x="1078" y="177" type="qcurve" smooth="yes"/>
    </contour>
    <contour>
      <point x="635" y="1270"/>
      <point x="615" y="1213" type="qcurve" smooth="yes"/>
      <point x="592" y="1150"/>
      <point x="598" y="1093" type="qcurve"/>
      <point x="655" y="1090"/>
      <point x="768" y="1147"/>
      <point x="848" y="1240"/>
      <point x="888" y="1360"/>
      <point x="882" y="1420" type="qcurve"/>
      <point x="828" y="1420"/>
      <point x="712" y="1360"/>
      <point x="672" y="1313" type="qcurve" smooth="yes"/>
    </contour>
  </outline>
</glyph>
<glyph name="apple-finder" format="2">
  <advance width="1200"/>
  <unicode hex="F0036"/>
  <note>
apple-finder
</note>
  <outline>
    <contour>
      <point x="390" y="796"/>
      <point x="426" y="831"/>
      <point x="426" y="856" type="qcurve" smooth="yes"/>
      <point x="426" y="970" type="line" smooth="yes"/>
      <point x="426" y="995"/>
      <point x="390" y="1030"/>
      <point x="344" y="1030"/>
      <point x="309" y="995"/>
      <point x="309" y="970" type="qcurve" smooth="yes"/>
      <point x="309" y="856" type="line" smooth="yes"/>
      <point x="309" y="831"/>
      <point x="344" y="796"/>
      <point x="369" y="796" type="qcurve" smooth="yes"/>
    </contour>
    <contour>
      <point x="891" y="831"/>
      <point x="891" y="856" type="qcurve" smooth="yes"/>
      <point x="891" y="970" type="line" smooth="yes"/>
      <point x="891" y="995"/>
      <point x="856" y="1030"/>
      <point x="810" y="1030"/>
      <point x="774" y="995"/>
      <point x="774" y="970" type="qcurve" smooth="yes"/>
      <point x="774" y="856" type="line" smooth="yes"/>
      <point x="774" y="831"/>
      <point x="810" y="796"/>
      <point x="856" y="796"/>
    </contour>
    <contour>
      <point x="1180" y="1193"/>
      <point x="1112" y="1261"/>
      <point x="1066" y="1261" type="qcurve" smooth="yes"/>
      <point x="134" y="1261" type="line" smooth="yes"/>
      <point x="88" y="1261"/>
      <point x="20" y="1193"/>
      <point x="20" y="1144" type="qcurve" smooth="yes"/>
      <point x="20" y="273" type="line" smooth="yes"/>
      <point x="20" y="227"/>
      <point x="88" y="159"/>
      <point x="134" y="159" type="qcurve" smooth="yes"/>
      <point x="1066" y="159" type="line" smooth="yes"/>
      <point x="1112" y="159"/>
      <point x="1180" y="227"/>
      <point x="1180" y="273" type="qcurve" smooth="yes"/>
      <point x="1180" y="1144" type="line" smooth="yes"/>
    </contour>
    <contour>
      <point x="134" y="1144" type="line"/>
      <point x="543" y="1144" type="line"/>
      <point x="507" y="1044"/>
      <point x="486" y="891" type="qcurve" smooth="yes"/>
      <point x="475" y="812"/>
      <point x="469" y="739" type="qcurve"/>
      <point x="469" y="739" type="line"/>
      <point x="469" y="709"/>
      <point x="510" y="665"/>
      <point x="537" y="665" type="qcurve" smooth="yes"/>
      <point x="644" y="665" type="line"/>
      <point x="641" y="581"/>
      <point x="644" y="510" type="qcurve"/>
      <point x="600" y="507" type="line" smooth="yes"/>
      <point x="499" y="507"/>
      <point x="418" y="553" type="qcurve" smooth="yes"/>
      <point x="371" y="578"/>
      <point x="339" y="622"/>
      <point x="290" y="624"/>
      <point x="254" y="594"/>
      <point x="249" y="545"/>
      <point x="265" y="529" type="qcurve" smooth="yes"/>
      <point x="292" y="494"/>
      <point x="352" y="455" type="qcurve" smooth="yes"/>
      <point x="464" y="390"/>
      <point x="600" y="390" type="qcurve" smooth="yes"/>
      <point x="649" y="393" type="line"/>
      <point x="654" y="319"/>
      <point x="663" y="273" type="qcurve"/>
      <point x="134" y="273" type="line"/>
    </contour>
    <contour>
      <point x="750" y="273" type="line"/>
      <point x="742" y="327"/>
      <point x="733" y="409" type="qcurve"/>
      <point x="815" y="431"/>
      <point x="880" y="480" type="qcurve" smooth="yes"/>
      <point x="916" y="504"/>
      <point x="935" y="529" type="qcurve"/>
      <point x="935" y="529" type="line"/>
      <point x="951" y="548"/>
      <point x="946" y="594"/>
      <point x="908" y="627"/>
      <point x="861" y="622"/>
      <point x="845" y="602" type="qcurve"/>
      <point x="845" y="602" type="line"/>
      <point x="804" y="556"/>
      <point x="731" y="529" type="qcurve"/>
      <point x="728" y="605"/>
      <point x="731" y="679" type="qcurve" smooth="yes"/>
      <point x="731" y="681" type="line" smooth="yes"/>
      <point x="731" y="711"/>
      <point x="690" y="752"/>
      <point x="663" y="752" type="qcurve" smooth="yes"/>
      <point x="556" y="752" type="line"/>
      <point x="584" y="1014"/>
      <point x="635" y="1144" type="qcurve"/>
      <point x="1066" y="1144" type="line"/>
      <point x="1066" y="273" type="line"/>
    </contour>
  </outline>
</glyph>
<glyph name="apple-ios" format="2">
  <advance width="1200"/>
  <unicode hex="F0037"/>
  <note>
apple-ios
</note>
  <outline>
    <contour>
      <point x="25" y="841" type="line"/>
      <point x="25" y="432" type="line"/>
      <point x="121" y="432" type="line"/>
      <point x="121" y="841" type="line"/>
    </contour>
    <contour>
      <point x="50" y="892"/>
      <point x="72" y="892" type="qcurve" smooth="yes"/>
      <point x="96" y="892"/>
      <point x="126" y="925"/>
      <point x="126" y="969"/>
      <point x="96" y="999"/>
      <point x="50" y="999"/>
      <point x="20" y="969"/>
      <point x="20" y="925"/>
    </contour>
    <contour>
      <point x="562" y="996"/>
      <point x="439" y="996" type="qcurve" smooth="yes"/>
      <point x="320" y="996"/>
      <point x="175" y="843"/>
      <point x="175" y="577"/>
      <point x="320" y="421"/>
      <point x="562" y="421"/>
      <point x="703" y="577"/>
      <point x="703" y="843"/>
    </contour>
    <contour>
      <point x="366" y="914"/>
      <point x="439" y="914" type="qcurve" smooth="yes"/>
      <point x="516" y="914"/>
      <point x="603" y="803"/>
      <point x="603" y="617"/>
      <point x="516" y="506"/>
      <point x="366" y="506"/>
      <point x="279" y="617"/>
      <point x="279" y="803"/>
    </contour>
    <contour>
      <point x="842" y="587" type="qcurve"/>
      <point x="744" y="587" type="line"/>
      <point x="747" y="511"/>
      <point x="864" y="421"/>
      <point x="1063" y="421"/>
      <point x="1180" y="514"/>
      <point x="1180" y="593" type="qcurve" smooth="yes"/>
      <point x="1180" y="656"/>
      <point x="1104" y="729"/>
      <point x="1019" y="751" type="qcurve" smooth="yes"/>
      <point x="957" y="764" type="line" smooth="yes"/>
      <point x="905" y="775"/>
      <point x="859" y="811"/>
      <point x="859" y="838" type="qcurve" smooth="yes"/>
      <point x="859" y="873"/>
      <point x="919" y="917"/>
      <point x="1014" y="917"/>
      <point x="1074" y="871"/>
      <point x="1077" y="833" type="qcurve"/>
      <point x="1172" y="833" type="line"/>
      <point x="1169" y="906"/>
      <point x="1057" y="996"/>
      <point x="875" y="996"/>
      <point x="758" y="906"/>
      <point x="758" y="833" type="qcurve" smooth="yes"/>
      <point x="758" y="713"/>
      <point x="910" y="680" type="qcurve" smooth="yes"/>
      <point x="981" y="664" type="line" smooth="yes"/>
      <point x="1036" y="650"/>
      <point x="1079" y="612"/>
      <point x="1079" y="547"/>
      <point x="1017" y="503"/>
      <point x="916" y="503"/>
      <point x="845" y="549"/>
    </contour>
  </outline>
</glyph>
<glyph name="apple-icloud" format="2">
  <advance width="1200"/>
  <unicode hex="F0038"/>
  <note>
apple-icloud
</note>
  <outline>
    <contour>
      <point x="1180" y="627"/>
      <point x="1077" y="755"/>
      <point x="998" y="771" type="qcurve"/>
      <point x="1000" y="790" type="line"/>
      <point x="1000" y="921"/>
      <point x="929" y="1008" type="qcurve" smooth="yes"/>
      <point x="851" y="1103"/>
      <point x="712" y="1103" type="qcurve" smooth="yes"/>
      <point x="603" y="1103"/>
      <point x="535" y="1044" type="qcurve" smooth="yes"/>
      <point x="488" y="1003"/>
      <point x="448" y="907" type="qcurve"/>
      <point x="407" y="943"/>
      <point x="355" y="943" type="qcurve" smooth="yes"/>
      <point x="295" y="943"/>
      <point x="208" y="858"/>
      <point x="208" y="798" type="qcurve" smooth="yes"/>
      <point x="208" y="782"/>
      <point x="211" y="771" type="qcurve"/>
      <point x="129" y="760"/>
      <point x="20" y="630"/>
      <point x="20" y="545" type="qcurve" smooth="yes"/>
      <point x="20" y="450"/>
      <point x="153" y="317"/>
      <point x="249" y="317" type="qcurve" smooth="yes"/>
      <point x="951" y="317" type="line" smooth="yes"/>
      <point x="1047" y="317"/>
      <point x="1180" y="450"/>
      <point x="1180" y="545" type="qcurve" smooth="yes"/>
    </contour>
  </outline>
</glyph>
<glyph name="apple-safari" format="2">
  <advance width="1200"/>
  <unicode hex="F0039"/>
  <note>
apple-safari
</note>
  <outline>
    <contour>
      <point x="486" y="1290"/>
      <point x="271" y="1203"/>
      <point x="107" y="1039"/>
      <point x="20" y="824"/>
      <point x="20" y="596"/>
      <point x="107" y="381"/>
      <point x="271" y="217"/>
      <point x="486" y="130"/>
      <point x="714" y="130"/>
      <point x="929" y="217"/>
      <point x="1093" y="381"/>
      <point x="1180" y="596"/>
      <point x="1180" y="824"/>
      <point x="1093" y="1039"/>
      <point x="929" y="1203"/>
      <point x="714" y="1290"/>
      <point x="600" y="1290" type="qcurve" smooth="yes"/>
    </contour>
    <contour>
      <point x="690" y="1176"/>
      <point x="851" y="1110"/>
      <point x="913" y="1053" type="qcurve"/>
      <point x="477" y="833" type="line"/>
      <point x="257" y="397" type="line"/>
      <point x="200" y="459"/>
      <point x="134" y="620"/>
      <point x="134" y="710" type="qcurve" smooth="yes"/>
      <point x="134" y="835"/>
      <point x="260" y="1050"/>
      <point x="475" y="1176"/>
      <point x="600" y="1176" type="qcurve" smooth="yes"/>
    </contour>
    <contour>
      <point x="510" y="244"/>
      <point x="349" y="310"/>
      <point x="287" y="367" type="qcurve"/>
      <point x="723" y="587" type="line"/>
      <point x="943" y="1023" type="line"/>
      <point x="1000" y="961"/>
      <point x="1066" y="800"/>
      <point x="1066" y="710" type="qcurve" smooth="yes"/>
      <point x="1066" y="585"/>
      <point x="940" y="370"/>
      <point x="725" y="244"/>
      <point x="600" y="244" type="qcurve" smooth="yes"/>
    </contour>
    <contour>
      <point x="644" y="666" type="line"/>
      <point x="467" y="577" type="line"/>
      <point x="556" y="754" type="line"/>
      <point x="600" y="710" type="line"/>
    </contour>
    <contour>
      <point x="600" y="304" type="line"/>
      <point x="657" y="304" type="line"/>
      <point x="657" y="391" type="line"/>
      <point x="600" y="391" type="line"/>
    </contour>
    <contour>
      <point x="886" y="421" type="line"/>
      <point x="929" y="465" type="line"/>
      <point x="867" y="525" type="line"/>
      <point x="826" y="484" type="line"/>
    </contour>
    <contour>
      <point x="1006" y="710" type="line"/>
      <point x="1006" y="767" type="line"/>
      <point x="919" y="767" type="line"/>
      <point x="919" y="710" type="line"/>
    </contour>
    <contour>
      <point x="600" y="1116" type="line"/>
      <point x="543" y="1116" type="line"/>
      <point x="543" y="1029" type="line"/>
      <point x="600" y="1029" type="line"/>
    </contour>
    <contour>
      <point x="314" y="999" type="line"/>
      <point x="271" y="955" type="line"/>
      <point x="333" y="895" type="line"/>
      <point x="374" y="936" type="line"/>
    </contour>
    <contour>
      <point x="194" y="710" type="line"/>
      <point x="194" y="653" type="line"/>
      <point x="281" y="653" type="line"/>
      <point x="281" y="710" type="line"/>
    </contour>
  </outline>
</glyph>
<glyph name="font-awesome" format="2">
  <advance width="1200"/>
  <unicode hex="F003A"/>
  <note>
font-awesome
</note>
  <outline>
    <contour>
      <point x="1104" y="1290"/>
      <point x="1052" y="1290" type="qcurve" smooth="yes"/>
      <point x="148" y="1290" type="line" smooth="yes"/>
      <point x="96" y="1290"/>
      <point x="20" y="1214"/>
      <point x="20" y="1162" type="qcurve" smooth="yes"/>
      <point x="20" y="258" type="line" smooth="yes"/>
      <point x="20" y="206"/>
      <point x="96" y="130"/>
      <point x="148" y="130" type="qcurve" smooth="yes"/>
      <point x="1052" y="130" type="line" smooth="yes"/>
      <point x="1104" y="130"/>
      <point x="1180" y="206"/>
      <point x="1180" y="258" type="qcurve" smooth="yes"/>
      <point x="1180" y="1162" type="line" smooth="yes"/>
      <point x="1180" y="1214"/>
    </contour>
    <contour>
      <point x="932" y="917" type="qcurve" smooth="yes"/>
      <point x="932" y="555" type="line" smooth="yes"/>
      <point x="932" y="541"/>
      <point x="913" y="533" type="qcurve" smooth="yes"/>
      <point x="831" y="498"/>
      <point x="774" y="498" type="qcurve" smooth="yes"/>
      <point x="742" y="498"/>
      <point x="690" y="519" type="qcurve" smooth="yes"/>
      <point x="630" y="541"/>
      <point x="586" y="541" type="qcurve" smooth="yes"/>
      <point x="510" y="541"/>
      <point x="412" y="495" type="qcurve" smooth="yes"/>
      <point x="404" y="492" type="line"/>
      <point x="404" y="375" type="line" smooth="yes"/>
      <point x="404" y="367"/>
      <point x="401" y="364" type="qcurve"/>
      <point x="401" y="359" type="line"/>
      <point x="396" y="342"/>
      <point x="369" y="323"/>
      <point x="330" y="323"/>
      <point x="298" y="353"/>
      <point x="298" y="375" type="qcurve" smooth="yes"/>
      <point x="298" y="941" type="line"/>
      <point x="265" y="969"/>
      <point x="265" y="1048"/>
      <point x="317" y="1097"/>
      <point x="388" y="1097"/>
      <point x="439" y="1048"/>
      <point x="439" y="1010" type="qcurve" smooth="yes"/>
      <point x="439" y="969"/>
      <point x="404" y="941" type="qcurve"/>
      <point x="404" y="895" type="line"/>
      <point x="418" y="901" type="line" smooth="yes"/>
      <point x="507" y="939"/>
      <point x="578" y="939" type="qcurve" smooth="yes"/>
      <point x="619" y="939"/>
      <point x="660" y="928" type="qcurve" smooth="yes"/>
      <point x="690" y="920"/>
      <point x="736" y="903" type="qcurve" smooth="yes"/>
      <point x="752" y="895"/>
      <point x="772" y="895" type="qcurve" smooth="yes"/>
      <point x="810" y="895"/>
      <point x="880" y="928" type="qcurve" smooth="yes"/>
      <point x="905" y="939"/>
      <point x="919" y="939"/>
      <point x="932" y="925"/>
    </contour>
  </outline>
</glyph>
<glyph name="apps" format="2">
  <advance width="1200"/>
  <unicode hex="F003B"/>
  <note>
apps
</note>
  <outline>
    <contour>
      <point x="888" y="422" type="line"/>
      <point x="888" y="130" type="line"/>
      <point x="1180" y="130" type="line"/>
      <point x="1180" y="422" type="line"/>
    </contour>
    <contour>
      <point x="888" y="856" type="line"/>
      <point x="888" y="564" type="line"/>
      <point x="1180" y="564" type="line"/>
      <point x="1180" y="856" type="line"/>
    </contour>
    <contour>
      <point x="454" y="1290" type="line"/>
      <point x="454" y="998" type="line"/>
      <point x="746" y="998" type="line"/>
      <point x="746" y="1290" type="line"/>
    </contour>
    <contour>
      <point x="888" y="1290" type="line"/>
      <point x="888" y="998" type="line"/>
      <point x="1180" y="998" type="line"/>
      <point x="1180" y="1290" type="line"/>
    </contour>
    <contour>
      <point x="454" y="856" type="line"/>
      <point x="454" y="564" type="line"/>
      <point x="746" y="564" type="line"/>
      <point x="746" y="856" type="line"/>
    </contour>
    <contour>
      <point x="20" y="856" type="line"/>
      <point x="20" y="564" type="line"/>
      <point x="312" y="564" type="line"/>
      <point x="312" y="856" type="line"/>
    </contour>
    <contour>
      <point x="20" y="422" type="line"/>
      <point x="20" y="130" type="line"/>
      <point x="312" y="130" type="line"/>
      <point x="312" y="422" type="line"/>
    </contour>
    <contour>
      <point x="454" y="422" type="line"/>
      <point x="454" y="130" type="line"/>
      <point x="746" y="130" type="line"/>
      <point x="746" y="422" type="line"/>
    </contour>
    <contour>
      <point x="20" y="1290" type="line"/>
      <point x="20" y="998" type="line"/>
      <point x="312" y="998" type="line"/>
      <point x="312" y="1290" type="line"/>
    </contour>
  </outline>
</glyph>
<glyph name="archive" format="2">
  <advance width="1200"/>
  <unicode hex="F003C"/>
  <note>
archive
</note>
  <outline>
    <contour>
      <point x="20" y="1033" type="line"/>
      <point x="1180" y="1033" type="line"/>
      <point x="1180" y="1290" type="line"/>
      <point x="20" y="1290" type="line"/>
    </contour>
    <contour>
      <point x="83" y="130" type="line"/>
      <point x="1117" y="130" type="line"/>
      <point x="1117" y="967" type="line"/>
      <point x="83" y="967" type="line"/>
    </contour>
    <contour>
      <point x="760" y="773" type="line" smooth="yes"/>
      <point x="775" y="773"/>
      <point x="793" y="755"/>
      <point x="793" y="743" type="qcurve" smooth="yes"/>
      <point x="793" y="647" type="line"/>
      <point x="407" y="647" type="line"/>
      <point x="407" y="743" type="line" smooth="yes"/>
      <point x="407" y="755"/>
      <point x="425" y="773"/>
      <point x="440" y="773" type="qcurve" smooth="yes"/>
    </contour>
  </outline>
</glyph>
<glyph name="arrange-send-backward" format="2">
  <advance width="1200"/>
  <unicode hex="F003F"/>
  <note>
arrange-send-backward
</note>
  <outline>
    <contour>
      <point x="20" y="479" type="line"/>
      <point x="831" y="479" type="line"/>
      <point x="831" y="1290" type="line"/>
      <point x="20" y="1290" type="line"/>
    </contour>
    <contour>
      <point x="949" y="941" type="line"/>
      <point x="949" y="361" type="line"/>
      <point x="369" y="361" type="line"/>
      <point x="369" y="130" type="line"/>
      <point x="1180" y="130" type="line"/>
      <point x="1180" y="941" type="line"/>
    </contour>
    <contour>
      <point x="717" y="1176" type="line"/>
      <point x="717" y="593" type="line"/>
      <point x="134" y="593" type="line"/>
      <point x="134" y="1176" type="line"/>
    </contour>
  </outline>
</glyph>
<glyph name="arrange-send-to-back" format="2">
  <advance width="1200"/>
  <unicode hex="F0040"/>
  <note>
arrange-send-to-back
</note>
  <outline>
    <contour>
      <point x="20" y="767" type="line"/>
      <point x="543" y="767" type="line"/>
      <point x="543" y="1290" type="line"/>
      <point x="20" y="1290" type="line"/>
    </contour>
    <contour>
      <point x="426" y="884" type="line"/>
      <point x="134" y="884" type="line"/>
      <point x="134" y="1176" type="line"/>
      <point x="426" y="1176" type="line"/>
    </contour>
    <contour>
      <point x="657" y="653" type="line"/>
      <point x="657" y="130" type="line"/>
      <point x="1180" y="130" type="line"/>
      <point x="1180" y="653" type="line"/>
    </contour>
    <contour>
      <point x="774" y="536" type="line"/>
      <point x="1066" y="536" type="line"/>
      <point x="1066" y="244" type="line"/>
      <point x="774" y="244" type="line"/>
    </contour>
    <contour>
      <point x="657" y="941" type="line"/>
      <point x="657" y="767" type="line"/>
      <point x="831" y="767" type="line"/>
      <point x="831" y="941" type="line"/>
    </contour>
    <contour>
      <point x="543" y="653" type="line"/>
      <point x="369" y="653" type="line"/>
      <point x="369" y="479" type="line"/>
      <point x="543" y="479" type="line"/>
    </contour>
  </outline>
</glyph>
<glyph name="arrow-all" format="2">
  <advance width="1200"/>
  <unicode hex="F0041"/>
  <note>
arrow-all
</note>
  <outline>
    <contour>
      <point x="658" y="1064" type="line"/>
      <point x="746" y="975" type="line"/>
      <point x="832" y="1058" type="line"/>
      <point x="600" y="1290" type="line"/>
      <point x="368" y="1058" type="line"/>
      <point x="454" y="975" type="line"/>
      <point x="542" y="1064" type="line"/>
      <point x="542" y="768" type="line"/>
      <point x="246" y="768" type="line"/>
      <point x="335" y="856" type="line"/>
      <point x="252" y="942" type="line"/>
      <point x="20" y="710" type="line"/>
      <point x="252" y="478" type="line"/>
      <point x="335" y="564" type="line"/>
      <point x="246" y="652" type="line"/>
      <point x="542" y="652" type="line"/>
      <point x="542" y="356" type="line"/>
      <point x="454" y="445" type="line"/>
      <point x="368" y="362" type="line"/>
      <point x="600" y="130" type="line"/>
      <point x="832" y="362" type="line"/>
      <point x="746" y="445" type="line"/>
      <point x="658" y="356" type="line"/>
      <point x="658" y="652" type="line"/>
      <point x="954" y="652" type="line"/>
      <point x="865" y="564" type="line"/>
      <point x="948" y="478" type="line"/>
      <point x="1180" y="710" type="line"/>
      <point x="948" y="942" type="line"/>
      <point x="865" y="856" type="line"/>
      <point x="954" y="768" type="line"/>
      <point x="658" y="768" type="line"/>
    </contour>
  </outline>
</glyph>
<glyph name="arrow-bottom-left" format="2">
  <advance width="1200"/>
  <unicode hex="F0042"/>
  <note>
arrow-bottom-left
</note>
  <outline>
    <contour>
      <point x="300" y="293" type="line"/>
      <point x="1180" y="1173" type="line"/>
      <point x="1063" y="1290" type="line"/>
      <point x="183" y="410" type="line"/>
      <point x="183" y="959" type="line"/>
      <point x="20" y="959" type="line"/>
      <point x="20" y="130" type="line"/>
      <point x="849" y="130" type="line"/>
      <point x="849" y="293" type="line"/>
    </contour>
  </outline>
</glyph>
<glyph name="arrow-bottom-right" format="2">
  <advance width="1200"/>
  <unicode hex="F0043"/>
  <note>
arrow-bottom-right
</note>
  <outline>
    <contour>
      <point x="900" y="293" type="line"/>
      <point x="351" y="293" type="line"/>
      <point x="351" y="130" type="line"/>
      <point x="1180" y="130" type="line"/>
      <point x="1180" y="959" type="line"/>
      <point x="1017" y="959" type="line"/>
      <point x="1017" y="410" type="line"/>
      <point x="137" y="1290" type="line"/>
      <point x="20" y="1173" type="line"/>
    </contour>
  </outline>
</glyph>
<glyph name="arrow-collapse-all" format="2">
  <advance width="1200"/>
  <unicode hex="F0044"/>
  <note>
arrow-collapse-all
</note>
  <outline>
    <contour>
      <point x="795" y="997" type="line"/>
      <point x="795" y="1232" type="line"/>
      <point x="664" y="1232" type="line"/>
      <point x="664" y="774" type="line"/>
      <point x="1122" y="774" type="line"/>
      <point x="1122" y="905" type="line"/>
      <point x="887" y="905" type="line"/>
      <point x="1180" y="1198" type="line"/>
      <point x="1088" y="1290" type="line"/>
    </contour>
    <contour>
      <point x="887" y="515" type="line"/>
      <point x="1122" y="515" type="line"/>
      <point x="1122" y="646" type="line"/>
      <point x="664" y="646" type="line"/>
      <point x="664" y="188" type="line"/>
      <point x="795" y="188" type="line"/>
      <point x="795" y="423" type="line"/>
      <point x="1088" y="130" type="line"/>
      <point x="1180" y="222" type="line"/>
    </contour>
    <contour>
      <point x="20" y="1198" type="line"/>
      <point x="313" y="905" type="line"/>
      <point x="78" y="905" type="line"/>
      <point x="78" y="774" type="line"/>
      <point x="536" y="774" type="line"/>
      <point x="536" y="1232" type="line"/>
      <point x="405" y="1232" type="line"/>
      <point x="405" y="997" type="line"/>
      <point x="112" y="1290" type="line"/>
    </contour>
    <contour>
      <point x="112" y="130" type="line"/>
      <point x="405" y="423" type="line"/>
      <point x="405" y="188" type="line"/>
      <point x="536" y="188" type="line"/>
      <point x="536" y="646" type="line"/>
      <point x="78" y="646" type="line"/>
      <point x="78" y="515" type="line"/>
      <point x="313" y="515" type="line"/>
      <point x="20" y="222" type="line"/>
    </contour>
  </outline>
</glyph>
<glyph name="arrow-down" format="2">
  <advance width="1200"/>
  <unicode hex="F0045"/>
  <note>
arrow-down
</note>
  <outline>
    <contour>
      <point x="528" y="411" type="line"/>
      <point x="123" y="813" type="line"/>
      <point x="20" y="710" type="line"/>
      <point x="600" y="130" type="line"/>
      <point x="1180" y="710" type="line"/>
      <point x="1077" y="813" type="line"/>
      <point x="672" y="411" type="line"/>
      <point x="672" y="1290" type="line"/>
      <point x="528" y="1290" type="line"/>
    </contour>
  </outline>
</glyph>
<glyph name="arrow-down-thick" format="2">
  <advance width="1200"/>
  <unicode hex="F0046"/>
  <note>
arrow-down-thick
</note>
  <outline>
    <contour>
      <point x="452" y="631" type="line"/>
      <point x="198" y="885" type="line"/>
      <point x="20" y="710" type="line"/>
      <point x="600" y="130" type="line"/>
      <point x="1180" y="710" type="line"/>
      <point x="1002" y="885" type="line"/>
      <point x="748" y="631" type="line"/>
      <point x="748" y="1290" type="line"/>
      <point x="452" y="1290" type="line"/>
    </contour>
  </outline>
</glyph>
<glyph name="arrow-down-drop-circle" format="2">
  <advance width="1200"/>
  <unicode hex="F004A"/>
  <note>
arrow-down-drop-circle
</note>
  <outline>
    <contour>
      <point x="486" y="1290"/>
      <point x="271" y="1203"/>
      <point x="107" y="1039"/>
      <point x="20" y="824"/>
      <point x="20" y="596"/>
      <point x="107" y="381"/>
      <point x="271" y="217"/>
      <point x="486" y="130"/>
      <point x="714" y="130"/>
      <point x="929" y="217"/>
      <point x="1093" y="381"/>
      <point x="1180" y="596"/>
      <point x="1180" y="824"/>
      <point x="1093" y="1039"/>
      <point x="929" y="1203"/>
      <point x="714" y="1290"/>
      <point x="600" y="1290" type="qcurve" smooth="yes"/>
    </contour>
    <contour>
      <point x="891" y="827" type="line"/>
      <point x="600" y="536" type="line"/>
      <point x="309" y="827" type="line"/>
    </contour>
  </outline>
</glyph>
<glyph name="arrow-expand-all" format="2">
  <advance width="1200"/>
  <unicode hex="F004C"/>
  <note>
arrow-expand-all
</note>
  <outline>
    <contour>
      <point x="150" y="351" type="line"/>
      <point x="150" y="580" type="line"/>
      <point x="20" y="580" type="line"/>
      <point x="20" y="130" type="line"/>
      <point x="470" y="130" type="line"/>
      <point x="470" y="260" type="line"/>
      <point x="241" y="260" type="line"/>
      <point x="531" y="550" type="line"/>
      <point x="440" y="641" type="line"/>
    </contour>
    <contour>
      <point x="241" y="1160" type="line"/>
      <point x="470" y="1160" type="line"/>
      <point x="470" y="1290" type="line"/>
      <point x="20" y="1290" type="line"/>
      <point x="20" y="840" type="line"/>
      <point x="150" y="840" type="line"/>
      <point x="150" y="1069" type="line"/>
      <point x="440" y="779" type="line"/>
      <point x="531" y="870" type="line"/>
    </contour>
    <contour>
      <point x="669" y="550" type="line"/>
      <point x="959" y="260" type="line"/>
      <point x="730" y="260" type="line"/>
      <point x="730" y="130" type="line"/>
      <point x="1180" y="130" type="line"/>
      <point x="1180" y="580" type="line"/>
      <point x="1050" y="580" type="line"/>
      <point x="1050" y="351" type="line"/>
      <point x="760" y="641" type="line"/>
    </contour>
    <contour>
      <point x="760" y="779" type="line"/>
      <point x="1050" y="1069" type="line"/>
      <point x="1050" y="840" type="line"/>
      <point x="1180" y="840" type="line"/>
      <point x="1180" y="1290" type="line"/>
      <point x="730" y="1290" type="line"/>
      <point x="730" y="1160" type="line"/>
      <point x="959" y="1160" type="line"/>
      <point x="669" y="870" type="line"/>
    </contour>
  </outline>
</glyph>
<glyph name="arrow-left" format="2">
  <advance width="1200"/>
  <unicode hex="F004D"/>
  <note>
arrow-left
</note>
  <outline>
    <contour>
      <point x="301" y="782" type="line"/>
      <point x="703" y="1187" type="line"/>
      <point x="600" y="1290" type="line"/>
      <point x="20" y="710" type="line"/>
      <point x="600" y="130" type="line"/>
      <point x="703" y="233" type="line"/>
      <point x="301" y="638" type="line"/>
      <point x="1180" y="638" type="line"/>
      <point x="1180" y="782" type="line"/>
    </contour>
  </outline>
</glyph>
<glyph name="arrow-left-thick" format="2">
  <advance width="1200"/>
  <unicode hex="F004E"/>
  <note>
arrow-left-thick
</note>
  <outline>
    <contour>
      <point x="521" y="858" type="line"/>
      <point x="775" y="1112" type="line"/>
      <point x="600" y="1290" type="line"/>
      <point x="20" y="710" type="line"/>
      <point x="600" y="130" type="line"/>
      <point x="775" y="308" type="line"/>
      <point x="521" y="562" type="line"/>
      <point x="1180" y="562" type="line"/>
      <point x="1180" y="858" type="line"/>
    </contour>
  </outline>
</glyph>
<glyph name="arrow-left-bold-hexagon-outline" format="2">
  <advance width="1200"/>
  <unicode hex="F0051"/>
  <note>
arrow-left-bold-hexagon-outline
</note>
  <outline>
    <contour>
      <point x="600" y="387" type="line"/>
      <point x="600" y="580" type="line"/>
      <point x="857" y="580" type="line"/>
      <point x="857" y="840" type="line"/>
      <point x="600" y="840" type="line"/>
      <point x="600" y="1033" type="line"/>
      <point x="277" y="710" type="line"/>
    </contour>
    <contour>
      <point x="1180" y="1000" type="line" smooth="yes"/>
      <point x="1180" y="1039"/>
      <point x="1147" y="1057" type="qcurve" smooth="yes"/>
      <point x="636" y="1341" type="line"/>
      <point x="621" y="1353"/>
      <point x="579" y="1353"/>
      <point x="564" y="1341" type="qcurve"/>
      <point x="53" y="1057" type="line" smooth="yes"/>
      <point x="20" y="1039"/>
      <point x="20" y="1000" type="qcurve" smooth="yes"/>
      <point x="20" y="420" type="line" smooth="yes"/>
      <point x="20" y="381"/>
      <point x="53" y="363" type="qcurve" smooth="yes"/>
      <point x="564" y="79" type="line"/>
      <point x="579" y="67"/>
      <point x="621" y="67"/>
      <point x="636" y="79" type="qcurve"/>
      <point x="1147" y="363" type="line" smooth="yes"/>
      <point x="1180" y="381"/>
      <point x="1180" y="420" type="qcurve" smooth="yes"/>
    </contour>
    <contour>
      <point x="1050" y="961" type="line"/>
      <point x="1050" y="459" type="line"/>
      <point x="600" y="206" type="line"/>
      <point x="150" y="459" type="line"/>
      <point x="150" y="961" type="line"/>
      <point x="600" y="1214" type="line"/>
    </contour>
  </outline>
</glyph>
<glyph name="arrow-left-drop-circle" format="2">
  <advance width="1200"/>
  <unicode hex="F0052"/>
  <note>
arrow-left-drop-circle
</note>
  <outline>
    <contour>
      <point x="1180" y="824"/>
      <point x="1093" y="1039"/>
      <point x="929" y="1203"/>
      <point x="714" y="1290"/>
      <point x="486" y="1290"/>
      <point x="271" y="1203"/>
      <point x="107" y="1039"/>
      <point x="20" y="824"/>
      <point x="20" y="596"/>
      <point x="107" y="381"/>
      <point x="271" y="217"/>
      <point x="486" y="130"/>
      <point x="714" y="130"/>
      <point x="929" y="217"/>
      <point x="1093" y="381"/>
      <point x="1180" y="596"/>
      <point x="1180" y="710" type="qcurve" smooth="yes"/>
    </contour>
    <contour>
      <point x="717" y="419" type="line"/>
      <point x="426" y="710" type="line"/>
      <point x="717" y="1001" type="line"/>
    </contour>
  </outline>
</glyph>
<glyph name="arrow-left-drop-circle-outline" format="2">
  <advance width="1200"/>
  <unicode hex="F0053"/>
  <note>
arrow-left-drop-circle-outline
</note>
  <outline>
    <contour>
      <point x="1180" y="596"/>
      <point x="1180" y="710" type="qcurve" smooth="yes"/>
      <point x="1180" y="824"/>
      <point x="1093" y="1039"/>
      <point x="929" y="1203"/>
      <point x="714" y="1290"/>
      <point x="486" y="1290"/>
      <point x="271" y="1203"/>
      <point x="107" y="1039"/>
      <point x="20" y="824"/>
      <point x="20" y="596"/>
      <point x="107" y="381"/>
      <point x="271" y="217"/>
      <point x="486" y="130"/>
      <point x="714" y="130"/>
      <point x="929" y="217"/>
      <point x="1093" y="381"/>
    </contour>
    <contour>
      <point x="1066" y="835"/>
      <point x="1066" y="710" type="qcurve" smooth="yes"/>
      <point x="1066" y="585"/>
      <point x="940" y="370"/>
      <point x="725" y="244"/>
      <point x="475" y="244"/>
      <point x="260" y="370"/>
      <point x="134" y="585"/>
      <point x="134" y="835"/>
      <point x="260" y="1050"/>
      <point x="475" y="1176"/>
      <point x="725" y="1176"/>
      <point x="940" y="1050"/>
    </contour>
    <contour>
      <point x="717" y="419" type="line"/>
      <point x="717" y="1001" type="line"/>
      <point x="426" y="710" type="line"/>
    </contour>
  </outline>
</glyph>
<glyph name="arrow-right" format="2">
  <advance width="1200"/>
  <unicode hex="F0054"/>
  <note>
arrow-right
</note>
  <outline>
    <contour>
      <point x="899" y="782" type="line"/>
      <point x="20" y="782" type="line"/>
      <point x="20" y="638" type="line"/>
      <point x="899" y="638" type="line"/>
      <point x="497" y="233" type="line"/>
      <point x="600" y="130" type="line"/>
      <point x="1180" y="710" type="line"/>
      <point x="600" y="1290" type="line"/>
      <point x="497" y="1187" type="line"/>
    </contour>
  </outline>
</glyph>
<glyph name="arrow-right-thick" format="2">
  <advance width="1200"/>
  <unicode hex="F0055"/>
  <note>
arrow-right-thick
</note>
  <outline>
    <contour>
      <point x="679" y="858" type="line"/>
      <point x="20" y="858" type="line"/>
      <point x="20" y="562" type="line"/>
      <point x="679" y="562" type="line"/>
      <point x="425" y="308" type="line"/>
      <point x="600" y="130" type="line"/>
      <point x="1180" y="710" type="line"/>
      <point x="600" y="1290" type="line"/>
      <point x="425" y="1112" type="line"/>
    </contour>
  </outline>
</glyph>
<glyph name="arrow-top-left" format="2">
  <advance width="1200"/>
  <unicode hex="F005B"/>
  <note>
arrow-top-left
</note>
  <outline>
    <contour>
      <point x="300" y="1127" type="line"/>
      <point x="849" y="1127" type="line"/>
      <point x="849" y="1290" type="line"/>
      <point x="20" y="1290" type="line"/>
      <point x="20" y="461" type="line"/>
      <point x="183" y="461" type="line"/>
      <point x="183" y="1010" type="line"/>
      <point x="1063" y="130" type="line"/>
      <point x="1180" y="247" type="line"/>
    </contour>
  </outline>
</glyph>
<glyph name="arrow-top-right" format="2">
  <advance width="1200"/>
  <unicode hex="F005C"/>
  <note>
arrow-top-right
</note>
  <outline>
    <contour>
      <point x="137" y="130" type="line"/>
      <point x="1017" y="1010" type="line"/>
      <point x="1017" y="461" type="line"/>
      <point x="1180" y="461" type="line"/>
      <point x="1180" y="1290" type="line"/>
      <point x="351" y="1290" type="line"/>
      <point x="351" y="1127" type="line"/>
      <point x="900" y="1127" type="line"/>
      <point x="20" y="247" type="line"/>
    </contour>
  </outline>
</glyph>
<glyph name="arrow-up" format="2">
  <advance width="1200"/>
  <unicode hex="F005D"/>
  <note>
arrow-up
</note>
  <outline>
    <contour>
      <point x="672" y="1009" type="line"/>
      <point x="1077" y="607" type="line"/>
      <point x="1180" y="710" type="line"/>
      <point x="600" y="1290" type="line"/>
      <point x="20" y="710" type="line"/>
      <point x="123" y="607" type="line"/>
      <point x="528" y="1009" type="line"/>
      <point x="528" y="130" type="line"/>
      <point x="672" y="130" type="line"/>
    </contour>
  </outline>
</glyph>
<glyph name="arrow-up-thick" format="2">
  <advance width="1200"/>
  <unicode hex="F005E"/>
  <note>
arrow-up-thick
</note>
  <outline>
    <contour>
      <point x="748" y="789" type="line"/>
      <point x="1002" y="535" type="line"/>
      <point x="1180" y="710" type="line"/>
      <point x="600" y="1290" type="line"/>
      <point x="20" y="710" type="line"/>
      <point x="198" y="535" type="line"/>
      <point x="452" y="789" type="line"/>
      <point x="452" y="130" type="line"/>
      <point x="748" y="130" type="line"/>
    </contour>
  </outline>
</glyph>
<glyph name="arrow-up-bold-hexagon-outline" format="2">
  <advance width="1200"/>
  <unicode hex="F0061"/>
  <note>
arrow-up-bold-hexagon-outline
</note>
  <outline>
    <contour>
      <point x="277" y="710" type="line"/>
      <point x="470" y="710" type="line"/>
      <point x="470" y="453" type="line"/>
      <point x="730" y="453" type="line"/>
      <point x="730" y="710" type="line"/>
      <point x="923" y="710" type="line"/>
      <point x="600" y="1033" type="line"/>
    </contour>
    <contour>
      <point x="1180" y="1000" type="line" smooth="yes"/>
      <point x="1180" y="1039"/>
      <point x="1147" y="1057" type="qcurve" smooth="yes"/>
      <point x="636" y="1341" type="line"/>
      <point x="621" y="1353"/>
      <point x="579" y="1353"/>
      <point x="564" y="1341" type="qcurve"/>
      <point x="53" y="1057" type="line" smooth="yes"/>
      <point x="20" y="1039"/>
      <point x="20" y="1000" type="qcurve" smooth="yes"/>
      <point x="20" y="420" type="line" smooth="yes"/>
      <point x="20" y="381"/>
      <point x="53" y="363" type="qcurve" smooth="yes"/>
      <point x="564" y="79" type="line"/>
      <point x="579" y="67"/>
      <point x="621" y="67"/>
      <point x="636" y="79" type="qcurve"/>
      <point x="1147" y="363" type="line" smooth="yes"/>
      <point x="1180" y="381"/>
      <point x="1180" y="420" type="qcurve" smooth="yes"/>
    </contour>
    <contour>
      <point x="1050" y="961" type="line"/>
      <point x="1050" y="459" type="line"/>
      <point x="600" y="206" type="line"/>
      <point x="150" y="459" type="line"/>
      <point x="150" y="961" type="line"/>
      <point x="600" y="1214" type="line"/>
    </contour>
  </outline>
</glyph>
<glyph name="arrow-up-drop-circle-outline" format="2">
  <advance width="1200"/>
  <unicode hex="F0063"/>
  <note>
arrow-up-drop-circle-outline
</note>
  <outline>
    <contour>
      <point x="486" y="130"/>
      <point x="600" y="130" type="qcurve" smooth="yes"/>
      <point x="714" y="130"/>
      <point x="929" y="217"/>
      <point x="1093" y="381"/>
      <point x="1180" y="596"/>
      <point x="1180" y="824"/>
      <point x="1093" y="1039"/>
      <point x="929" y="1203"/>
      <point x="714" y="1290"/>
      <point x="486" y="1290"/>
      <point x="271" y="1203"/>
      <point x="107" y="1039"/>
      <point x="20" y="824"/>
      <point x="20" y="596"/>
      <point x="107" y="381"/>
      <point x="271" y="217"/>
    </contour>
    <contour>
      <point x="725" y="244"/>
      <point x="600" y="244" type="qcurve" smooth="yes"/>
      <point x="475" y="244"/>
      <point x="260" y="370"/>
      <point x="134" y="585"/>
      <point x="134" y="835"/>
      <point x="260" y="1050"/>
      <point x="475" y="1176"/>
      <point x="725" y="1176"/>
      <point x="940" y="1050"/>
      <point x="1066" y="835"/>
      <point x="1066" y="585"/>
      <point x="940" y="370"/>
    </contour>
    <contour>
      <point x="309" y="593" type="line"/>
      <point x="891" y="593" type="line"/>
      <point x="600" y="884" type="line"/>
    </contour>
  </outline>
</glyph>
<glyph name="assistant" format="2">
  <advance width="1200"/>
  <unicode hex="F0064"/>
  <note>
assistant
</note>
  <outline>
    <contour>
      <point x="1104" y="1387"/>
      <point x="1050" y="1387" type="qcurve" smooth="yes"/>
      <point x="150" y="1387" type="line" smooth="yes"/>
      <point x="96" y="1387"/>
      <point x="20" y="1311"/>
      <point x="20" y="1260" type="qcurve" smooth="yes"/>
      <point x="20" y="357" type="line" smooth="yes"/>
      <point x="20" y="302"/>
      <point x="96" y="227"/>
      <point x="150" y="227" type="qcurve" smooth="yes"/>
      <point x="407" y="227" type="line"/>
      <point x="600" y="33" type="line"/>
      <point x="793" y="227" type="line"/>
      <point x="1050" y="227" type="line" smooth="yes"/>
      <point x="1104" y="227"/>
      <point x="1180" y="302"/>
      <point x="1180" y="357" type="qcurve" smooth="yes"/>
      <point x="1180" y="1260" type="line" smooth="yes"/>
      <point x="1180" y="1311"/>
    </contour>
    <contour>
      <point x="987" y="807" type="line"/>
      <point x="721" y="686" type="line"/>
      <point x="600" y="420" type="line"/>
      <point x="479" y="686" type="line"/>
      <point x="213" y="807" type="line"/>
      <point x="479" y="928" type="line"/>
      <point x="600" y="1193" type="line"/>
      <point x="721" y="928" type="line"/>
    </contour>
  </outline>
</glyph>
<glyph name="at" format="2">
  <advance width="1200"/>
  <unicode hex="F0065"/>
  <note>
at
</note>
  <outline>
    <contour>
      <point x="532" y="536"/>
      <point x="426" y="642"/>
      <point x="426" y="778"/>
      <point x="532" y="884"/>
      <point x="668" y="884"/>
      <point x="774" y="778"/>
      <point x="774" y="642"/>
      <point x="668" y="536"/>
      <point x="600" y="536" type="qcurve" smooth="yes"/>
    </contour>
    <contour>
      <point x="363" y="1290"/>
      <point x="20" y="947"/>
      <point x="20" y="473"/>
      <point x="363" y="130"/>
      <point x="600" y="130" type="qcurve" smooth="yes"/>
      <point x="891" y="130" type="line"/>
      <point x="891" y="244" type="line"/>
      <point x="600" y="244" type="line" smooth="yes"/>
      <point x="409" y="244"/>
      <point x="134" y="519"/>
      <point x="134" y="901"/>
      <point x="409" y="1176"/>
      <point x="791" y="1176"/>
      <point x="1066" y="901"/>
      <point x="1066" y="710" type="qcurve" smooth="yes"/>
      <point x="1066" y="626" type="line" smooth="yes"/>
      <point x="1066" y="590"/>
      <point x="1014" y="536"/>
      <point x="943" y="536"/>
      <point x="891" y="590"/>
      <point x="891" y="626" type="qcurve" smooth="yes"/>
      <point x="891" y="710" type="line" smooth="yes"/>
      <point x="891" y="827"/>
      <point x="717" y="1001"/>
      <point x="483" y="1001"/>
      <point x="309" y="827"/>
      <point x="309" y="593"/>
      <point x="483" y="419"/>
      <point x="720" y="419"/>
      <point x="807" y="506" type="qcurve"/>
      <point x="872" y="419"/>
      <point x="978" y="419" type="qcurve" smooth="yes"/>
      <point x="1063" y="419"/>
      <point x="1180" y="541"/>
      <point x="1180" y="626" type="qcurve" smooth="yes"/>
      <point x="1180" y="710" type="line" smooth="yes"/>
      <point x="1180" y="947"/>
      <point x="837" y="1290"/>
      <point x="600" y="1290" type="qcurve" smooth="yes"/>
    </contour>
  </outline>
</glyph>
<glyph name="attachment" format="2">
  <advance width="1200"/>
  <unicode hex="F0066"/>
  <note>
attachment
</note>
  <outline>
    <contour>
      <point x="891" y="390" type="line"/>
      <point x="891" y="477" type="line"/>
      <point x="339" y="477" type="line" smooth="yes"/>
      <point x="243" y="477"/>
      <point x="107" y="613"/>
      <point x="107" y="807"/>
      <point x="243" y="943"/>
      <point x="339" y="943" type="qcurve" smooth="yes"/>
      <point x="949" y="943" type="line" smooth="yes"/>
      <point x="1008" y="943"/>
      <point x="1093" y="856"/>
      <point x="1093" y="736"/>
      <point x="1008" y="651"/>
      <point x="949" y="651" type="qcurve" smooth="yes"/>
      <point x="456" y="651" type="line" smooth="yes"/>
      <point x="431" y="651"/>
      <point x="396" y="684"/>
      <point x="396" y="733"/>
      <point x="431" y="769"/>
      <point x="456" y="769" type="qcurve" smooth="yes"/>
      <point x="891" y="769" type="line"/>
      <point x="891" y="856" type="line"/>
      <point x="456" y="856" type="line" smooth="yes"/>
      <point x="396" y="856"/>
      <point x="309" y="769"/>
      <point x="309" y="649"/>
      <point x="396" y="564"/>
      <point x="456" y="564" type="qcurve" smooth="yes"/>
      <point x="949" y="564" type="line" smooth="yes"/>
      <point x="1044" y="564"/>
      <point x="1180" y="700"/>
      <point x="1180" y="894"/>
      <point x="1044" y="1030"/>
      <point x="949" y="1030" type="qcurve" smooth="yes"/>
      <point x="339" y="1030" type="line" smooth="yes"/>
      <point x="251" y="1030"/>
      <point x="104" y="943"/>
      <point x="20" y="796"/>
      <point x="20" y="709" type="qcurve" smooth="yes"/>
      <point x="20" y="646"/>
      <point x="69" y="529"/>
      <point x="159" y="439"/>
      <point x="276" y="390"/>
      <point x="339" y="390" type="qcurve" smooth="yes"/>
    </contour>
  </outline>
</glyph>
<glyph name="book-music" format="2">
  <advance width="1200"/>
  <unicode hex="F0067"/>
  <note>
book-music
</note>
  <outline>
    <contour>
      <point x="600" y="299"/>
      <point x="730" y="456"/>
      <point x="827" y="477" type="qcurve"/>
      <point x="827" y="807" type="line"/>
      <point x="1053" y="807" type="line"/>
      <point x="1053" y="1260" type="line" smooth="yes"/>
      <point x="1053" y="1311"/>
      <point x="978" y="1387"/>
      <point x="923" y="1387" type="qcurve" smooth="yes"/>
      <point x="537" y="1387" type="line"/>
      <point x="537" y="937" type="line"/>
      <point x="376" y="1033" type="line"/>
      <point x="213" y="937" type="line"/>
      <point x="213" y="1387" type="line"/>
      <point x="150" y="1387" type="line" smooth="yes"/>
      <point x="96" y="1387"/>
      <point x="20" y="1311"/>
      <point x="20" y="1260" type="qcurve" smooth="yes"/>
      <point x="20" y="227" type="line" smooth="yes"/>
      <point x="20" y="175"/>
      <point x="96" y="100"/>
      <point x="150" y="100" type="qcurve" smooth="yes"/>
      <point x="618" y="100" type="line"/>
      <point x="600" y="145"/>
      <point x="600" y="196" type="qcurve" smooth="yes"/>
    </contour>
    <contour>
      <point x="1180" y="680" type="line"/>
      <point x="1053" y="680" type="line"/>
      <point x="956" y="680" type="line"/>
      <point x="956" y="344" type="line"/>
      <point x="926" y="357"/>
      <point x="890" y="357" type="qcurve" smooth="yes"/>
      <point x="824" y="357"/>
      <point x="730" y="263"/>
      <point x="730" y="130"/>
      <point x="824" y="33"/>
      <point x="956" y="33"/>
      <point x="1053" y="130"/>
      <point x="1053" y="196" type="qcurve" smooth="yes"/>
      <point x="1053" y="550" type="line"/>
      <point x="1180" y="550" type="line"/>
    </contour>
  </outline>
</glyph>
<glyph name="auto-fix" format="2">
  <advance width="1200"/>
  <unicode hex="F0068"/>
  <note>
auto-fix
</note>
  <outline>
    <contour>
      <point x="517" y="1016" type="line"/>
      <point x="439" y="1153" type="line"/>
      <point x="517" y="1290" type="line"/>
      <point x="380" y="1212" type="line"/>
      <point x="243" y="1290" type="line"/>
      <point x="320" y="1153" type="line"/>
      <point x="243" y="1016" type="line"/>
      <point x="380" y="1093" type="line"/>
    </contour>
    <contour>
      <point x="906" y="627" type="line"/>
      <point x="983" y="490" type="line"/>
      <point x="906" y="353" type="line"/>
      <point x="1043" y="430" type="line"/>
      <point x="1180" y="353" type="line"/>
      <point x="1102" y="490" type="line"/>
      <point x="1180" y="627" type="line"/>
      <point x="1043" y="549" type="line"/>
    </contour>
    <contour>
      <point x="1043" y="1212" type="line"/>
      <point x="906" y="1290" type="line"/>
      <point x="983" y="1153" type="line"/>
      <point x="906" y="1016" type="line"/>
      <point x="1043" y="1093" type="line"/>
      <point x="1180" y="1016" type="line"/>
      <point x="1102" y="1153" type="line"/>
      <point x="1180" y="1290" type="line"/>
    </contour>
    <contour>
      <point x="584" y="814" type="line"/>
      <point x="719" y="948" type="line"/>
      <point x="838" y="829" type="line"/>
      <point x="704" y="694" type="line"/>
    </contour>
    <contour>
      <point x="745" y="1016"/>
      <point x="698" y="1016"/>
      <point x="680" y="997" type="qcurve" smooth="yes"/>
      <point x="38" y="355" type="line" smooth="yes"/>
      <point x="20" y="337"/>
      <point x="20" y="291"/>
      <point x="38" y="275" type="qcurve" smooth="yes"/>
      <point x="165" y="148" type="line" smooth="yes"/>
      <point x="181" y="130"/>
      <point x="227" y="130"/>
      <point x="245" y="148" type="qcurve" smooth="yes"/>
      <point x="887" y="790" type="line" smooth="yes"/>
      <point x="906" y="808"/>
      <point x="906" y="855"/>
      <point x="887" y="871" type="qcurve" smooth="yes"/>
      <point x="761" y="997" type="line" smooth="yes"/>
    </contour>
  </outline>
</glyph>
<glyph name="auto-upload" format="2">
  <advance width="1200"/>
  <unicode hex="F0069"/>
  <note>
auto-upload
</note>
  <outline>
    <contour>
      <point x="335" y="716" type="line"/>
      <point x="200" y="716" type="line"/>
      <point x="269" y="931" type="line"/>
    </contour>
    <contour>
      <point x="327" y="1050" type="line"/>
      <point x="208" y="1050" type="line"/>
      <point x="20" y="519" type="line"/>
      <point x="133" y="519" type="line"/>
      <point x="175" y="635" type="line"/>
      <point x="362" y="635" type="line"/>
      <point x="404" y="519" type="line"/>
      <point x="514" y="519" type="line"/>
    </contour>
    <contour>
      <point x="534" y="401" type="line"/>
      <point x="534" y="282" type="line"/>
      <point x="1180" y="282" type="line"/>
      <point x="1180" y="401" type="line"/>
    </contour>
    <contour>
      <point x="710" y="812" type="line"/>
      <point x="710" y="519" type="line"/>
      <point x="1003" y="519" type="line"/>
      <point x="1003" y="812" type="line"/>
      <point x="1180" y="812" type="line"/>
      <point x="857" y="1138" type="line"/>
      <point x="534" y="812" type="line"/>
    </contour>
  </outline>
</glyph>
<glyph name="autorenew" format="2">
  <advance width="1200"/>
  <unicode hex="F006A"/>
  <note>
autorenew
</note>
  <outline>
    <contour>
      <point x="494" y="1097"/>
      <point x="600" y="1097" type="qcurve"/>
      <point x="600" y="903" type="line"/>
      <point x="857" y="1160" type="line"/>
      <point x="600" y="1420" type="line"/>
      <point x="600" y="1227" type="line"/>
      <point x="461" y="1227"/>
      <point x="222" y="1088"/>
      <point x="83" y="849"/>
      <point x="83" y="710" type="qcurve" smooth="yes"/>
      <point x="83" y="562"/>
      <point x="165" y="435" type="qcurve"/>
      <point x="259" y="529" type="line"/>
      <point x="213" y="613"/>
      <point x="213" y="710" type="qcurve" smooth="yes"/>
      <point x="213" y="816"/>
      <point x="316" y="994"/>
    </contour>
    <contour>
      <point x="1117" y="858"/>
      <point x="1035" y="985" type="qcurve"/>
      <point x="941" y="891" type="line"/>
      <point x="987" y="804"/>
      <point x="987" y="710" type="qcurve" smooth="yes"/>
      <point x="987" y="604"/>
      <point x="884" y="426"/>
      <point x="706" y="323"/>
      <point x="600" y="323" type="qcurve"/>
      <point x="600" y="517" type="line"/>
      <point x="343" y="260" type="line"/>
      <point x="600" y="0" type="line"/>
      <point x="600" y="193" type="line"/>
      <point x="739" y="193"/>
      <point x="978" y="332"/>
      <point x="1117" y="571"/>
      <point x="1117" y="710" type="qcurve" smooth="yes"/>
    </contour>
  </outline>
</glyph>
<glyph name="av-timer" format="2">
  <advance width="1200"/>
  <unicode hex="F006B"/>
  <note>
av-timer
</note>
  <outline>
    <contour>
      <point x="537" y="414"/>
      <point x="537" y="387" type="qcurve" smooth="yes"/>
      <point x="537" y="360"/>
      <point x="573" y="323"/>
      <point x="627" y="323"/>
      <point x="663" y="360"/>
      <point x="663" y="414"/>
      <point x="627" y="453"/>
      <point x="573" y="453"/>
    </contour>
    <contour>
      <point x="600" y="1290" type="qcurve" smooth="yes"/>
      <point x="537" y="1290" type="line"/>
      <point x="537" y="1033" type="line"/>
      <point x="663" y="1033" type="line"/>
      <point x="663" y="1157" type="line"/>
      <point x="772" y="1139"/>
      <point x="950" y="1015"/>
      <point x="1050" y="822"/>
      <point x="1050" y="710" type="qcurve" smooth="yes"/>
      <point x="1050" y="586"/>
      <point x="929" y="381"/>
      <point x="724" y="260"/>
      <point x="476" y="260"/>
      <point x="271" y="381"/>
      <point x="150" y="586"/>
      <point x="150" y="710" type="qcurve" smooth="yes"/>
      <point x="150" y="870"/>
      <point x="250" y="994" type="qcurve"/>
      <point x="600" y="647" type="line"/>
      <point x="691" y="737" type="line"/>
      <point x="253" y="1175" type="line"/>
      <point x="253" y="1172" type="line"/>
      <point x="144" y="1094"/>
      <point x="20" y="849"/>
      <point x="20" y="710" type="qcurve" smooth="yes"/>
      <point x="20" y="553"/>
      <point x="177" y="287"/>
      <point x="443" y="130"/>
      <point x="757" y="130"/>
      <point x="1023" y="287"/>
      <point x="1180" y="553"/>
      <point x="1180" y="867"/>
      <point x="1023" y="1133"/>
      <point x="757" y="1290"/>
    </contour>
    <contour>
      <point x="987" y="683"/>
      <point x="987" y="710" type="qcurve" smooth="yes"/>
      <point x="987" y="737"/>
      <point x="950" y="773"/>
      <point x="896" y="773"/>
      <point x="857" y="737"/>
      <point x="857" y="683"/>
      <point x="896" y="647"/>
      <point x="950" y="647"/>
    </contour>
    <contour>
      <point x="213" y="737"/>
      <point x="213" y="710" type="qcurve" smooth="yes"/>
      <point x="213" y="683"/>
      <point x="250" y="647"/>
      <point x="304" y="647"/>
      <point x="343" y="683"/>
      <point x="343" y="737"/>
      <point x="304" y="773"/>
      <point x="250" y="773"/>
    </contour>
  </outline>
</glyph>
<glyph name="baby" format="2">
  <advance width="1200"/>
  <unicode hex="F006C"/>
  <note>
baby
</note>
  <outline>
    <contour>
      <point x="953" y="1227"/>
      <point x="857" y="1130"/>
      <point x="857" y="997"/>
      <point x="953" y="903"/>
      <point x="1086" y="903"/>
      <point x="1180" y="997"/>
      <point x="1180" y="1130"/>
      <point x="1086" y="1227"/>
      <point x="1020" y="1227" type="qcurve" smooth="yes"/>
    </contour>
    <contour>
      <point x="567" y="193" type="line" smooth="yes"/>
      <point x="609" y="193"/>
      <point x="663" y="251"/>
      <point x="663" y="332"/>
      <point x="609" y="387"/>
      <point x="567" y="387" type="qcurve" smooth="yes"/>
      <point x="117" y="387" type="line" smooth="yes"/>
      <point x="77" y="387"/>
      <point x="20" y="332"/>
      <point x="20" y="251"/>
      <point x="77" y="193"/>
      <point x="117" y="193" type="qcurve" smooth="yes"/>
    </contour>
    <contour>
      <point x="878" y="221"/>
      <point x="950" y="187"/>
      <point x="1026" y="215"/>
      <point x="1059" y="287"/>
      <point x="1047" y="323" type="qcurve" smooth="yes"/>
      <point x="863" y="846" type="line" smooth="yes"/>
      <point x="845" y="894"/>
      <point x="814" y="915" type="qcurve" smooth="yes"/>
      <point x="760" y="952"/>
      <point x="633" y="952" type="qcurve" smooth="yes"/>
      <point x="555" y="952"/>
      <point x="479" y="928" type="qcurve" smooth="yes"/>
      <point x="419" y="906"/>
      <point x="361" y="870" type="qcurve" smooth="yes"/>
      <point x="322" y="846"/>
      <point x="289" y="816" type="qcurve" smooth="yes"/>
      <point x="262" y="792" type="line"/>
      <point x="537" y="517" type="line"/>
      <point x="772" y="517" type="line"/>
      <point x="863" y="260" type="line" smooth="yes"/>
    </contour>
  </outline>
</glyph>
<glyph name="backburger" format="2">
  <advance width="1200"/>
  <unicode hex="F006D"/>
  <note>
backburger
</note>
  <outline>
    <contour>
      <point x="1180" y="652" type="line"/>
      <point x="1180" y="768" type="line"/>
      <point x="245" y="768" type="line"/>
      <point x="478" y="1003" type="line"/>
      <point x="396" y="1086" type="line"/>
      <point x="20" y="710" type="line"/>
      <point x="396" y="334" type="line"/>
      <point x="478" y="417" type="line"/>
      <point x="245" y="652" type="line"/>
    </contour>
    <contour>
      <point x="596" y="1061" type="line"/>
      <point x="596" y="943" type="line"/>
      <point x="1180" y="943" type="line"/>
      <point x="1180" y="1061" type="line"/>
    </contour>
    <contour>
      <point x="596" y="477" type="line"/>
      <point x="596" y="359" type="line"/>
      <point x="1180" y="359" type="line"/>
      <point x="1180" y="477" type="line"/>
    </contour>
  </outline>
</glyph>
<glyph name="backspace" format="2">
  <advance width="1200"/>
  <unicode hex="F006E"/>
  <note>
backspace
</note>
  <outline>
    <contour>
      <point x="1123" y="1145"/>
      <point x="1083" y="1145" type="qcurve" smooth="yes"/>
      <point x="358" y="1145" type="line" smooth="yes"/>
      <point x="310" y="1145"/>
      <point x="281" y="1102" type="qcurve" smooth="yes"/>
      <point x="20" y="710" type="line"/>
      <point x="281" y="318" type="line" smooth="yes"/>
      <point x="310" y="275"/>
      <point x="358" y="275" type="qcurve" smooth="yes"/>
      <point x="1083" y="275" type="line" smooth="yes"/>
      <point x="1123" y="275"/>
      <point x="1180" y="332"/>
      <point x="1180" y="372" type="qcurve" smooth="yes"/>
      <point x="1180" y="1048" type="line" smooth="yes"/>
      <point x="1180" y="1088"/>
    </contour>
    <contour>
      <point x="765" y="710" type="line"/>
      <point x="938" y="536" type="line"/>
      <point x="870" y="468" type="line"/>
      <point x="697" y="642" type="line"/>
      <point x="523" y="468" type="line"/>
      <point x="455" y="536" type="line"/>
      <point x="629" y="710" type="line"/>
      <point x="455" y="884" type="line"/>
      <point x="523" y="952" type="line"/>
      <point x="697" y="778" type="line"/>
      <point x="870" y="952" type="line"/>
      <point x="938" y="884" type="line"/>
    </contour>
  </outline>
</glyph>
<glyph name="backup-restore" format="2">
  <advance width="1200"/>
  <unicode hex="F006F"/>
  <note>
backup-restore
</note>
  <outline>
    <contour>
      <point x="818" y="1207"/>
      <point x="683" y="1207" type="qcurve" smooth="yes"/>
      <point x="548" y="1207"/>
      <point x="320" y="1073"/>
      <point x="186" y="845"/>
      <point x="186" y="710" type="qcurve"/>
      <point x="20" y="710" type="line"/>
      <point x="240" y="490" type="line"/>
      <point x="463" y="710" type="line"/>
      <point x="297" y="710" type="line"/>
      <point x="297" y="816"/>
      <point x="401" y="992"/>
      <point x="577" y="1096"/>
      <point x="789" y="1096"/>
      <point x="965" y="992"/>
      <point x="1069" y="816"/>
      <point x="1069" y="604"/>
      <point x="965" y="428"/>
      <point x="789" y="324"/>
      <point x="683" y="324" type="qcurve" smooth="yes"/>
      <point x="561" y="324"/>
      <point x="458" y="394" type="qcurve"/>
      <point x="380" y="316" type="line"/>
      <point x="515" y="213"/>
      <point x="683" y="213" type="qcurve" smooth="yes"/>
      <point x="818" y="213"/>
      <point x="1045" y="348"/>
      <point x="1180" y="575"/>
      <point x="1180" y="845"/>
      <point x="1045" y="1073"/>
    </contour>
    <contour>
      <point x="794" y="663"/>
      <point x="794" y="710" type="qcurve" smooth="yes"/>
      <point x="794" y="757"/>
      <point x="729" y="821"/>
      <point x="636" y="821"/>
      <point x="572" y="757"/>
      <point x="572" y="663"/>
      <point x="636" y="599"/>
      <point x="729" y="599"/>
    </contour>
  </outline>
</glyph>
<glyph name="bank" format="2">
  <advance width="1200"/>
  <unicode hex="F0070"/>
  <note>
bank
</note>
  <outline>
    <contour>
      <point x="1180" y="1045" type="line"/>
      <point x="599" y="1352" type="line"/>
      <point x="20" y="1045" type="line"/>
      <point x="20" y="922" type="line"/>
      <point x="1180" y="922" type="line"/>
    </contour>
    <contour>
      <point x="1057" y="802" type="line"/>
      <point x="874" y="802" type="line"/>
      <point x="874" y="372" type="line"/>
      <point x="1057" y="372" type="line"/>
    </contour>
    <contour>
      <point x="20" y="252" type="line"/>
      <point x="20" y="68" type="line"/>
      <point x="1180" y="68" type="line"/>
      <point x="1180" y="252" type="line"/>
    </contour>
    <contour>
      <point x="690" y="802" type="line"/>
      <point x="507" y="802" type="line"/>
      <point x="507" y="372" type="line"/>
      <point x="690" y="372" type="line"/>
    </contour>
    <contour>
      <point x="324" y="802" type="line"/>
      <point x="140" y="802" type="line"/>
      <point x="140" y="372" type="line"/>
      <point x="324" y="372" type="line"/>
    </contour>
  </outline>
</glyph>
<glyph name="barcode" format="2">
  <advance width="1200"/>
  <unicode hex="F0071"/>
  <note>
barcode
</note>
  <outline>
    <contour>
      <point x="20" y="361" type="line"/>
      <point x="134" y="361" type="line"/>
      <point x="134" y="1059" type="line"/>
      <point x="20" y="1059" type="line"/>
    </contour>
    <contour>
      <point x="194" y="361" type="line"/>
      <point x="251" y="361" type="line"/>
      <point x="251" y="1059" type="line"/>
      <point x="194" y="1059" type="line"/>
    </contour>
    <contour>
      <point x="309" y="361" type="line"/>
      <point x="483" y="361" type="line"/>
      <point x="483" y="1059" type="line"/>
      <point x="309" y="1059" type="line"/>
    </contour>
    <contour>
      <point x="543" y="361" type="line"/>
      <point x="600" y="361" type="line"/>
      <point x="600" y="1059" type="line"/>
      <point x="543" y="1059" type="line"/>
    </contour>
    <contour>
      <point x="717" y="361" type="line"/>
      <point x="831" y="361" type="line"/>
      <point x="831" y="1059" type="line"/>
      <point x="717" y="1059" type="line"/>
    </contour>
    <contour>
      <point x="891" y="361" type="line"/>
      <point x="1066" y="361" type="line"/>
      <point x="1066" y="1059" type="line"/>
      <point x="891" y="1059" type="line"/>
    </contour>
    <contour>
      <point x="1123" y="361" type="line"/>
      <point x="1180" y="361" type="line"/>
      <point x="1180" y="1059" type="line"/>
      <point x="1123" y="1059" type="line"/>
    </contour>
  </outline>
</glyph>
<glyph name="barcode-scan" format="2">
  <advance width="1200"/>
  <unicode hex="F0072"/>
  <note>
barcode-scan
</note>
  <outline>
    <contour>
      <point x="213" y="420" type="line"/>
      <point x="310" y="420" type="line"/>
      <point x="310" y="1000" type="line"/>
      <point x="213" y="1000" type="line"/>
    </contour>
    <contour>
      <point x="358" y="420" type="line"/>
      <point x="407" y="420" type="line"/>
      <point x="407" y="1000" type="line"/>
      <point x="358" y="1000" type="line"/>
    </contour>
    <contour>
      <point x="455" y="420" type="line"/>
      <point x="600" y="420" type="line"/>
      <point x="600" y="1000" type="line"/>
      <point x="455" y="1000" type="line"/>
    </contour>
    <contour>
      <point x="648" y="420" type="line"/>
      <point x="697" y="420" type="line"/>
      <point x="697" y="1000" type="line"/>
      <point x="648" y="1000" type="line"/>
    </contour>
    <contour>
      <point x="793" y="420" type="line"/>
      <point x="890" y="420" type="line"/>
      <point x="890" y="1000" type="line"/>
      <point x="793" y="1000" type="line"/>
    </contour>
    <contour>
      <point x="938" y="420" type="line"/>
      <point x="987" y="420" type="line"/>
      <point x="987" y="1000" type="line"/>
      <point x="938" y="1000" type="line"/>
    </contour>
    <contour>
      <point x="310" y="1097" type="line"/>
      <point x="310" y="1193" type="line"/>
      <point x="117" y="1193" type="line" smooth="yes"/>
      <point x="77" y="1193"/>
      <point x="20" y="1136"/>
      <point x="20" y="1097" type="qcurve" smooth="yes"/>
      <point x="20" y="903" type="line"/>
      <point x="117" y="903" type="line"/>
      <point x="117" y="1097" type="line"/>
    </contour>
    <contour>
      <point x="890" y="1193" type="line"/>
      <point x="890" y="1097" type="line"/>
      <point x="1083" y="1097" type="line"/>
      <point x="1083" y="903" type="line"/>
      <point x="1180" y="903" type="line"/>
      <point x="1180" y="1097" type="line" smooth="yes"/>
      <point x="1180" y="1136"/>
      <point x="1123" y="1193"/>
      <point x="1083" y="1193" type="qcurve" smooth="yes"/>
    </contour>
    <contour>
      <point x="20" y="517" type="line"/>
      <point x="20" y="323" type="line" smooth="yes"/>
      <point x="20" y="284"/>
      <point x="77" y="227"/>
      <point x="117" y="227" type="qcurve" smooth="yes"/>
      <point x="310" y="227" type="line"/>
      <point x="310" y="323" type="line"/>
      <point x="117" y="323" type="line"/>
      <point x="117" y="517" type="line"/>
    </contour>
    <contour>
      <point x="890" y="323" type="line"/>
      <point x="890" y="227" type="line"/>
      <point x="1083" y="227" type="line" smooth="yes"/>
      <point x="1123" y="227"/>
      <point x="1180" y="284"/>
      <point x="1180" y="323" type="qcurve" smooth="yes"/>
      <point x="1180" y="517" type="line"/>
      <point x="1083" y="517" type="line"/>
      <point x="1083" y="323" type="line"/>
    </contour>
  </outline>
</glyph>
<glyph name="barley" format="2">
  <advance width="1200"/>
  <unicode hex="F0073"/>
  <note>
barley
</note>
  <outline>
    <contour>
      <point x="328" y="260"/>
      <point x="398" y="208" type="qcurve" smooth="yes"/>
      <point x="447" y="171"/>
      <point x="536" y="119" type="qcurve"/>
      <point x="536" y="0" type="line"/>
      <point x="664" y="0" type="line"/>
      <point x="664" y="119" type="line"/>
      <point x="753" y="171"/>
      <point x="802" y="208" type="qcurve" smooth="yes"/>
      <point x="872" y="260"/>
      <point x="939" y="354"/>
      <point x="951" y="424" type="qcurve" smooth="yes"/>
      <point x="957" y="467"/>
      <point x="957" y="556" type="qcurve"/>
      <point x="850" y="492"/>
      <point x="802" y="455" type="qcurve" smooth="yes"/>
      <point x="722" y="400"/>
      <point x="686" y="348" type="qcurve" smooth="yes"/>
      <point x="664" y="311" type="line"/>
      <point x="664" y="461" type="line"/>
      <point x="753" y="513"/>
      <point x="802" y="550" type="qcurve" smooth="yes"/>
      <point x="872" y="602"/>
      <point x="939" y="696"/>
      <point x="951" y="766" type="qcurve" smooth="yes"/>
      <point x="957" y="809"/>
      <point x="957" y="898" type="qcurve"/>
      <point x="850" y="834"/>
      <point x="802" y="797" type="qcurve" smooth="yes"/>
      <point x="722" y="742"/>
      <point x="686" y="690" type="qcurve" smooth="yes"/>
      <point x="664" y="654" type="line"/>
      <point x="664" y="803" type="line"/>
      <point x="753" y="855"/>
      <point x="802" y="892" type="qcurve" smooth="yes"/>
      <point x="872" y="944"/>
      <point x="939" y="1038"/>
      <point x="951" y="1109" type="qcurve" smooth="yes"/>
      <point x="957" y="1151"/>
      <point x="957" y="1240" type="qcurve"/>
      <point x="850" y="1176"/>
      <point x="802" y="1139" type="qcurve" smooth="yes"/>
      <point x="722" y="1084"/>
      <point x="686" y="1032" type="qcurve" smooth="yes"/>
      <point x="670" y="1005" type="line"/>
      <point x="689" y="1072"/>
      <point x="689" y="1130" type="qcurve" smooth="yes"/>
      <point x="689" y="1194"/>
      <point x="658" y="1276" type="qcurve" smooth="yes"/>
      <point x="643" y="1325"/>
      <point x="597" y="1420" type="qcurve"/>
      <point x="554" y="1319"/>
      <point x="539" y="1270" type="qcurve" smooth="yes"/>
      <point x="511" y="1185"/>
      <point x="511" y="1121" type="qcurve" smooth="yes"/>
      <point x="511" y="1069"/>
      <point x="530" y="1002" type="qcurve" smooth="yes"/>
      <point x="524" y="1020"/>
      <point x="514" y="1032" type="qcurve" smooth="yes"/>
      <point x="478" y="1084"/>
      <point x="398" y="1139" type="qcurve" smooth="yes"/>
      <point x="350" y="1176"/>
      <point x="243" y="1240" type="qcurve"/>
      <point x="243" y="1151"/>
      <point x="249" y="1109" type="qcurve" smooth="yes"/>
      <point x="261" y="1038"/>
      <point x="328" y="944"/>
      <point x="398" y="892" type="qcurve" smooth="yes"/>
      <point x="447" y="855"/>
      <point x="536" y="803" type="qcurve"/>
      <point x="536" y="654" type="line"/>
      <point x="514" y="690" type="line" smooth="yes"/>
      <point x="478" y="742"/>
      <point x="398" y="797" type="qcurve" smooth="yes"/>
      <point x="350" y="834"/>
      <point x="243" y="898" type="qcurve"/>
      <point x="243" y="809"/>
      <point x="249" y="766" type="qcurve" smooth="yes"/>
      <point x="261" y="696"/>
      <point x="328" y="602"/>
      <point x="398" y="550" type="qcurve" smooth="yes"/>
      <point x="447" y="513"/>
      <point x="536" y="461" type="qcurve"/>
      <point x="536" y="311" type="line"/>
      <point x="514" y="348" type="line" smooth="yes"/>
      <point x="478" y="400"/>
      <point x="398" y="455" type="qcurve" smooth="yes"/>
      <point x="350" y="492"/>
      <point x="243" y="556" type="qcurve"/>
      <point x="243" y="467"/>
      <point x="249" y="424" type="qcurve" smooth="yes"/>
      <point x="261" y="354"/>
      <point x="295" y="305" type="qcurve" smooth="yes"/>
    </contour>
  </outline>
</glyph>
<glyph name="barrel" format="2">
  <advance width="1200"/>
  <unicode hex="F0074"/>
  <note>
barrel
</note>
  <outline>
    <contour>
      <point x="1050" y="647" type="line"/>
      <point x="1117" y="647" type="line" smooth="yes"/>
      <point x="1141" y="647"/>
      <point x="1180" y="683"/>
      <point x="1180" y="737"/>
      <point x="1141" y="773"/>
      <point x="1117" y="773" type="qcurve" smooth="yes"/>
      <point x="1050" y="773" type="line"/>
      <point x="1050" y="1160" type="line"/>
      <point x="1117" y="1160" type="line" smooth="yes"/>
      <point x="1141" y="1160"/>
      <point x="1180" y="1199"/>
      <point x="1180" y="1251"/>
      <point x="1141" y="1290"/>
      <point x="1117" y="1290" type="qcurve" smooth="yes"/>
      <point x="83" y="1290" type="line" smooth="yes"/>
      <point x="59" y="1290"/>
      <point x="20" y="1251"/>
      <point x="20" y="1199"/>
      <point x="59" y="1160"/>
      <point x="83" y="1160" type="qcurve" smooth="yes"/>
      <point x="150" y="1160" type="line"/>
      <point x="150" y="773" type="line"/>
      <point x="83" y="773" type="line" smooth="yes"/>
      <point x="59" y="773"/>
      <point x="20" y="737"/>
      <point x="20" y="683"/>
      <point x="59" y="647"/>
      <point x="83" y="647" type="qcurve" smooth="yes"/>
      <point x="150" y="647" type="line"/>
      <point x="150" y="260" type="line"/>
      <point x="83" y="260" type="line" smooth="yes"/>
      <point x="59" y="260"/>
      <point x="20" y="221"/>
      <point x="20" y="169"/>
      <point x="59" y="130"/>
      <point x="83" y="130" type="qcurve" smooth="yes"/>
      <point x="1117" y="130" type="line" smooth="yes"/>
      <point x="1141" y="130"/>
      <point x="1180" y="169"/>
      <point x="1180" y="221"/>
      <point x="1141" y="260"/>
      <point x="1117" y="260" type="qcurve" smooth="yes"/>
      <point x="1050" y="260" type="line"/>
    </contour>
    <contour>
      <point x="682" y="453"/>
      <point x="600" y="453" type="qcurve" smooth="yes"/>
      <point x="518" y="453"/>
      <point x="407" y="565"/>
      <point x="407" y="644" type="qcurve" smooth="yes"/>
      <point x="407" y="695"/>
      <point x="434" y="734" type="qcurve" smooth="yes"/>
      <point x="452" y="767"/>
      <point x="543" y="870" type="qcurve" smooth="yes"/>
      <point x="600" y="937" type="line"/>
      <point x="663" y="864" type="line" smooth="yes"/>
      <point x="748" y="767"/>
      <point x="766" y="734" type="qcurve" smooth="yes"/>
      <point x="793" y="695"/>
      <point x="793" y="644" type="qcurve" smooth="yes"/>
      <point x="793" y="565"/>
    </contour>
  </outline>
</glyph>
<glyph name="incognito-off" format="2">
  <advance width="1200"/>
  <unicode hex="F0075"/>
  <note>
incognito-off
</note>
  <outline>
    <contour>
      <point x="1110" y="130" type="line"/>
      <point x="1180" y="200" type="line"/>
      <point x="90" y="1290" type="line"/>
      <point x="20" y="1220" type="line"/>
      <point x="307" y="933" type="line"/>
      <point x="289" y="889" type="line"/>
      <point x="351" y="889" type="line"/>
      <point x="434" y="806" type="line"/>
      <point x="69" y="806" type="line"/>
      <point x="69" y="723" type="line"/>
      <point x="517" y="723" type="line"/>
      <point x="704" y="537" type="line"/>
      <point x="696" y="518"/>
      <point x="688" y="498" type="qcurve"/>
      <point x="618" y="526"/>
      <point x="553" y="498" type="qcurve"/>
      <point x="535" y="570"/>
      <point x="416" y="669"/>
      <point x="341" y="669" type="qcurve" smooth="yes"/>
      <point x="250" y="669"/>
      <point x="124" y="539"/>
      <point x="124" y="355"/>
      <point x="250" y="226"/>
      <point x="427" y="226"/>
      <point x="551" y="342"/>
      <point x="556" y="430" type="qcurve"/>
      <point x="579" y="446"/>
      <point x="605" y="448" type="qcurve" smooth="yes"/>
      <point x="647" y="454"/>
      <point x="685" y="428" type="qcurve"/>
      <point x="693" y="342"/>
      <point x="815" y="226"/>
      <point x="900" y="226" type="qcurve" smooth="yes"/>
      <point x="950" y="226"/>
      <point x="991" y="247" type="qcurve"/>
    </contour>
    <contour>
      <point x="406" y="288"/>
      <point x="341" y="288" type="qcurve" smooth="yes"/>
      <point x="276" y="288"/>
      <point x="186" y="381"/>
      <point x="186" y="513"/>
      <point x="276" y="604"/>
      <point x="406" y="604"/>
      <point x="496" y="513"/>
      <point x="496" y="381"/>
    </contour>
    <contour>
      <point x="921" y="288"/>
      <point x="900" y="288" type="qcurve" smooth="yes"/>
      <point x="836" y="288"/>
      <point x="745" y="381"/>
      <point x="745" y="446" type="qcurve" smooth="yes"/>
      <point x="745" y="467"/>
      <point x="750" y="487" type="qcurve"/>
      <point x="944" y="296" type="line"/>
    </contour>
    <contour>
      <point x="1172" y="806" type="line"/>
      <point x="714" y="806" type="line"/>
      <point x="797" y="723" type="line"/>
      <point x="1172" y="723" type="line"/>
    </contour>
    <contour>
      <point x="880" y="669"/>
      <point x="859" y="663" type="qcurve"/>
      <point x="918" y="604" type="line"/>
      <point x="970" y="596"/>
      <point x="1048" y="521"/>
      <point x="1053" y="467" type="qcurve"/>
      <point x="1115" y="407" type="line"/>
      <point x="1118" y="428"/>
      <point x="1118" y="446" type="qcurve" smooth="yes"/>
      <point x="1118" y="539"/>
      <point x="991" y="669"/>
      <point x="900" y="669" type="qcurve" smooth="yes"/>
    </contour>
    <contour>
      <point x="952" y="889" type="line"/>
      <point x="818" y="1241" type="line"/>
      <point x="807" y="1262"/>
      <point x="766" y="1280"/>
      <point x="742" y="1272" type="qcurve" smooth="yes"/>
      <point x="621" y="1230" type="line"/>
      <point x="494" y="1272" type="line" smooth="yes"/>
      <point x="473" y="1280"/>
      <point x="432" y="1259"/>
      <point x="424" y="1238" type="qcurve" smooth="yes"/>
      <point x="385" y="1137" type="line"/>
      <point x="631" y="889" type="line"/>
    </contour>
  </outline>
</glyph>
<glyph name="basket" format="2">
  <advance width="1200"/>
  <unicode hex="F0076"/>
  <note>
basket
</note>
  <outline>
    <contour>
      <point x="943" y="210" type="line" smooth="yes"/>
      <point x="973" y="210"/>
      <point x="1022" y="242"/>
      <point x="1037" y="267" type="qcurve"/>
      <point x="1178" y="773" type="line"/>
      <point x="1180" y="790" type="line" smooth="yes"/>
      <point x="1180" y="812"/>
      <point x="1148" y="842"/>
      <point x="1126" y="842" type="qcurve" smooth="yes"/>
      <point x="886" y="842" type="line"/>
      <point x="644" y="1188" type="line" smooth="yes"/>
      <point x="627" y="1210"/>
      <point x="573" y="1210"/>
      <point x="558" y="1188" type="qcurve" smooth="yes"/>
      <point x="314" y="842" type="line"/>
      <point x="74" y="842" type="line" smooth="yes"/>
      <point x="52" y="842"/>
      <point x="20" y="812"/>
      <point x="20" y="790" type="qcurve"/>
      <point x="25" y="766" type="line"/>
      <point x="163" y="267" type="line"/>
      <point x="178" y="242"/>
      <point x="227" y="210"/>
      <point x="257" y="210" type="qcurve" smooth="yes"/>
    </contour>
    <contour>
      <point x="758" y="842" type="line"/>
      <point x="442" y="842" type="line"/>
      <point x="600" y="1067" type="line"/>
    </contour>
    <contour>
      <point x="644" y="632"/>
      <point x="706" y="571"/>
      <point x="706" y="482"/>
      <point x="644" y="420"/>
      <point x="556" y="420"/>
      <point x="494" y="482"/>
      <point x="494" y="571"/>
      <point x="556" y="632"/>
      <point x="600" y="632" type="qcurve" smooth="yes"/>
    </contour>
  </outline>
</glyph>
<glyph name="basket-fill" format="2">
  <advance width="1200"/>
  <unicode hex="F0077"/>
  <note>
basket-fill
</note>
  <outline>
    <contour>
      <point x="20" y="1137" type="line"/>
      <point x="203" y="1137" type="line"/>
      <point x="203" y="1320" type="line"/>
      <point x="20" y="1320" type="line"/>
    </contour>
    <contour>
      <point x="203" y="833" type="line"/>
      <point x="387" y="833" type="line"/>
      <point x="387" y="1016" type="line"/>
      <point x="203" y="1016" type="line"/>
    </contour>
    <contour>
      <point x="326" y="1137" type="line"/>
      <point x="510" y="1137" type="line"/>
      <point x="510" y="1320" type="line"/>
      <point x="326" y="1320" type="line"/>
    </contour>
    <contour>
      <point x="1180" y="1077" type="line"/>
      <point x="997" y="1077" type="line"/>
      <point x="997" y="1320" type="line"/>
      <point x="753" y="1320" type="line"/>
      <point x="753" y="1077" type="line"/>
      <point x="570" y="1077" type="line"/>
      <point x="876" y="770" type="line"/>
    </contour>
    <contour>
      <point x="845" y="100" type="line" smooth="yes"/>
      <point x="879" y="100"/>
      <point x="939" y="137"/>
      <point x="954" y="166" type="qcurve"/>
      <point x="1117" y="630" type="line"/>
      <point x="1120" y="650" type="line" smooth="yes"/>
      <point x="1120" y="676"/>
      <point x="1085" y="710"/>
      <point x="1060" y="710" type="qcurve" smooth="yes"/>
      <point x="80" y="710" type="line" smooth="yes"/>
      <point x="54" y="710"/>
      <point x="20" y="676"/>
      <point x="20" y="650" type="qcurve"/>
      <point x="26" y="621" type="line"/>
      <point x="186" y="166" type="line"/>
      <point x="200" y="137"/>
      <point x="261" y="100"/>
      <point x="295" y="100" type="qcurve" smooth="yes"/>
    </contour>
    <contour>
      <point x="169" y="587" type="line"/>
      <point x="971" y="587" type="line"/>
      <point x="839" y="220" type="line"/>
      <point x="301" y="220" type="line"/>
    </contour>
  </outline>
</glyph>
<glyph name="basket-unfill" format="2">
  <advance width="1200"/>
  <unicode hex="F0078"/>
  <note>
basket-unfill
</note>
  <outline>
    <contour>
      <point x="20" y="985" type="line"/>
      <point x="20" y="802" type="line"/>
      <point x="203" y="802" type="line"/>
      <point x="203" y="985" type="line"/>
    </contour>
    <contour>
      <point x="143" y="1289" type="line"/>
      <point x="143" y="1105" type="line"/>
      <point x="326" y="1105" type="line"/>
      <point x="326" y="1289" type="line"/>
    </contour>
    <contour>
      <point x="326" y="985" type="line"/>
      <point x="326" y="802" type="line"/>
      <point x="510" y="802" type="line"/>
      <point x="510" y="985" type="line"/>
    </contour>
    <contour>
      <point x="1180" y="1045" type="line"/>
      <point x="876" y="1352" type="line"/>
      <point x="570" y="1045" type="line"/>
      <point x="753" y="1045" type="line"/>
      <point x="753" y="802" type="line"/>
      <point x="997" y="802" type="line"/>
      <point x="997" y="1045" type="line"/>
    </contour>
    <contour>
      <point x="845" y="68" type="line" smooth="yes"/>
      <point x="879" y="68"/>
      <point x="939" y="106"/>
      <point x="954" y="134" type="qcurve"/>
      <point x="1117" y="598" type="line"/>
      <point x="1120" y="618" type="line" smooth="yes"/>
      <point x="1120" y="644"/>
      <point x="1085" y="678"/>
      <point x="1060" y="678" type="qcurve" smooth="yes"/>
      <point x="80" y="678" type="line" smooth="yes"/>
      <point x="54" y="678"/>
      <point x="20" y="644"/>
      <point x="20" y="618" type="qcurve"/>
      <point x="26" y="590" type="line"/>
      <point x="186" y="134" type="line"/>
      <point x="200" y="106"/>
      <point x="261" y="68"/>
      <point x="295" y="68" type="qcurve" smooth="yes"/>
    </contour>
    <contour>
      <point x="169" y="555" type="line"/>
      <point x="971" y="555" type="line"/>
      <point x="839" y="189" type="line"/>
      <point x="301" y="189" type="line"/>
    </contour>
  </outline>
</glyph>
<glyph name="battery-alert" format="2">
  <advance width="1200"/>
  <unicode hex="F0083"/>
  <note>
battery-alert
</note>
  <outline>
    <contour>
      <point x="673" y="993" type="line"/>
      <point x="673" y="567" type="line"/>
      <point x="533" y="567" type="line"/>
      <point x="533" y="993" type="line"/>
    </contour>
    <contour>
      <point x="673" y="427" type="line"/>
      <point x="673" y="283" type="line"/>
      <point x="533" y="283" type="line"/>
      <point x="533" y="427" type="line"/>
    </contour>
    <contour>
      <point x="976" y="1280"/>
      <point x="936" y="1280" type="qcurve" smooth="yes"/>
      <point x="816" y="1280" type="line"/>
      <point x="816" y="1420" type="line"/>
      <point x="390" y="1420" type="line"/>
      <point x="390" y="1280" type="line"/>
      <point x="270" y="1280" type="line" smooth="yes"/>
      <point x="233" y="1280"/>
      <point x="176" y="1223"/>
      <point x="176" y="1187" type="qcurve" smooth="yes"/>
      <point x="176" y="100" type="line" smooth="yes"/>
      <point x="176" y="57"/>
      <point x="230" y="0"/>
      <point x="270" y="0" type="qcurve" smooth="yes"/>
      <point x="930" y="0" type="line" smooth="yes"/>
      <point x="966" y="0"/>
      <point x="1023" y="53"/>
      <point x="1023" y="90" type="qcurve" smooth="yes"/>
      <point x="1023" y="1187" type="line"/>
      <point x="1026" y="1223"/>
    </contour>
  </outline>
</glyph>
<glyph name="battery-charging-20" format="2">
  <advance width="1200"/>
  <unicode hex="F0086"/>
  <note>
battery-charging-20
</note>
  <outline>
    <contour>
      <point x="903" y="158" type="line"/>
      <point x="1180" y="764" type="line"/>
      <point x="1014" y="764" type="line"/>
      <point x="1014" y="1153" type="line"/>
      <point x="737" y="599" type="line"/>
      <point x="903" y="599" type="line"/>
    </contour>
    <contour>
      <point x="572" y="1041" type="line"/>
      <point x="572" y="433" type="line"/>
      <point x="129" y="433" type="line"/>
      <point x="129" y="1041" type="line"/>
    </contour>
    <contour>
      <point x="639" y="1153"/>
      <point x="608" y="1153" type="qcurve" smooth="yes"/>
      <point x="517" y="1153" type="line"/>
      <point x="517" y="1262" type="line"/>
      <point x="186" y="1262" type="line"/>
      <point x="186" y="1153" type="line"/>
      <point x="92" y="1153" type="line" smooth="yes"/>
      <point x="61" y="1153"/>
      <point x="20" y="1109"/>
      <point x="20" y="1078" type="qcurve" smooth="yes"/>
      <point x="20" y="231" type="line" smooth="yes"/>
      <point x="20" y="200"/>
      <point x="61" y="158"/>
      <point x="92" y="158" type="qcurve" smooth="yes"/>
      <point x="608" y="158" type="line" smooth="yes"/>
      <point x="639" y="158"/>
      <point x="683" y="200"/>
      <point x="683" y="231" type="qcurve" smooth="yes"/>
      <point x="683" y="1078" type="line" smooth="yes"/>
      <point x="683" y="1109"/>
    </contour>
  </outline>
</glyph>
<glyph name="battery-charging-40" format="2">
  <advance width="1200"/>
  <unicode hex="F0088"/>
  <note>
battery-charging-40
</note>
  <outline>
    <contour>
      <point x="652" y="1153"/>
      <point x="626" y="1153" type="qcurve" smooth="yes"/>
      <point x="517" y="1153" type="line"/>
      <point x="517" y="1262" type="line"/>
      <point x="186" y="1262" type="line"/>
      <point x="186" y="1153" type="line"/>
      <point x="74" y="1153" type="line" smooth="yes"/>
      <point x="48" y="1153"/>
      <point x="20" y="1122"/>
      <point x="20" y="1096" type="qcurve" smooth="yes"/>
      <point x="20" y="213" type="line" smooth="yes"/>
      <point x="20" y="187"/>
      <point x="48" y="158"/>
      <point x="74" y="158" type="qcurve" smooth="yes"/>
      <point x="626" y="158" type="line" smooth="yes"/>
      <point x="652" y="158"/>
      <point x="683" y="187"/>
      <point x="683" y="213" type="qcurve" smooth="yes"/>
      <point x="683" y="1096" type="line" smooth="yes"/>
      <point x="683" y="1122"/>
    </contour>
    <contour>
      <point x="572" y="1041" type="line"/>
      <point x="572" y="573" type="line"/>
      <point x="129" y="573" type="line"/>
      <point x="129" y="1041" type="line"/>
    </contour>
    <contour>
      <point x="903" y="158" type="line"/>
      <point x="1180" y="764" type="line"/>
      <point x="1014" y="764" type="line"/>
      <point x="1014" y="1153" type="line"/>
      <point x="737" y="599" type="line"/>
      <point x="903" y="599" type="line"/>
    </contour>
  </outline>
</glyph>
<glyph name="battery-plus-variant" format="2">
  <advance width="1200"/>
  <unicode hex="F008F"/>
  <note>
battery-plus-variant
</note>
  <outline>
    <contour>
      <point x="813" y="1280" type="line"/>
      <point x="813" y="1420" type="line"/>
      <point x="387" y="1420" type="line"/>
      <point x="387" y="1280" type="line"/>
      <point x="267" y="1280" type="line" smooth="yes"/>
      <point x="230" y="1280"/>
      <point x="173" y="1223"/>
      <point x="173" y="1183" type="qcurve" smooth="yes"/>
      <point x="173" y="93" type="line" smooth="yes"/>
      <point x="173" y="53"/>
      <point x="230" y="0"/>
      <point x="267" y="0" type="qcurve" smooth="yes"/>
      <point x="933" y="0" type="line" smooth="yes"/>
      <point x="970" y="0"/>
      <point x="1027" y="53"/>
      <point x="1027" y="93" type="qcurve" smooth="yes"/>
      <point x="1027" y="1183" type="line" smooth="yes"/>
      <point x="1027" y="1223"/>
      <point x="970" y="1280"/>
      <point x="933" y="1280" type="qcurve" smooth="yes"/>
    </contour>
    <contour>
      <point x="670" y="567" type="line"/>
      <point x="670" y="353" type="line"/>
      <point x="530" y="353" type="line"/>
      <point x="530" y="567" type="line"/>
      <point x="317" y="567" type="line"/>
      <point x="317" y="710" type="line"/>
      <point x="530" y="710" type="line"/>
      <point x="530" y="923" type="line"/>
      <point x="670" y="923" type="line"/>
      <point x="670" y="710" type="line"/>
      <point x="883" y="710" type="line"/>
      <point x="883" y="567" type="line"/>
    </contour>
  </outline>
</glyph>
<glyph name="battery-positive" format="2">
  <advance width="1200"/>
  <unicode hex="F0090"/>
  <note>
battery-positive
</note>
  <outline>
    <contour>
      <point x="494" y="1132" type="line"/>
      <point x="494" y="1236" type="line"/>
      <point x="178" y="1236" type="line"/>
      <point x="178" y="1132" type="line"/>
      <point x="92" y="1132" type="line" smooth="yes"/>
      <point x="62" y="1132"/>
      <point x="20" y="1090"/>
      <point x="20" y="1060" type="qcurve" smooth="yes"/>
      <point x="20" y="253" type="line" smooth="yes"/>
      <point x="20" y="224"/>
      <point x="62" y="184"/>
      <point x="92" y="184" type="qcurve" smooth="yes"/>
      <point x="583" y="184" type="line" smooth="yes"/>
      <point x="612" y="184"/>
      <point x="652" y="224"/>
      <point x="652" y="253" type="qcurve" smooth="yes"/>
      <point x="652" y="1060" type="line" smooth="yes"/>
      <point x="652" y="1090"/>
      <point x="612" y="1132"/>
      <point x="583" y="1132" type="qcurve" smooth="yes"/>
    </contour>
    <contour>
      <point x="1180" y="710" type="line"/>
      <point x="1022" y="710" type="line"/>
      <point x="1022" y="868" type="line"/>
      <point x="916" y="868" type="line"/>
      <point x="916" y="710" type="line"/>
      <point x="758" y="710" type="line"/>
      <point x="758" y="604" type="line"/>
      <point x="916" y="604" type="line"/>
      <point x="916" y="446" type="line"/>
      <point x="1022" y="446" type="line"/>
      <point x="1022" y="604" type="line"/>
      <point x="1180" y="604" type="line"/>
    </contour>
    <contour>
      <point x="126" y="1026" type="line"/>
      <point x="548" y="1026" type="line"/>
      <point x="548" y="658" type="line"/>
      <point x="126" y="658" type="line"/>
    </contour>
  </outline>
</glyph>
<glyph name="battery-unknown" format="2">
  <advance width="1200"/>
  <unicode hex="F0091"/>
  <note>
battery-unknown
</note>
  <outline>
    <contour>
      <point x="883" y="760"/>
      <point x="817" y="693" type="qcurve" smooth="yes"/>
      <point x="753" y="627" type="line" smooth="yes"/>
      <point x="720" y="593"/>
      <point x="707" y="570" type="qcurve" smooth="yes"/>
      <point x="687" y="537"/>
      <point x="677" y="497" type="qcurve"/>
      <point x="533" y="497" type="line"/>
      <point x="543" y="593"/>
      <point x="613" y="663" type="qcurve" smooth="yes"/>
      <point x="700" y="753" type="line" smooth="yes"/>
      <point x="743" y="793"/>
      <point x="743" y="910"/>
      <point x="660" y="993"/>
      <point x="540" y="993"/>
      <point x="457" y="910"/>
      <point x="457" y="853" type="qcurve"/>
      <point x="317" y="853" type="line"/>
      <point x="317" y="970"/>
      <point x="483" y="1137"/>
      <point x="717" y="1137"/>
      <point x="883" y="970"/>
      <point x="883" y="853" type="qcurve" smooth="yes"/>
    </contour>
    <contour>
      <point x="670" y="353" type="line"/>
      <point x="670" y="213" type="line"/>
      <point x="530" y="213" type="line"/>
      <point x="530" y="353" type="line"/>
    </contour>
    <contour>
      <point x="970" y="1280"/>
      <point x="933" y="1280" type="qcurve" smooth="yes"/>
      <point x="813" y="1280" type="line"/>
      <point x="813" y="1420" type="line"/>
      <point x="387" y="1420" type="line"/>
      <point x="387" y="1280" type="line"/>
      <point x="267" y="1280" type="line" smooth="yes"/>
      <point x="230" y="1280"/>
      <point x="173" y="1223"/>
      <point x="173" y="1183" type="qcurve" smooth="yes"/>
      <point x="173" y="93" type="line" smooth="yes"/>
      <point x="173" y="53"/>
      <point x="230" y="0"/>
      <point x="267" y="0" type="qcurve" smooth="yes"/>
      <point x="933" y="0" type="line" smooth="yes"/>
      <point x="970" y="0"/>
      <point x="1027" y="53"/>
      <point x="1027" y="93" type="qcurve" smooth="yes"/>
      <point x="1027" y="1183" type="line" smooth="yes"/>
      <point x="1027" y="1223"/>
    </contour>
  </outline>
</glyph>
<glyph name="beach" format="2">
  <advance width="1200"/>
  <unicode hex="F0092"/>
  <note>
beach
</note>
  <outline>
    <contour>
      <point x="737" y="689" type="line"/>
      <point x="810" y="666"/>
      <point x="849" y="601" type="qcurve"/>
      <point x="874" y="645"/>
      <point x="963" y="697"/>
      <point x="1066" y="697"/>
      <point x="1154" y="645"/>
      <point x="1180" y="601" type="qcurve"/>
      <point x="1177" y="700"/>
      <point x="1061" y="865"/>
      <point x="859" y="974"/>
      <point x="737" y="984" type="qcurve"/>
      <point x="737" y="987" type="line" smooth="yes"/>
      <point x="737" y="1010"/>
      <point x="706" y="1041"/>
      <point x="660" y="1041"/>
      <point x="626" y="1010"/>
      <point x="626" y="987" type="qcurve" smooth="yes"/>
      <point x="626" y="984" type="line"/>
      <point x="504" y="974"/>
      <point x="302" y="865"/>
      <point x="186" y="700"/>
      <point x="186" y="601" type="qcurve"/>
      <point x="212" y="645"/>
      <point x="300" y="697"/>
      <point x="403" y="697"/>
      <point x="491" y="645"/>
      <point x="517" y="601" type="qcurve"/>
      <point x="556" y="666"/>
      <point x="626" y="687" type="qcurve"/>
      <point x="626" y="329" type="line"/>
      <point x="502" y="303"/>
      <point x="395" y="270" type="qcurve" smooth="yes"/>
      <point x="300" y="239"/>
      <point x="186" y="177"/>
      <point x="186" y="158" type="qcurve"/>
      <point x="1123" y="158" type="line"/>
      <point x="1123" y="379" type="line"/>
      <point x="929" y="379"/>
      <point x="737" y="347" type="qcurve"/>
    </contour>
    <contour>
      <point x="20" y="1262" type="line"/>
      <point x="20" y="987" type="line"/>
      <point x="95" y="987"/>
      <point x="222" y="1060"/>
      <point x="294" y="1186"/>
      <point x="294" y="1262" type="qcurve"/>
    </contour>
  </outline>
</glyph>
<glyph name="flask" format="2">
  <advance width="1200"/>
  <unicode hex="F0093"/>
  <note>
flask
</note>
  <outline>
    <contour>
      <point x="987" y="67" type="line" smooth="yes"/>
      <point x="1068" y="67"/>
      <point x="1180" y="178"/>
      <point x="1180" y="260" type="qcurve" smooth="yes"/>
      <point x="1180" y="317"/>
      <point x="1147" y="363" type="qcurve"/>
      <point x="793" y="979" type="line"/>
      <point x="793" y="1097" type="line"/>
      <point x="821" y="1097"/>
      <point x="857" y="1133"/>
      <point x="857" y="1160" type="qcurve" smooth="yes"/>
      <point x="857" y="1227" type="line" smooth="yes"/>
      <point x="857" y="1278"/>
      <point x="781" y="1353"/>
      <point x="730" y="1353" type="qcurve" smooth="yes"/>
      <point x="470" y="1353" type="line" smooth="yes"/>
      <point x="419" y="1353"/>
      <point x="343" y="1278"/>
      <point x="343" y="1227" type="qcurve" smooth="yes"/>
      <point x="343" y="1160" type="line" smooth="yes"/>
      <point x="343" y="1133"/>
      <point x="379" y="1097"/>
      <point x="407" y="1097" type="qcurve"/>
      <point x="407" y="979" type="line"/>
      <point x="53" y="363" type="line"/>
      <point x="20" y="317"/>
      <point x="20" y="260" type="qcurve" smooth="yes"/>
      <point x="20" y="178"/>
      <point x="132" y="67"/>
      <point x="213" y="67" type="qcurve" smooth="yes"/>
    </contour>
    <contour>
      <point x="150" y="278"/>
      <point x="162" y="296" type="qcurve" smooth="yes"/>
      <point x="404" y="713" type="line"/>
      <point x="730" y="387" type="line"/>
      <point x="893" y="550" type="line"/>
      <point x="1038" y="296" type="line" smooth="yes"/>
      <point x="1050" y="278"/>
      <point x="1050" y="260" type="qcurve" smooth="yes"/>
      <point x="1050" y="233"/>
      <point x="1014" y="193"/>
      <point x="987" y="193" type="qcurve" smooth="yes"/>
      <point x="213" y="193" type="line" smooth="yes"/>
      <point x="186" y="193"/>
      <point x="150" y="233"/>
      <point x="150" y="260" type="qcurve" smooth="yes"/>
    </contour>
    <contour>
      <point x="691" y="840"/>
      <point x="730" y="801"/>
      <point x="730" y="746"/>
      <point x="691" y="710"/>
      <point x="636" y="710"/>
      <point x="600" y="746"/>
      <point x="600" y="801"/>
      <point x="636" y="840"/>
      <point x="663" y="840" type="qcurve" smooth="yes"/>
    </contour>
  </outline>
</glyph>
<glyph name="flask-empty" format="2">
  <advance width="1200"/>
  <unicode hex="F0094"/>
  <note>
flask-empty
</note>
  <outline>
    <contour>
      <point x="987" y="67" type="line" smooth="yes"/>
      <point x="1068" y="67"/>
      <point x="1180" y="178"/>
      <point x="1180" y="260" type="qcurve" smooth="yes"/>
      <point x="1180" y="317"/>
      <point x="1147" y="363" type="qcurve"/>
      <point x="793" y="979" type="line"/>
      <point x="793" y="1097" type="line"/>
      <point x="821" y="1097"/>
      <point x="857" y="1133"/>
      <point x="857" y="1160" type="qcurve" smooth="yes"/>
      <point x="857" y="1227" type="line" smooth="yes"/>
      <point x="857" y="1278"/>
      <point x="781" y="1353"/>
      <point x="730" y="1353" type="qcurve" smooth="yes"/>
      <point x="470" y="1353" type="line" smooth="yes"/>
      <point x="419" y="1353"/>
      <point x="343" y="1278"/>
      <point x="343" y="1227" type="qcurve" smooth="yes"/>
      <point x="343" y="1160" type="line" smooth="yes"/>
      <point x="343" y="1133"/>
      <point x="379" y="1097"/>
      <point x="407" y="1097" type="qcurve"/>
      <point x="407" y="979" type="line"/>
      <point x="53" y="363" type="line"/>
      <point x="20" y="317"/>
      <point x="20" y="260" type="qcurve" smooth="yes"/>
      <point x="20" y="178"/>
      <point x="132" y="67"/>
      <point x="213" y="67" type="qcurve" smooth="yes"/>
    </contour>
  </outline>
</glyph>
<glyph name="flask-outline" format="2">
  <advance width="1200"/>
  <unicode hex="F0096"/>
  <note>
flask-outline
</note>
  <outline>
    <contour>
      <point x="150" y="278"/>
      <point x="162" y="296" type="qcurve" smooth="yes"/>
      <point x="537" y="946" type="line"/>
      <point x="537" y="1227" type="line"/>
      <point x="663" y="1227" type="line"/>
      <point x="663" y="946" type="line"/>
      <point x="1038" y="296" type="line" smooth="yes"/>
      <point x="1050" y="278"/>
      <point x="1050" y="260" type="qcurve" smooth="yes"/>
      <point x="1050" y="233"/>
      <point x="1014" y="193"/>
      <point x="987" y="193" type="qcurve" smooth="yes"/>
      <point x="213" y="193" type="line" smooth="yes"/>
      <point x="186" y="193"/>
      <point x="150" y="233"/>
      <point x="150" y="260" type="qcurve" smooth="yes"/>
    </contour>
    <contour>
      <point x="987" y="67" type="line" smooth="yes"/>
      <point x="1068" y="67"/>
      <point x="1180" y="178"/>
      <point x="1180" y="260" type="qcurve" smooth="yes"/>
      <point x="1180" y="317"/>
      <point x="1147" y="363" type="qcurve"/>
      <point x="793" y="979" type="line"/>
      <point x="793" y="1097" type="line"/>
      <point x="821" y="1097"/>
      <point x="857" y="1133"/>
      <point x="857" y="1160" type="qcurve" smooth="yes"/>
      <point x="857" y="1227" type="line" smooth="yes"/>
      <point x="857" y="1278"/>
      <point x="781" y="1353"/>
      <point x="730" y="1353" type="qcurve" smooth="yes"/>
      <point x="470" y="1353" type="line" smooth="yes"/>
      <point x="419" y="1353"/>
      <point x="343" y="1278"/>
      <point x="343" y="1227" type="qcurve" smooth="yes"/>
      <point x="343" y="1160" type="line" smooth="yes"/>
      <point x="343" y="1133"/>
      <point x="379" y="1097"/>
      <point x="407" y="1097" type="qcurve"/>
      <point x="407" y="979" type="line"/>
      <point x="53" y="363" type="line"/>
      <point x="20" y="317"/>
      <point x="20" y="260" type="qcurve" smooth="yes"/>
      <point x="20" y="178"/>
      <point x="132" y="67"/>
      <point x="213" y="67" type="qcurve" smooth="yes"/>
    </contour>
    <contour>
      <point x="497" y="619" type="line"/>
      <point x="325" y="323" type="line"/>
      <point x="875" y="323" type="line"/>
      <point x="751" y="538" type="line"/>
      <point x="663" y="453" type="line"/>
    </contour>
    <contour>
      <point x="618" y="710"/>
      <point x="600" y="692"/>
      <point x="600" y="665"/>
      <point x="618" y="647"/>
      <point x="645" y="647"/>
      <point x="663" y="665"/>
      <point x="663" y="692"/>
      <point x="645" y="710"/>
      <point x="633" y="710" type="qcurve" smooth="yes"/>
    </contour>
  </outline>
</glyph>
<glyph name="bunk-bed-outline" format="2">
  <advance width="1200"/>
  <unicode hex="F0097"/>
  <note>
bunk-bed-outline
</note>
  <outline>
    <contour>
      <point x="20" y="157" type="line"/>
      <point x="126" y="157" type="line"/>
      <point x="126" y="263" type="line"/>
      <point x="1074" y="263" type="line"/>
      <point x="1074" y="157" type="line"/>
      <point x="1180" y="157" type="line"/>
      <point x="1180" y="1001" type="line" smooth="yes"/>
      <point x="1180" y="1088"/>
      <point x="1057" y="1211"/>
      <point x="968" y="1211" type="qcurve" smooth="yes"/>
      <point x="494" y="1211" type="line"/>
      <point x="494" y="895" type="line"/>
      <point x="126" y="895" type="line"/>
      <point x="126" y="1263" type="line"/>
      <point x="20" y="1263" type="line"/>
    </contour>
    <contour>
      <point x="968" y="1105" type="line" smooth="yes"/>
      <point x="1012" y="1105"/>
      <point x="1074" y="1043"/>
      <point x="1074" y="1001" type="qcurve" smooth="yes"/>
      <point x="1074" y="895" type="line"/>
      <point x="600" y="895" type="line"/>
      <point x="600" y="1105" type="line"/>
    </contour>
    <contour>
      <point x="1074" y="789" type="line"/>
      <point x="1074" y="653" type="line"/>
      <point x="1027" y="685"/>
      <point x="968" y="685" type="qcurve" smooth="yes"/>
      <point x="494" y="685" type="line"/>
      <point x="494" y="369" type="line"/>
      <point x="126" y="369" type="line"/>
      <point x="126" y="789" type="line"/>
    </contour>
    <contour>
      <point x="254" y="685"/>
      <point x="178" y="609"/>
      <point x="178" y="498"/>
      <point x="254" y="421"/>
      <point x="366" y="421"/>
      <point x="442" y="498"/>
      <point x="442" y="609"/>
      <point x="366" y="685"/>
      <point x="311" y="685" type="qcurve" smooth="yes"/>
    </contour>
    <contour>
      <point x="331" y="601"/>
      <point x="358" y="572"/>
      <point x="358" y="532"/>
      <point x="331" y="505"/>
      <point x="291" y="505"/>
      <point x="262" y="532"/>
      <point x="262" y="572"/>
      <point x="291" y="601"/>
      <point x="311" y="601" type="qcurve" smooth="yes"/>
    </contour>
    <contour>
      <point x="968" y="579" type="line" smooth="yes"/>
      <point x="1012" y="579"/>
      <point x="1074" y="517"/>
      <point x="1074" y="473" type="qcurve" smooth="yes"/>
      <point x="1074" y="369" type="line"/>
      <point x="600" y="369" type="line"/>
      <point x="600" y="579" type="line"/>
    </contour>
    <contour>
      <point x="254" y="1211"/>
      <point x="178" y="1135"/>
      <point x="178" y="1023"/>
      <point x="254" y="947"/>
      <point x="366" y="947"/>
      <point x="442" y="1023"/>
      <point x="442" y="1135"/>
      <point x="366" y="1211"/>
      <point x="311" y="1211" type="qcurve" smooth="yes"/>
    </contour>
    <contour>
      <point x="331" y="1127"/>
      <point x="358" y="1100"/>
      <point x="358" y="1060"/>
      <point x="331" y="1031"/>
      <point x="291" y="1031"/>
      <point x="262" y="1060"/>
      <point x="262" y="1100"/>
      <point x="291" y="1127"/>
      <point x="311" y="1127" type="qcurve" smooth="yes"/>
    </contour>
  </outline>
</glyph>
<glyph name="beer" format="2">
  <advance width="1200"/>
  <unicode hex="F0098"/>
  <note>
beer
</note>
  <outline>
    <contour>
      <point x="210" y="0" type="line"/>
      <point x="993" y="0" type="line"/>
      <point x="1133" y="1420" type="line"/>
      <point x="67" y="1420" type="line"/>
    </contour>
    <contour>
      <point x="977" y="1280" type="line"/>
      <point x="957" y="1050" type="line"/>
      <point x="857" y="1010"/>
      <point x="770" y="1003" type="qcurve" smooth="yes"/>
      <point x="637" y="993"/>
      <point x="567" y="1067" type="qcurve" smooth="yes"/>
      <point x="470" y="1163"/>
      <point x="313" y="1113" type="qcurve"/>
      <point x="410" y="140" type="line"/>
      <point x="337" y="140" type="line"/>
      <point x="223" y="1280" type="line"/>
    </contour>
  </outline>
</glyph>
<glyph name="bed-outline" format="2">
  <advance width="1200"/>
  <unicode hex="F0099"/>
  <note>
bed-outline
</note>
  <outline>
    <contour>
      <point x="272" y="631"/>
      <point x="336" y="631" type="qcurve" smooth="yes"/>
      <point x="403" y="631"/>
      <point x="494" y="725"/>
      <point x="494" y="856"/>
      <point x="403" y="947"/>
      <point x="272" y="947"/>
      <point x="178" y="856"/>
      <point x="178" y="725"/>
    </contour>
    <contour>
      <point x="316" y="843"/>
      <point x="336" y="843" type="qcurve" smooth="yes"/>
      <point x="358" y="843"/>
      <point x="390" y="811"/>
      <point x="390" y="769"/>
      <point x="358" y="737"/>
      <point x="316" y="737"/>
      <point x="284" y="769"/>
      <point x="284" y="811"/>
    </contour>
    <contour>
      <point x="1057" y="1001"/>
      <point x="968" y="1001" type="qcurve" smooth="yes"/>
      <point x="548" y="1001" type="line"/>
      <point x="548" y="579" type="line"/>
      <point x="126" y="579" type="line"/>
      <point x="126" y="1105" type="line"/>
      <point x="20" y="1105" type="line"/>
      <point x="20" y="315" type="line"/>
      <point x="126" y="315" type="line"/>
      <point x="126" y="473" type="line"/>
      <point x="1074" y="473" type="line"/>
      <point x="1074" y="315" type="line"/>
      <point x="1180" y="315" type="line"/>
      <point x="1180" y="789" type="line" smooth="yes"/>
      <point x="1180" y="878"/>
    </contour>
    <contour>
      <point x="1074" y="789" type="qcurve" smooth="yes"/>
      <point x="1074" y="579" type="line"/>
      <point x="652" y="579" type="line"/>
      <point x="652" y="895" type="line"/>
      <point x="968" y="895" type="line" smooth="yes"/>
      <point x="1012" y="895"/>
      <point x="1074" y="833"/>
    </contour>
  </outline>
</glyph>
